<?xml version="1.0" standalone="no"?>
<!DOCTYPE svg PUBLIC "-//W3C//DTD SVG 1.1//EN" "http://www.w3.org/Graphics/SVG/1.1/DTD/svg11.dtd" >
<svg xmlns="http://www.w3.org/2000/svg" xmlns:xlink="http://www.w3.org/1999/xlink" version="1.1">
<metadata>
Created by FontForge 20170910 at Tue Feb  3 17:34:47 2015
 By Jimmy Wärting
Copyright (c) 2015 by Grilli Type. All rights reserved.
</metadata>
<defs>
<font id="GTCinetypeBold" horiz-adv-x="640" >
  <font-face 
    font-family="GTCinetypeBold"
    font-weight="700"
    font-stretch="normal"
    units-per-em="1000"
    panose-1="2 0 5 3 2 0 0 2 0 4"
    ascent="770"
    descent="-230"
    x-height="527"
    cap-height="711"
    bbox="-72 -225 1440 962"
    underline-thickness="0"
    underline-position="0"
    unicode-range="U+000D-FB04"
  />
<missing-glyph horiz-adv-x="1370" 
 />
    <glyph glyph-name="IJ" unicode="IJ" horiz-adv-x="588" 
d="M198 0h-109v711h109v-711zM273 100h88l30 13l31 33l14 56v509h108v-523l-20 -91l-72 -76l-73 -29h-106v108z" />
    <glyph glyph-name="ij" unicode="ij" horiz-adv-x="550" 
d="M78 527h107v-527h-107v527zM61 754h141v-145h-141v145zM419 -132l-87 -30h-46l-65 16l27 103l49 -12h22l28 9l18 29v544h107v-576zM348 754h141v-145h-141v145z" />
    <glyph glyph-name="napostrophe" unicode="&#x22;n" horiz-adv-x="586" 
d="M20 704v104h125v-109l-82 -140l-52 29l44 101zM196 495l69 40h90l93 -25l63 -85v-425h-107v386l-19 27l-50 16h-53l-62 -41l-24 -34v-354h-107v527h107v-32z" />
    <glyph glyph-name="fi" unicode="fi" horiz-adv-x="660" 
d="M475 408h-261v-408h-107v408h-90v106h90v136l58 86l87 26h41l80 -16l-28 -106l-64 16h-21l-28 -10l-18 -26v-106h368v-514h-107v408zM458 754h141v-145h-141v145z" />
    <glyph glyph-name="fl" unicode="fl" horiz-adv-x="660" 
d="M17 514h94v136l58 86l87 26h41l100 -21l-28 -106l-84 21h-21l-28 -10l-18 -26v-106h257v240h107v-754h-107v408h-257v-408h-107v408h-94v106z" />
    <glyph glyph-name=".notdef" horiz-adv-x="1370" 
 />
    <glyph glyph-name=".null" horiz-adv-x="0" 
 />
    <glyph glyph-name=".null" horiz-adv-x="0" 
 />
    <glyph glyph-name="nonmarkingreturn" unicode="&#xd;" horiz-adv-x="282" 
 />
    <glyph glyph-name="space" unicode=" " horiz-adv-x="295" 
 />
    <glyph glyph-name="exclam" unicode="!" horiz-adv-x="279" 
d="M85 211v500h108v-500h-108zM68 147h142v-147h-142v147z" />
    <glyph glyph-name="quotedbl" unicode="&#x22;" horiz-adv-x="345" 
d="M200 711h100v-275h-100v275zM42 711h100v-275h-100v275z" />
    <glyph glyph-name="numbersign" unicode="#" horiz-adv-x="768" 
d="M598 519h111v-89h-139l-46 -149h126v-89h-153l-64 -206l-87 27l55 179h-136l-63 -206l-88 27l56 179h-111v89h139l46 149h-127v89h154l63 206l88 -27l-56 -179h136l64 206l87 -27zM293 281h135l46 149h-135z" />
    <glyph glyph-name="dollar" unicode="$" 
d="M551 642l-58 -94l-63 41l-79 22h-63l-51 -16l-31 -33l-12 -40l8 -39l9 -16l46 -31l195 -56l81 -55l32 -79v-100l-26 -55l-50 -58l-111 -41v-103h-108v103h-5l-96 34l-60 42l-33 40l86 67l24 -29l35 -26l59 -20h83l64 25l18 22l12 25v52l-14 31l-39 27l-200 57l-72 52
l-34 54l-14 86l27 88l67 69l92 30v108h110v-111l96 -27z" />
    <glyph glyph-name="percent" unicode="%" horiz-adv-x="894" 
d="M156 29l501 700l65 -47l-501 -700zM199 300l-52 23l-38 39l-20 48l-9 42v75l9 41l20 47l38 39l52 23h57l51 -23l37 -39l20 -47l9 -41v-75l-9 -42l-20 -48l-37 -39l-51 -23h-57zM259 389l17 16l8 24l8 30v60l-7 29l-8 22l-20 19l-19 10h-21l-20 -10l-21 -20l-8 -21l-7 -29
v-61l8 -29l8 -24l18 -15l23 -11h20zM628 32l-52 23l-38 39l-20 48l-9 42v75l9 41l20 47l38 39l52 23h57l51 -23l37 -39l20 -47l9 -41v-75l-9 -42l-20 -48l-37 -39l-51 -23h-57zM688 121l17 16l8 24l8 30v60l-7 29l-8 22l-20 19l-19 10h-21l-20 -10l-21 -20l-8 -21l-7 -29
v-61l8 -29l8 -24l18 -15l23 -11h20z" />
    <glyph glyph-name="ampersand" unicode="&#x26;" horiz-adv-x="658" 
d="M401 147l-142 165l-77 -46l-21 -33v-51l11 -35l38 -38l37 -9h61l44 10l20 11zM234 507l48 -55l48 28l33 32l11 27v24l-8 22l-25 19l-24 7h-30l-35 -7l-22 -21l-7 -21v-28zM623 51l-80 -71l-73 85l-33 -32l-53 -26l-61 -15h-92l-75 22l-78 72l-25 85v93l54 81l82 50
l-50 57l-25 62v63l25 73l69 55l64 14h55l58 -14l70 -52l28 -72v-65l-29 -68l-62 -55l-40 -25l103 -123l13 63v46h109v-55l-21 -103l-22 -43z" />
    <glyph glyph-name="quotesingle" unicode="'" horiz-adv-x="183" 
d="M42 711h100v-275h-100v275z" />
    <glyph glyph-name="parenleft" unicode="(" horiz-adv-x="348" 
d="M155 240l30 -152l45 -115l62 -91l-87 -60l-73 105l-52 127l-33 172v155l33 173l53 121l73 104l87 -59l-62 -91l-45 -108l-31 -154v-127z" />
    <glyph glyph-name="parenright" unicode=")" horiz-adv-x="348" 
d="M193 367l-30 152l-42 107l-62 91l87 59l73 -104l49 -118l33 -173v-155l-33 -172l-49 -121l-73 -105l-87 60l62 91l41 107l31 154v127z" />
    <glyph glyph-name="asterisk" unicode="*" horiz-adv-x="514" 
d="M328 325l-74 99l-72 -99l-76 56l72 99l-118 39l29 90l118 -40v126h95v-125l116 39l29 -90l-116 -39l73 -99z" />
    <glyph glyph-name="plus" unicode="+" horiz-adv-x="580" 
d="M242 106v186h-176v95h176v186h96v-186h176v-95h-176v-186h-96z" />
    <glyph glyph-name="comma" unicode="," horiz-adv-x="279" 
d="M72 19v120h135v-125l-90 -148l-52 29l56 105z" />
    <glyph glyph-name="hyphen" unicode="-" horiz-adv-x="480" 
d="M70 356h340v-95h-340v95z" />
    <glyph glyph-name="period" unicode="." horiz-adv-x="279" 
d="M72 139h135v-139h-135v139z" />
    <glyph glyph-name="slash" unicode="/" horiz-adv-x="441" 
d="M154 -16l-96 31l223 712l96 -31z" />
    <glyph glyph-name="zero" unicode="0" horiz-adv-x="643" 
d="M273 -8l-94 44l-70 71l-36 87l-16 90v143l16 90l36 87l70 71l94 44h98l93 -44l71 -71l36 -87l16 -90v-143l-16 -90l-36 -87l-71 -71l-93 -44h-98zM399 125l44 45l21 54l15 72v123l-14 67l-21 56l-44 43l-53 26h-50l-54 -26l-43 -43l-21 -56l-14 -67v-123l14 -72l22 -53
l43 -46l52 -25h51z" />
    <glyph glyph-name="one" unicode="1" horiz-adv-x="395" 
d="M0 584l252 127h60v-711h-108v567l-156 -80z" />
    <glyph glyph-name="two" unicode="2" horiz-adv-x="505" 
d="M18 614l55 58l105 47h110l108 -53l67 -106v-100l-44 -90l-237 -263h288v-107h-444v90l301 339l27 54v45l-33 55l-59 28h-61l-64 -30l-42 -44z" />
    <glyph glyph-name="three" unicode="3" horiz-adv-x="541" 
d="M181 357v82l119 165h-226v107h375v-82l-135 -183l80 -31l69 -69l31 -81v-74l-30 -81l-67 -71l-106 -47h-109l-100 43l-61 57l78 78l45 -45l59 -25h64l68 30l33 35l17 41v42l-15 39l-37 38l-78 32h-74z" />
    <glyph glyph-name="four" unicode="4" horiz-adv-x="551" 
d="M520 284v-107h-103v-177h-108v177h-308v79l319 455h97v-427h103zM309 510l-165 -226h165v226z" />
    <glyph glyph-name="five" unicode="5" horiz-adv-x="566" 
d="M147 333l-78 57l44 321h350v-107h-256l-22 -144l8 2h123l94 -36l70 -70l31 -82v-83l-30 -81l-67 -71l-106 -47h-109l-100 43l-61 57l77 78l45 -45l60 -25h64l68 30l33 36l17 41v49l-14 37l-42 42l-51 20h-85z" />
    <glyph glyph-name="six" unicode="6" horiz-adv-x="580" 
d="M174 287v-73l14 -49l27 -37l56 -28h69l56 28l22 31l15 45v60l-11 35l-27 38l-54 29h-53l-61 -26l-41 -34zM183 438l86 35h95l106 -53l53 -77l18 -66v-87l-19 -71l-53 -74l-105 -53h-118l-104 52l-54 78l-22 78v288l25 90l68 91l106 50h102l102 -48l54 -52l-77 -77l-39 39
l-65 30h-52l-59 -28c-6.66699 -9.33301 -13.5 -18 -20.5 -26s-13.833 -16.667 -20.5 -26l-16 -60v-42z" />
    <glyph glyph-name="seven" unicode="7" horiz-adv-x="467" 
d="M59 0l274 604h-304v107h434v-76l-282 -635h-122z" />
    <glyph glyph-name="eight" unicode="8" horiz-adv-x="583" 
d="M367 448l28 28l9 28v42l-11 31l-24 20l-53 14h-49l-53 -14l-24 -20l-11 -31v-42l10 -29l27 -28l35 -10h83zM246 331l-37 -14l-35 -35l-10 -34v-62l9 -37l34 -33l51 -16h67l52 16l33 33l10 35v63l-11 34l-34 36l-38 14h-91zM528 167l-23 -77l-70 -68l-98 -30h-91l-98 30
l-70 68l-23 79v92l25 77l51 49l-32 28l-28 72v73l25 78l64 53l94 28h76l94 -28l63 -53l26 -78v-73l-29 -72l-32 -29l51 -48l25 -77v-94z" />
    <glyph glyph-name="nine" unicode="9" horiz-adv-x="580" 
d="M406 428v69l-14 48c-4 6.66699 -8.16699 13 -12.5 19s-8.83301 12.333 -13.5 19l-57 28h-69l-56 -28l-23 -32l-13 -44v-58l10 -34l27 -38l54 -29h56l61 25l40 35zM396 275l-81.998 -34h-98l-107 53l-51 77l-19 66v84l19 71l53 74l105 53h118l104 -52l54 -78l22 -78v-293
l-25 -88l-69 -91l-104 -47h-103l-102 48l-53 52l77 78l39 -40l64 -30h53l58 26c7.33301 8.66699 14.166 17 20.499 25s13.166 16.667 20.499 26l16 58v49z" />
    <glyph glyph-name="colon" unicode=":" horiz-adv-x="309" 
d="M87 139h135v-139h-135v139zM87 519h135v-139h-135v139z" />
    <glyph glyph-name="semicolon" unicode=";" horiz-adv-x="309" 
d="M87 519h135v-139h-135v139zM87 19v120h135v-125l-90 -148l-52 29l56 105z" />
    <glyph glyph-name="less" unicode="&#x3c;" horiz-adv-x="500" 
d="M149 269l286 -169l-46 -79l-351 208v81l351 208l46 -78z" />
    <glyph glyph-name="equal" unicode="=" horiz-adv-x="580" 
d="M66 467h448v-95h-448v95zM66 306h448v-95h-448v95z" />
    <glyph glyph-name="greater" unicode="&#x3e;" horiz-adv-x="500" 
d="M344 271l-286 170l46 78l351 -208v-81l-351 -208l-46 79z" />
    <glyph glyph-name="question" unicode="?" horiz-adv-x="562" 
d="M356 471l13 29l8 37l-10 39l-17 19l-44 16h-44l-47 -13l-22 -19l-7 -14l-9 -60l-107 17l13 77l23 48l60 49l80 23h78l85 -33l58 -57l20 -88l-13 -74l-30 -59l-77 -64l-39 -60v-73h-108v109l58 90zM203 147h142v-147h-142v147z" />
    <glyph glyph-name="at" unicode="@" horiz-adv-x="840" 
d="M506 200l-7 7l-25 14l-33 9h-27l-43 -11l-26 -28l-4 -14v-18l18 -25l15 -7l30 -10h25l37 16l34 30l6 10v27zM639 102l33.002 28.001l33 73v93l-24 95l-50 70c-11.333 7.33301 -22.5 15.166 -33.5 23.499s-22.5 16.5 -34.5 24.5l-85 19h-98l-82 -28l-77 -55l-58 -78
l-28 -83v-83l28 -83c9.33301 -13.333 18.833 -26.5 28.5 -39.5s19.5 -25.833 29.5 -38.5c13.333 -9.33301 26.166 -18.5 38.499 -27.5s25.166 -18.167 38.499 -27.5l82 -28h80l90 33l38 -77l-115 -42h-105l-110 38l-96 67l-74 101l-38 112v107l38 112l74 101l96 67l110 38
h126l106 -27l91 -62l70 -98l30 -113v-127l-52 -111l-78 -60h-62l-55 32l-20 29l-8 -11l-73 -35h-53l-51 16l-38 22l-45 65v52l11 49l61 60l73 20h50l50 -16l5 -3v31l-7 18l-24 17l-31 7h-51l-23 -7l-28 -17l-17 -17l-60 61l25 23l44 28l45 14h73l58 -14l59 -39l22 -56v-211
l24 -32h24z" />
    <glyph glyph-name="A" unicode="A" horiz-adv-x="624" 
d="M435 178h-247l-62 -178h-115l259 711h83l259 -711h-115zM225 285h173l-86 247z" />
    <glyph glyph-name="B" unicode="B" horiz-adv-x="639" 
d="M440 126l24 27l13 52l-13 59l-20 32l-44 27h-201v-216h201zM91 711h299l96 -26l69 -76l22 -98l-20 -79l-36 -47l-20 -10l20 -11l46 -61l23 -98l-24 -98l-55 -68l-84 -39h-336v711zM199 604v-173h204l42 28l9 12l12 43l-11 43l-29 33l-44 14h-183z" />
    <glyph glyph-name="C" unicode="C" 
d="M294 -8l-108 47l-68 69l-43 89l-19 85v147l19 87l42 87l72 70l105 46h111l106 -42l45 -35l48 -56l-78 -74l-42 48l-27 21l-68 30h-74l-63 -29l-45 -44l-28 -56l-15 -65v-122l15 -65l29 -58l43 -42l64 -30h74l70 30l26 21l41 48l78 -74l-48 -56l-45 -35l-106 -42h-111z
" />
    <glyph glyph-name="D" unicode="D" horiz-adv-x="663" 
d="M336 107l73 31l43 43l27 56l19 69v99l-18 69l-29 58l-43 42l-72 30h-138v-497h138zM90 711h267l115 -45l69 -70l44 -87l21 -87v-133l-21 -87l-44 -87l-69 -70l-115 -45h-267v711z" />
    <glyph glyph-name="E" unicode="E" horiz-adv-x="581" 
d="M198 604v-173h240v-108h-240v-216h348v-107h-457v711h457v-107h-348z" />
    <glyph glyph-name="F" unicode="F" horiz-adv-x="537" 
d="M197 604v-173h232v-108h-232v-323h-108v711h434v-107h-326z" />
    <glyph glyph-name="G" unicode="G" horiz-adv-x="677" 
d="M488 564l-32 24l-68 23h-72l-63 -29l-44 -44l-29 -56l-14 -65v-122l14 -65l30 -58l42 -42l64 -30h74l51 23l41 35l28 46l7 30v33h-167v107h275v-146l-11 -60l-44 -74l-71 -62l-89 -40h-115l-107 47l-69 69l-43 89l-19 85v147l19 87l42 87l72 70l105 46h111l106 -39
l47 -36l48 -58l-81 -70z" />
    <glyph glyph-name="H" unicode="H" horiz-adv-x="679" 
d="M480 431v280h109v-711h-109v323h-281v-323h-108v711h108v-280h281z" />
    <glyph glyph-name="I" unicode="I" horiz-adv-x="273" 
d="M191 0h-108v711h108v-711z" />
    <glyph glyph-name="J" unicode="J" horiz-adv-x="503" 
d="M109 20l-75 73l-24 103l106 29l16 -75l39 -41l27 -9h34l25 10l41 41l13 54v506h108v-524l-24 -94l-72 -73l-70 -28h-74z" />
    <glyph glyph-name="K" unicode="K" horiz-adv-x="665" 
d="M658 0h-132l-226 338l-107 -114v-224h-109v711h109v-332l310 332h152l-279 -296z" />
    <glyph glyph-name="L" unicode="L" horiz-adv-x="522" 
d="M191 107h311v-107h-419v711h108v-604z" />
    <glyph glyph-name="M" unicode="M" horiz-adv-x="840" 
d="M646 711h103v-711h-109v448l-170 -372h-99l-171 373v-449h-109v711h103l226 -491z" />
    <glyph glyph-name="N" unicode="N" horiz-adv-x="738" 
d="M91 711h89l358 -521v521h109v-711h-107l-340 498v-498h-109v711z" />
    <glyph glyph-name="O" unicode="O" horiz-adv-x="704" 
d="M295 -8l-107 47l-68 69l-44 89l-19 85v147l19 87l43 87l72 70l104 46h113l105 -46l72 -70l42 -87l19 -87v-147l-19 -85l-43 -89l-68 -69l-108 -47h-113zM318 100h69l65 30l42 42l30 58l14 65v122l-14 65l-29 56l-44 44l-64 29h-71l-63 -29l-44 -44l-29 -56l-14 -66v-122
l13 -61l31 -60l42 -43z" />
    <glyph glyph-name="P" unicode="P" horiz-adv-x="612" 
d="M199 284v-284h-108v711h302l93 -24l76 -76l30 -105l-27 -100l-51 -75l-95 -47h-220zM199 391h190l51 25l24 35l15 52l-14 50l-36 35l-52 16h-178v-213z" />
    <glyph glyph-name="Q" unicode="Q" horiz-adv-x="704" 
d="M295 -8l-107 47l-68 69l-44 89l-19 85v147l19 87l43 87l72 70l104 46h113l105 -46l72 -70l42 -87l19 -87v-147l-19 -85l-43 -89l-35 -35l43 -50l-80 -71l-53 62l-51 -22h-113zM318 100h67l-62 73l81 69l74 -86l16 16l30 58l14 65v122l-14 65l-29 56l-44 44l-64 29h-71
l-63 -29l-44 -44l-29 -56l-14 -66v-122l13 -61l31 -60l42 -43z" />
    <glyph glyph-name="R" unicode="R" horiz-adv-x="635" 
d="M393 711l93 -24l76 -76l30 -105l-27 -100l-51 -75l-48 -24l136 -307h-120l-124 284h-159v-284h-108v711h302zM199 391h190l51 25l24 35l15 52l-14 50l-36 35l-52 16h-178v-213z" />
    <glyph glyph-name="S" unicode="S" horiz-adv-x="602" 
d="M76 68l-31 39l78 75l27 -34l38 -25l79 -23h79l66 26l18 22l12 24v50l-19 38l-39 21c-32 8.66699 -64.167 17.667 -96.5 27s-64.833 18.333 -97.5 27l-80 56l-34 54l-14 86l28 88l66 69l94 31h106l113 -29l77 -48l-58 -91l-67 39l-81 21h-74l-49 -16l-32 -33l-11 -40
l8 -38l8 -15l45 -32l202 -56l81 -56l32 -79v-100l-26 -55l-50 -58l-111 -41h-116l-111 34z" />
    <glyph glyph-name="T" unicode="T" horiz-adv-x="515" 
d="M310 0h-109v604h-181v107h475v-107h-185v-604z" />
    <glyph glyph-name="U" unicode="U" horiz-adv-x="709" 
d="M311 -8l-130 48l-71 93l-23 75v503h109v-491l11 -38l41 -53l78 -29h58l77 29l43 53l11 38v491h108v-503l-23 -75l-71 -93l-129 -48h-89z" />
    <glyph glyph-name="V" unicode="V" horiz-adv-x="636" 
d="M271 0l-270 711h115l202 -533l201 533h115l-269 -711h-94z" />
    <glyph glyph-name="W" unicode="W" horiz-adv-x="870" 
d="M620 212l125 499h112l-182 -711h-98l-142 460l-142 -460h-98l-182 711h112l125 -499l145 470h80z" />
    <glyph glyph-name="X" unicode="X" horiz-adv-x="656" 
d="M328 443l195 268h134l-263 -357l260 -354h-133l-193 266l-193 -266h-134l261 354l-263 357h134z" />
    <glyph glyph-name="Y" unicode="Y" horiz-adv-x="566" 
d="M438 711h129l-230 -368v-343h-108v343l-230 368h129l155 -259z" />
    <glyph glyph-name="Z" unicode="Z" horiz-adv-x="558" 
d="M523 711v-80l-352 -524h361v-107h-507v80l353 524h-334v107h479z" />
    <glyph glyph-name="bracketleft" unicode="[" horiz-adv-x="346" 
d="M284 -96v-106h-236v982h236v-105h-129v-771h129z" />
    <glyph glyph-name="backslash" unicode="\" horiz-adv-x="441" 
d="M59 696l96 31l223 -712l-96 -31z" />
    <glyph glyph-name="bracketright" unicode="]" horiz-adv-x="346" 
d="M191 -96v771h-129v105h236v-982h-236v106h129z" />
    <glyph glyph-name="asciicircum" unicode="^" horiz-adv-x="540" 
d="M270 638l-155 -338l-91 42l199 411h95l198 -411l-90 -42z" />
    <glyph glyph-name="underscore" unicode="_" horiz-adv-x="580" 
d="M533 -27v-90h-486v90h486z" />
    <glyph glyph-name="grave" unicode="`" horiz-adv-x="302" 
d="M217 579l-190 135l54 75l190 -135z" />
    <glyph glyph-name="a" unicode="a" horiz-adv-x="565" 
d="M368 159l8 22v28l-16 17l-23 11l-46 14h-39l-54 -15l-32 -33l-7 -26v-20l25 -36l18 -10l39 -13h28l65 25zM64 449l40 37l45 29l67 20h93l67 -17l79 -53l28 -70v-285l42 -61l-86 -62l-44 65l-12 -13l-92 -47h-64l-68 21l-49 29l-58 84v61l15 69l75 76l98 25h66l66 -22
l4 -3v43l-8 20l-34 23l-44 11h-64l-33 -12l-27 -18l-28 -27z" />
    <glyph glyph-name="b" unicode="b" horiz-adv-x="594" 
d="M196 498l60 37h94l104 -49l67 -91l22 -73v-115l-22 -75l-67 -90l-102 -50h-89l-59 22l-8 6v-20h-107v754h107v-256zM212 129l32 -20l33 -12h57l50 28c7.33301 9.33301 14.333 18.833 21 28.5s13.667 19.167 21 28.5c2 6.66699 3.66699 13 5 19s3 12.333 5 19v89l-10 36
l-41 58l-55 26h-54l-55 -38l-25 -36v-206z" />
    <glyph glyph-name="c" unicode="c" horiz-adv-x="513" 
d="M349 417l-34 12h-57l-48 -26l-43 -58l-9 -38v-89l10 -36l43 -59l51 -25h50l35 12l59 55l74 -74l-72 -72l-83 -27h-84l-101 50l-67 90l-22 73v115l22 75l67 90l101 50h84l83 -27l73 -74l-77 -72z" />
    <glyph glyph-name="d" unicode="d" horiz-adv-x="594" 
d="M398 0v29l-61 -37h-94l-104 49l-67 91l-22 73v115l22 75l67 90l102 50h88l60 -22l8 -6v247h107v-754h-106zM381 398l-32 20l-33 12h-57l-50 -28l-42 -57l-10 -38v-90l10 -35l41 -58l55 -26h54l55 38l25 36v206z" />
    <glyph glyph-name="e" unicode="e" horiz-adv-x="574" 
d="M158 206l10 -24l42 -59l52 -25h51l60 16l61 37l56 -86l-77 -51l-88 -22h-84l-102 50l-67 90l-21 73v115l21 75l67 90l102 50h90l102 -50l66 -90l24 -69v-120h-365zM159 312h256l-11 32l-41 57l-51 28h-54l-49 -26l-43 -58z" />
    <glyph glyph-name="f" unicode="f" horiz-adv-x="403" 
d="M107 408h-90v106h90v136l58 86l87 26h41l100 -21l-28 -106l-84 21h-21l-28 -10l-18 -26v-106h127v-106h-127v-408h-107v408z" />
    <glyph glyph-name="g" unicode="g" horiz-adv-x="594" 
d="M382 398l-31 20l-33 12h-58l-49 -28l-42 -57l-10 -38v-66l9 -35l41 -56l54 -21h56l55 38l25 39v172zM239 -168l-68 18l-53 34l-36 36l75 77l33 -33l18 -14l46 -12h61l39 14l36 26l9 22v59l-60 -36h-92l-103 40l-70 91l-22 74v92l22 75l67 90l101 50h89l60 -22l8 -6v20
h106v-542l-25 -75l-80 -53l-72 -25h-89z" />
    <glyph glyph-name="h" unicode="h" horiz-adv-x="581" 
d="M89 754h107v-258l69 39h91l87 -26l63 -84v-425h-107v386l-20 29l-40 14h-57l-62 -41l-24 -36v-352h-107v754z" />
    <glyph glyph-name="i" unicode="i" horiz-adv-x="263" 
d="M78 527h107v-527h-107v527zM61 754h141v-145h-141v145z" />
    <glyph glyph-name="j" unicode="j" horiz-adv-x="273" 
d="M142 -132l-87 -30h-46l-65 16l27 103l49 -12h22l28 9l18 29v544h107v-576zM71 754h141v-145h-141v145z" />
    <glyph glyph-name="k" unicode="k" horiz-adv-x="552" 
d="M378 527h152l-221 -216l223 -311h-131l-166 237l-47 -45v-192h-107v753h107v-416z" />
    <glyph glyph-name="l" unicode="l" horiz-adv-x="263" 
d="M78 0v754h107v-754h-107z" />
    <glyph glyph-name="m" unicode="m" horiz-adv-x="903" 
d="M196 495l69 40h91l93 -25l30 -42l34 28l68 39h91l93 -25l63 -85v-425h-107v386l-19 27l-50 16h-54l-62 -41l-24 -34v-354h-107v386l-19 27l-50 16h-54l-62 -41l-24 -34v-354h-107v527h107v-32z" />
    <glyph glyph-name="n" unicode="n" horiz-adv-x="586" 
d="M196 495l69 40h90l93 -25l63 -85v-425h-107v386l-19 27l-50 16h-53l-62 -41l-24 -34v-354h-107v527h107v-32z" />
    <glyph glyph-name="o" unicode="o" horiz-adv-x="558" 
d="M312 97l52 26l22 34l13 61v92l-13 58l-24 36l-49 25h-69l-47 -25l-25 -35l-12 -59v-92l12 -62l23 -33l51 -26h66zM226 -8l-101 49l-53 77l-19 86v118l19 86l53 77l101 50h106l102 -50l53 -77l18 -86v-118l-18 -86l-53 -77l-102 -49h-106z" />
    <glyph glyph-name="p" unicode="p" horiz-adv-x="594" 
d="M196 498l61 37h94l104 -49l67 -91l22 -73v-115l-22 -75l-67 -90l-102 -50h-89l-59 22l-8 6v-183h-107v690h106v-29zM213 129l32 -20l33 -12h57l50 28l42 57l10 38v89l-10 36l-41 58l-55 26h-54l-55 -38l-25 -36v-206z" />
    <glyph glyph-name="q" unicode="q" horiz-adv-x="594" 
d="M397 -163v192l-60 -37h-94l-104 49l-67 91l-22 73v115l22 75l67 90l102 50h88l60 -22l8 -6v20h107v-690h-107zM381 398l-32 20l-33 12h-57l-50 -28l-42 -57l-10 -38v-90l10 -35l41 -58l55 -26h54l55 38l25 36v206z" />
    <glyph glyph-name="r" unicode="r" horiz-adv-x="404" 
d="M312 429h-34l-46 -22l-35 -39l-20 -43v-325h-107v527h107v-38l12 12l70 34h69l61 -17l-26 -103z" />
    <glyph glyph-name="s" unicode="s" horiz-adv-x="498" 
d="M187 343l21 -11l146 -29l59 -39l41 -66v-90l-39 -59l-51 -37l-70 -20h-88l-83 21l-48 39l-32 36l75 72l26 -30l22 -17l58 -16h58l33 10l20 14l13 18v29l-13 21l-22 15l-135 28l-67 36l-44 60v94l34 59l49 37l60 17h88l79 -21l71 -48l-59 -88l-54 37l-48 15h-59l-36 -10
l-10 -9l-9 -16v-34z" />
    <glyph glyph-name="t" unicode="t" horiz-adv-x="414" 
d="M217 514h131v-106h-131v-274l18 -24l27 -12h21l81 21l27 -104l-102 -23h-48l-74 28l-57 81v307h-90v106h90v184h107v-184z" />
    <glyph glyph-name="u" unicode="u" horiz-adv-x="581" 
d="M298 97l62 42l25 33v355h107v-527h-106v32l-70 -40h-80l-95 25l-67 87v423h107v-386l23 -31l48 -13h46z" />
    <glyph glyph-name="v" unicode="v" horiz-adv-x="534" 
d="M12 527h114l140 -361l141 361h114l-209 -527h-91z" />
    <glyph glyph-name="w" unicode="w" horiz-adv-x="768" 
d="M341 508h85l112 -317l92 336h112l-153 -527h-95l-111 319l-110 -319h-95l-153 527h111l93 -337z" />
    <glyph glyph-name="x" unicode="x" horiz-adv-x="552" 
d="M145 0h-135l199 264l-197 263h134l130 -175l129 175h134l-197 -263c15.333 -20.667 31.5 -42.167 48.5 -64.5s34.167 -45 51.5 -68s34.333 -45.667 51 -68s32.667 -43.5 48 -63.5h-135l-130 177z" />
    <glyph glyph-name="y" unicode="y" horiz-adv-x="552" 
d="M277 209l140 318h119l-311 -690h-116l110 243l-203 447h121z" />
    <glyph glyph-name="z" unicode="z" horiz-adv-x="503" 
d="M46 0v81l258 341h-243v105h390v-81l-255 -340h260v-106h-410z" />
    <glyph glyph-name="braceleft" unicode="{" horiz-adv-x="413" 
d="M361 676h-105l-16 -10l-8 -17v-263l-75 -76l75 -76v-303l8 -18l16 -9h105v-106h-137l-64 35l-35 66v291l-93 95v46l93 95v254l35 67l64 34h137v-105z" />
    <glyph glyph-name="bar" unicode="|" horiz-adv-x="313" 
d="M202 -181h-91v954h91v-954z" />
    <glyph glyph-name="braceright" unicode="}" horiz-adv-x="413" 
d="M52 781h137l64 -34l35 -67v-254l93 -95v-46l-93 -95v-291l-35 -66l-64 -35h-137v106h105l16 9l8 18v303l75 76l-75 76v263l-8 17l-16 10h-105v105z" />
    <glyph glyph-name="asciitilde" unicode="~" horiz-adv-x="665" 
d="M605 331l-78 -43l-69 -17h-57l-48 12l-68 21l-47 8h-19l-48 -12l-61 -33l-55 104l78 41l67 16h47l64 -11l63 -21l37 -9h34l37 10l65 35z" />
    <glyph glyph-name="exclamdown" unicode="&#xa1;" horiz-adv-x="279" 
d="M193 316v-500h-108v500h108zM210 380h-142v147h142v-147z" />
    <glyph glyph-name="cent" unicode="&#xa2;" 
d="M482 366l-57 57l-34 12h-75l-48 -25l-19 -24l-23 -33l-12 -42v-89l14 -43l39 -54l56 -25h69l33 11l58 59l78 -78l-73 -73l-82 -26v-100h-108v99l-104 50l-65 89l-23 77v115l23 80l65 89l104 50v96h108v-97l81 -25l74 -77z" />
    <glyph glyph-name="sterling" unicode="&#xa3;" 
d="M126 -9l-24 103l51 13l48 35l30 56v51l-21 58h-113v98h75l-12 33l-14 85l18 100l64 65l93 31h99l79 -49l57 -80l-90 -59l-42 59l-34 21h-57l-44 -16l-25 -26l-8 -47l10 -60l21 -57h185v-98h-148l15 -39v-96l-28 -51l39 -21h66l63 13l62 30l49 -98l-80 -37l-83 -16h-103
l-86 47l-45 -32z" />
    <glyph glyph-name="currency" unicode="&#xa4;" 
d="M542 261l-25 -34.002l72 -72l-70 -70l-72 72c-5.33301 -3.33301 -10.5 -7.16602 -15.5 -11.499s-10.167 -8.16602 -15.5 -11.499l-69 -21h-63l-69 21l-31 23l-72 -72l-70 70l72 72l-25 34l-20 66v62l20 66l25 34l-72 72l70 70l72 -72l31 23l69 21h63l69 -21l31 -23l72 72
l70 -70l-72 -72l25 -34l21 -66v-62zM462 372.998l-13 46l-33 43l-41 27l-47 15h-25l-47 -15l-40 -26l-34 -44l-13 -46v-31l13 -45l33 -43l41 -28l47 -14h25l47 14l40 27l34 44l13 45v31z" />
    <glyph glyph-name="yen" unicode="&#xa5;" 
d="M382 364l-13 -21v-21h161v-94h-161v-228h-108v228h-162v94h162v21l-13 21h-149v94h90l-158 253h129l155 -259l155 259h129l-158 -253h89v-94h-148z" />
    <glyph glyph-name="brokenbar" unicode="&#xa6;" horiz-adv-x="313" 
d="M202 374h-91v399h91v-399zM202 -182h-91v399h91v-399z" />
    <glyph glyph-name="section" unicode="&#xa7;" horiz-adv-x="549" 
d="M87 537l26 83l62 68l86 31h59l88 -28l74 -62l-66 -80l-62 53l-50 14h-25l-43 -14l-31 -36l-11 -33l8 -26l219 -158l59 -57l24 -68v-93l-27 -52l-19 -20l12 -65l-28 -69l-60 -70l-86 -31h-69l-87 28l-74 61l65 81l64 -53l49 -14h34l42 14l32 32l11 30l-6 28l-226 167
l-56 60l-21 64v67l31 56l23 18zM185 392l-20 -15l-8 -11v-31l9 -23l33 -37l189 -139l4 3l8 16v52l-9 25l-37 38z" />
    <glyph glyph-name="dieresis" unicode="&#xa8;" horiz-adv-x="415" 
d="M35 754h126v-131h-126v131zM254 754h126v-131h-126v131z" />
    <glyph glyph-name="copyright" unicode="&#xa9;" horiz-adv-x="842" 
d="M548 189l-29 -20l-59 -25h-64l-63 27l-39 41l-26 54l-11 47v85l11 48l26 54l40 40l61 27h65l59 -25l29 -20l26 -34l-65 -63l-24 31l-10 9l-33 14l-30 -1l-25 -12l-19 -21l-12 -25l-9 -33v-63l8 -32l13 -26l19 -21l25 -12l30 -1l33 13l10 10l24 31l65 -63zM706 397l-28 83
l-56 78l-78 55l-83 28h-80l-82 -28l-77 -55l-58 -78l-28 -83v-83l28 -83l58 -78l77 -55l82 -28h80l83 28l78 55l56 78l28 83v83zM792 302l-38 -112l-74 -101l-96 -67l-110 -38h-105l-110 38l-96 67l-74 101l-38 112v107l38 112l74 101l96 67l110 38h105l110 -38l96 -67
l74 -101l38 -112v-107z" />
    <glyph glyph-name="ordfeminine" unicode="&#xaa;" horiz-adv-x="390" 
d="M239 460l-14 10l-34 10h-15l-30 -7l-20 -19l-4 -13v-9l8 -13l6 -4l30 -8h15l38 18l20 21v14zM256 356l-58 -29h-46l-37 11l-38 20l-35 53v40l11 44l51 50l61 15h42l32 -11v21l-1 4l-15 10l-23 6h-32l-30 -6l-8 -5l-21 -18l-56 53l27 28l28 16l54 12h47l40 -10l53 -35
l18 -46v-174l27 -40l-66 -47z" />
    <glyph glyph-name="guillemotleft" unicode="&#xab;" horiz-adv-x="538" 
d="M140 312l125 -169l-78 -62l-149 203v56l149 204l78 -63zM347 312l125 -169l-77 -62l-150 203v56l150 204l77 -63z" />
    <glyph glyph-name="logicalnot" unicode="&#xac;" horiz-adv-x="600" 
d="M516 387v-311h-96v216h-352v95h448z" />
    <glyph glyph-name="softhyphen" unicode="&#xad;" horiz-adv-x="480" 
d="M65 358h350v-95h-350v95z" />
    <glyph glyph-name="registered" unicode="&#xae;" horiz-adv-x="842" 
d="M292 146v419h178l55 -14l46 -46l18 -64l-16 -60l-31 -44l-27 -15c12.667 -28 26 -57.333 40 -88s27 -60 39 -88h-99l-73 160h-40v-160h-90zM382 396h81l19 12l5 9l7 23l-7 18l-8 11l-21 7h-76v-80zM706 397l-28 83l-56 78l-78 55l-83 28h-80l-82 -28l-77 -55l-58 -78
l-28 -83v-83l28 -83l58 -78l77 -55l82 -28h80l83 28l78 55l56 78l28 83v83zM792 302l-38 -112l-74 -101l-96 -67l-110 -38h-105l-110 38l-96 67l-74 101l-38 112v107l38 112l74 101l96 67l110 38h105l110 -38l96 -67l74 -101l38 -112v-107z" />
    <glyph glyph-name="macron" unicode="&#xaf;" horiz-adv-x="428" 
d="M393 722v-95h-358v95h358z" />
    <glyph glyph-name="degree" unicode="&#xb0;" horiz-adv-x="454" 
d="M391 514l-18 -47l-20 -29l-41 -33l-48 -19l-17 -4h-40l-15 4l-48 19l-42 33l-19 29l-19 47l-4 16v41l4 16l19 47l19 28l42 33l48 20l15 4h40l17 -4l48 -20l41 -33l20 -28l18 -47l4 -16v-41zM291 570l-7 14l-10 11l-16 14l-15 6l-9 2h-12l-11 -2l-13 -6l-19 -15l-7 -10
l-5 -10l-4 -14v-19l4 -14l5 -11l8 -10l20 -16l11 -4l9 -2h16l19 6l21 17l8 9l6 13l3 12v17z" />
    <glyph glyph-name="plusminus" unicode="&#xb1;" horiz-adv-x="580" 
d="M242 135v157h-176v95h176v176h96v-176h176v-95h-176v-157h-96zM66 95h448v-95h-448v95z" />
    <glyph glyph-name="twosuperior" unicode="&#xb2;" horiz-adv-x="335" 
d="M41 692l39 41l60 25h62l62 -29l39 -59v-57l-26 -50l-96 -96h127v-81h-257v65l158 155l11 24v15l-15 23l-21 10h-28l-24 -10l-32 -33z" />
    <glyph glyph-name="threesuperior" unicode="&#xb3;" horiz-adv-x="337" 
d="M106 556v58l48 61h-101v78h214v-56l-58 -78l25 -9l38 -37l18 -43v-41l-18 -47l-33 -34l-61 -27h-61l-54 21l-42 42l60 59l31 -33l22 -10h28l26 11l15 15l5 16v14l-3 11l-17 16l-35 13h-47z" />
    <glyph glyph-name="acute" unicode="&#xb4;" horiz-adv-x="302" 
d="M27 654l190 135l54 -75l-190 -135z" />
    <glyph glyph-name="uni00B5" unicode="&#xb5;" horiz-adv-x="585" 
d="M196 -162h-107v689h107v-386l22 -31l49 -13h46l62 42l24 33v355h107v-527h-106v32l-5 -4l-65 -36h-79l-55 16v-170z" />
    <glyph glyph-name="paragraph" unicode="&#xb6;" horiz-adv-x="580" 
d="M197 -163v471h-19l-78 28l-63 73l-24 67v67l24 67l63 73l78 28h368v-98h-81v-776h-99v776h-70v-776h-99zM197 613h-4l-33 -10l-36 -43l-13 -33v-39l13 -30l36 -41l33 -11h4v207z" />
    <glyph glyph-name="periodcentered" unicode="&#xb7;" horiz-adv-x="279" 
d="M72 417h135v-139h-135v139z" />
    <glyph glyph-name="cedilla" unicode="&#xb8;" horiz-adv-x="249" 
d="M90 34l62 -17l-11 -42l50 -9l26 -60l-30 -58l-66 -27h-45l-45 21l30 64l29 -10h25l8 6l8 22l-75 17z" />
    <glyph glyph-name="onesuperior" unicode="&#xb9;" horiz-adv-x="241" 
d="M2 682l150 71h43v-367h-83v262l-75 -34z" />
    <glyph glyph-name="ordmasculine" unicode="&#xba;" horiz-adv-x="376" 
d="M152 327l-62 29l-35 53l-12 52v75l12 53l35 51l62 30h70l63 -30l35 -51l11 -53v-75l-11 -52l-35 -53l-63 -29h-70zM207 407l23 11l13 18l8 32v56l-6 30l-16 24l-25 12h-34l-24 -12l-15 -22l-7 -30v-56l8 -34l13 -18l24 -11h38z" />
    <glyph glyph-name="guillemotright" unicode="&#xbb;" horiz-adv-x="538" 
d="M265 481l78 63l150 -204v-56l-150 -203l-78 62l126 169zM58 481l78 63l150 -204v-56l-150 -203l-78 62l126 169z" />
    <glyph glyph-name="onequarter" unicode="&#xbc;" horiz-adv-x="801" 
d="M36 644l150 71h43v-367h-83v262l-75 -34zM707 163v-77h-50v-86h-82v86h-151v56l164 225h69v-204h50zM575 234l-49 -71h49v71zM110 29l501 700l65 -47l-501 -700z" />
    <glyph glyph-name="onehalf" unicode="&#xbd;" horiz-adv-x="798" 
d="M110 29l501 700l65 -47l-501 -700zM36 644l150 71h43v-367h-83v262l-75 -34zM471 306l39 41l60 25h62l62 -29l39 -59v-57l-26 -50l-96 -96h127v-81h-257v65l158 155l11 24v15l-15 23l-21 10h-28l-24 -10l-32 -33z" />
    <glyph glyph-name="threequarters" unicode="&#xbe;" horiz-adv-x="813" 
d="M707 163v-77h-50v-86h-82v86h-151v56l164 225h69v-204h50zM575 234l-49 -71h49v71zM110 29l501 700l65 -47l-501 -700zM116 513v58l48 61h-101v78h214v-56l-58 -78l25 -9l38 -37l18 -43v-41l-18 -47l-33 -34l-61 -27h-61l-54 21l-42 42l60 59l31 -33l22 -10h28l26 11
l15 15l5 16v14l-3 11l-17 16l-35 13h-47z" />
    <glyph glyph-name="questiondown" unicode="&#xbf;" horiz-adv-x="562" 
d="M204 56l-13 -29l-8 -37l10 -39l17 -19l44 -16h44l47 13l22 19l7 14l9 60l107 -17l-13 -77l-23 -48l-60 -49l-80 -23h-78l-85 33l-58 57l-20 88l13 74l30 59l77 64l39 60v73h108v-109l-58 -90zM357 380h-142v147h142v-147z" />
    <glyph glyph-name="Agrave" unicode="&#xc0;" horiz-adv-x="624" 
d="M435 178h-247l-62 -178h-115l259 711h83l259 -711h-115zM225 285h173l-86 247zM163 849l44 80l204 -113l-44 -79z" />
    <glyph glyph-name="Aacute" unicode="&#xc1;" horiz-adv-x="624" 
d="M435 178h-247l-62 -178h-115l259 711h83l259 -711h-115zM225 285h173l-86 247zM253 736l-44 79l204 113l44 -80z" />
    <glyph glyph-name="Acircumflex" unicode="&#xc2;" horiz-adv-x="624" 
d="M435 178h-247l-62 -178h-115l259 711h83l259 -711h-115zM225 285h173l-86 247zM341 931l153 -123l-58 -70l-124 102l-124 -102l-58 70l153 123h58z" />
    <glyph glyph-name="Atilde" unicode="&#xc3;" horiz-adv-x="624" 
d="M435 178h-247l-62 -178h-115l259 711h83l259 -711h-115zM225 285h173l-86 247zM256 794h-13l-19 -5l-15 -17l-8 -25l-81 27l12 38l19 31l24 18l52 24h44l49 -20l34 -21l21 -3l20 8l16 14l7 24l81 -27l-12 -38l-19 -32l-25 -18l-52 -23h-39l-39 15l-43 26z" />
    <glyph glyph-name="Adieresis" unicode="&#xc4;" horiz-adv-x="624" 
d="M435 178h-247l-62 -178h-115l259 711h83l259 -711h-115zM225 285h173l-86 247zM143 915h121v-124h-121v124zM359 915h122v-124h-122v124z" />
    <glyph glyph-name="Aring" unicode="&#xc5;" horiz-adv-x="624" 
d="M435 178h-247l-62 -178h-115l259 711h83l259 -711h-115zM225 285h173l-86 247zM357 855l-7 19l-13 13l-18 7h-14l-20 -7l-11 -12l-7 -20v-15l7 -20l12 -12l19 -7h14l19 7l12 12l7 20v15zM425 829l-14 -39l-36 -41l-44 -16h-38l-44 16l-37 41l-13 39v37l13 39l37 41l44 16
h38l44 -16l36 -41l14 -39v-37z" />
    <glyph glyph-name="AE" unicode="&#xc6;" horiz-adv-x="835" 
d="M381 313v242l-116 -242h116zM381 205h-166c-15.333 -33.333 -31.5 -67.5 -48.5 -102.5s-33.167 -69.167 -48.5 -102.5h-119l346 711h440v-107h-295v-173h188v-108h-188v-216h295v-107h-404v205z" />
    <glyph glyph-name="Ccedilla" unicode="&#xc7;" 
d="M280 -2l-94 41l-68 69l-43 89l-19 85v147l19 87l42 87l72 70l105 46h111l106 -42l45 -35l48 -56l-78 -74l-42 48l-27 21l-68 30h-74l-63 -29l-45 -44l-28 -56l-15 -65v-122l15 -65l29 -58l43 -42l64 -30h74l70 30l26 21l41 48l78 -74l-48 -56l-45 -35l-106 -42h-57
l-4 -17l50 -9l26 -60l-30 -58l-66 -27h-45l-45 21l30 64l29 -10h25l8 6l8 22l-75 17z" />
    <glyph glyph-name="Egrave" unicode="&#xc8;" horiz-adv-x="581" 
d="M198 604v-173h240v-108h-240v-216h348v-107h-457v711h457v-107h-348zM169 849l44 80l204 -113l-44 -79z" />
    <glyph glyph-name="Eacute" unicode="&#xc9;" horiz-adv-x="581" 
d="M198 604v-173h240v-108h-240v-216h348v-107h-457v711h457v-107h-348zM259 736l-44 79l204 113l44 -80z" />
    <glyph glyph-name="Ecircumflex" unicode="&#xca;" horiz-adv-x="581" 
d="M198 604v-173h240v-108h-240v-216h348v-107h-457v711h457v-107h-348zM347 931l153 -123l-58 -70l-124 102l-124 -102l-58 70l153 123h58z" />
    <glyph glyph-name="Edieresis" unicode="&#xcb;" horiz-adv-x="581" 
d="M198 604v-173h240v-108h-240v-216h348v-107h-457v711h457v-107h-348zM149 915h121v-124h-121v124zM365 915h122v-124h-122v124z" />
    <glyph glyph-name="Igrave" unicode="&#xcc;" horiz-adv-x="273" 
d="M191 0h-108v711h108v-711zM-13 849l44 80l204 -113l-44 -79z" />
    <glyph glyph-name="Iacute" unicode="&#xcd;" horiz-adv-x="273" 
d="M191 0h-108v711h108v-711zM77 736l-44 79l204 113l44 -80z" />
    <glyph glyph-name="Icircumflex" unicode="&#xce;" horiz-adv-x="273" 
d="M191 0h-108v711h108v-711zM165 931l153 -123l-58 -70l-124 102l-124 -102l-58 70l153 123h58z" />
    <glyph glyph-name="Idieresis" unicode="&#xcf;" horiz-adv-x="273" 
d="M191 0h-108v711h108v-711zM-33 915h121v-124h-121v124zM183 915h122v-124h-122v124z" />
    <glyph glyph-name="Eth" unicode="&#xd0;" horiz-adv-x="683" 
d="M90 319h-47v83h47v309h267l115 -45l69 -70l44 -87l21 -87v-133l-21 -87l-44 -87l-69 -70l-115 -45h-267v319zM336 107l73 31l43 43l27 56l19 69v99l-18 69l-29 58l-43 42l-72 30h-138v-202h168v-83h-168v-212h138z" />
    <glyph glyph-name="Ntilde" unicode="&#xd1;" horiz-adv-x="738" 
d="M91 711h89l358 -521v521h109v-711h-107l-340 498v-498h-109v711zM313 794h-13l-19 -5l-15 -17l-8 -25l-81 27l12 38l19 31l24 18l52 24h44l49 -20l34 -21l21 -3l20 8l16 14l7 24l81 -27l-12 -38l-19 -32l-25 -18l-52 -23h-39l-39 15l-43 26z" />
    <glyph glyph-name="Ograve" unicode="&#xd2;" horiz-adv-x="704" 
d="M295 -8l-107 47l-68 69l-44 89l-19 85v147l19 87l43 87l72 70l104 46h113l105 -46l72 -70l42 -87l19 -87v-147l-19 -85l-43 -89l-68 -69l-108 -47h-113zM318 100h69l65 30l42 42l30 58l14 65v122l-14 65l-29 56l-44 44l-64 29h-71l-63 -29l-44 -44l-29 -56l-14 -66v-122
l13 -61l31 -60l42 -43zM203 849l44 80l204 -113l-44 -79z" />
    <glyph glyph-name="Oacute" unicode="&#xd3;" horiz-adv-x="704" 
d="M295 -8l-107 47l-68 69l-44 89l-19 85v147l19 87l43 87l72 70l104 46h113l105 -46l72 -70l42 -87l19 -87v-147l-19 -85l-43 -89l-68 -69l-108 -47h-113zM318 100h69l65 30l42 42l30 58l14 65v122l-14 65l-29 56l-44 44l-64 29h-71l-63 -29l-44 -44l-29 -56l-14 -66v-122
l13 -61l31 -60l42 -43zM293 736l-44 79l204 113l44 -80z" />
    <glyph glyph-name="Ocircumflex" unicode="&#xd4;" horiz-adv-x="704" 
d="M295 -8l-107 47l-68 69l-44 89l-19 85v147l19 87l43 87l72 70l104 46h113l105 -46l72 -70l42 -87l19 -87v-147l-19 -85l-43 -89l-68 -69l-108 -47h-113zM318 100h69l65 30l42 42l30 58l14 65v122l-14 65l-29 56l-44 44l-64 29h-71l-63 -29l-44 -44l-29 -56l-14 -66v-122
l13 -61l31 -60l42 -43zM386 931l153 -123l-58 -70l-124 102l-124 -102l-58 70l153 123h58z" />
    <glyph glyph-name="Otilde" unicode="&#xd5;" horiz-adv-x="704" 
d="M295 -8l-107 47l-68 69l-44 89l-19 85v147l19 87l43 87l72 70l104 46h113l105 -46l72 -70l42 -87l19 -87v-147l-19 -85l-43 -89l-68 -69l-108 -47h-113zM318 100h69l65 30l42 42l30 58l14 65v122l-14 65l-29 56l-44 44l-64 29h-71l-63 -29l-44 -44l-29 -56l-14 -66v-122
l13 -61l31 -60l42 -43zM301 794h-13l-19 -5l-15 -17l-8 -25l-81 27l12 38l19 31l24 18l52 24h44l49 -20l34 -21l21 -3l20 8l16 14l7 24l81 -27l-12 -38l-19 -32l-25 -18l-52 -23h-39l-39 15l-43 26z" />
    <glyph glyph-name="Odieresis" unicode="&#xd6;" horiz-adv-x="704" 
d="M295 -8l-107 47l-68 69l-44 89l-19 85v147l19 87l43 87l72 70l104 46h113l105 -46l72 -70l42 -87l19 -87v-147l-19 -85l-43 -89l-68 -69l-108 -47h-113zM318 100h69l65 30l42 42l30 58l14 65v122l-14 65l-29 56l-44 44l-64 29h-71l-63 -29l-44 -44l-29 -56l-14 -66v-122
l13 -61l31 -60l42 -43zM183 915h121v-124h-121v124zM399 915h122v-124h-122v124z" />
    <glyph glyph-name="multiply" unicode="&#xd7;" horiz-adv-x="580" 
d="M67 184l156 155l-156 156l67 67l156 -155l156 155l67 -67l-156 -156l156 -155l-67 -67l-156 155l-156 -155z" />
    <glyph glyph-name="Oslash" unicode="&#xd8;" horiz-adv-x="704" 
d="M295 -8l-105 46l-64 -100l-68 44l73 114l-11 12l-44 89l-19 85v147l19 87l43 87l72 70l104 46h113l95 -42l61 96l68 -44l-68 -106l21 -20l42 -87l19 -87v-147l-19 -85l-43 -89l-68 -69l-108 -47h-113zM318 100h69l65 30l42 42l30 58l14 65v122l-14 65l-23 43l-251 -393
l2 -2zM179 233l18 -35l247 387l-57 26h-71l-63 -29l-44 -44l-29 -56l-14 -66v-122z" />
    <glyph glyph-name="Ugrave" unicode="&#xd9;" horiz-adv-x="709" 
d="M311 -8l-130 48l-71 93l-23 75v503h109v-491l11 -38l41 -53l78 -29h58l77 29l43 53l11 38v491h108v-503l-23 -75l-71 -93l-129 -48h-89zM205 849l44 80l204 -113l-44 -79z" />
    <glyph glyph-name="Uacute" unicode="&#xda;" horiz-adv-x="709" 
d="M311 -8l-130 48l-71 93l-23 75v503h109v-491l11 -38l41 -53l78 -29h58l77 29l43 53l11 38v491h108v-503l-23 -75l-71 -93l-129 -48h-89zM295 736l-44 79l204 113l44 -80z" />
    <glyph glyph-name="Ucircumflex" unicode="&#xdb;" horiz-adv-x="709" 
d="M311 -8l-130 48l-71 93l-23 75v503h109v-491l11 -38l41 -53l78 -29h58l77 29l43 53l11 38v491h108v-503l-23 -75l-71 -93l-129 -48h-89zM383 931l153 -123l-58 -70l-124 102l-124 -102l-58 70l153 123h58z" />
    <glyph glyph-name="Udieresis" unicode="&#xdc;" horiz-adv-x="709" 
d="M311 -8l-130 48l-71 93l-23 75v503h109v-491l11 -38l41 -53l78 -29h58l77 29l43 53l11 38v491h108v-503l-23 -75l-71 -93l-129 -48h-89zM401 915h122v-124h-122v124zM185 915h121v-124h-121v124z" />
    <glyph glyph-name="Yacute" unicode="&#xdd;" horiz-adv-x="566" 
d="M438 711h129l-230 -368v-343h-108v343l-230 368h129l155 -259zM229 736l-44 79l204 113l44 -80z" />
    <glyph glyph-name="Thorn" unicode="&#xde;" horiz-adv-x="607" 
d="M391 594l93 -24l76 -76l30 -105l-27 -100l-51 -75l-95 -47h-220v-167h-108v711h108v-117h194zM197 274h190l51 25l24 35l15 52l-14 50l-36 35l-52 15h-178v-212z" />
    <glyph glyph-name="germandbls" unicode="&#xdf;" horiz-adv-x="600" 
d="M372 0h-118v106h92l50 26l21 21l20 74l-12 43l-22 28l-60 38h-89v106h43l49 30l17 18l12 34l-12 50l-21 22l-62 17l-38 -7l-31 -27l-20 -44v-586h-107v608l36 83l78 68l95 12l109 -30l61 -69l24 -101l-26 -77l-21 -27l-12 -8l48 -30l50 -65l23 -85l-34 -126l-54 -57z" />
    <glyph glyph-name="agrave" unicode="&#xe0;" horiz-adv-x="565" 
d="M368 159l8 22v28l-16 17l-23 11l-46 14h-39l-54 -15l-32 -33l-7 -26v-20l25 -36l18 -10l39 -13h28l65 25zM64 449l40 37l45 29l67 20h93l67 -17l79 -53l28 -70v-285l42 -61l-86 -62l-44 65l-12 -13l-92 -47h-64l-68 21l-49 29l-58 84v61l15 69l75 76l98 25h66l66 -22
l4 -3v43l-8 20l-34 23l-44 11h-64l-33 -12l-27 -18l-28 -27zM345 579l-190 135l54 75l190 -135z" />
    <glyph glyph-name="aacute" unicode="&#xe1;" horiz-adv-x="565" 
d="M368 159l8 22v28l-16 17l-23 11l-46 14h-39l-54 -15l-32 -33l-7 -26v-20l25 -36l18 -10l39 -13h28l65 25zM64 449l40 37l45 29l67 20h93l67 -17l79 -53l28 -70v-285l42 -61l-86 -62l-44 65l-12 -13l-92 -47h-64l-68 21l-49 29l-58 84v61l15 69l75 76l98 25h66l66 -22
l4 -3v43l-8 20l-34 23l-44 11h-64l-33 -12l-27 -18l-28 -27zM175 654l190 135l54 -75l-190 -135z" />
    <glyph glyph-name="acircumflex" unicode="&#xe2;" horiz-adv-x="565" 
d="M368 159l8 22v28l-16 17l-23 11l-46 14h-39l-54 -15l-32 -33l-7 -26v-20l25 -36l18 -10l39 -13h28l65 25zM64 449l40 37l45 29l67 20h93l67 -17l79 -53l28 -70v-285l42 -61l-86 -62l-44 65l-12 -13l-92 -47h-64l-68 21l-49 29l-58 84v61l15 69l75 76l98 25h66l66 -22
l4 -3v43l-8 20l-34 23l-44 11h-64l-33 -12l-27 -18l-28 -27zM408 593l-122 100l-121 -100l-58 71l151 121h56l151 -121z" />
    <glyph glyph-name="atilde" unicode="&#xe3;" horiz-adv-x="565" 
d="M368 159l8 22v28l-16 17l-23 11l-46 14h-39l-54 -15l-32 -33l-7 -26v-20l25 -36l18 -10l39 -13h28l65 25zM64 449l40 37l45 29l67 20h93l67 -17l79 -53l28 -70v-285l42 -61l-86 -62l-44 65l-12 -13l-92 -47h-64l-68 21l-49 29l-58 84v61l15 69l75 76l98 25h66l66 -22
l4 -3v43l-8 20l-34 23l-44 11h-64l-33 -12l-27 -18l-28 -27zM86 635l19 44l41 38l56 22h51l44 -16l34 -22l22 -7h14l12 4l10 10l12 31l86 -23l-11 -42l-16 -30l-33 -26l-43 -18l-46 -2l-45 16l-50 31h-25l-22 -10l-14 -13l-7 -21z" />
    <glyph glyph-name="adieresis" unicode="&#xe4;" horiz-adv-x="565" 
d="M368 159l8 22v28l-16 17l-23 11l-46 14h-39l-54 -15l-32 -33l-7 -26v-20l25 -36l18 -10l39 -13h28l65 25zM64 449l40 37l45 29l67 20h93l67 -17l79 -53l28 -70v-285l42 -61l-86 -62l-44 65l-12 -13l-92 -47h-64l-68 21l-49 29l-58 84v61l15 69l75 76l98 25h66l66 -22
l4 -3v43l-8 20l-34 23l-44 11h-64l-33 -12l-27 -18l-28 -27zM109 754h126v-131h-126v131zM328 754h126v-131h-126v131z" />
    <glyph glyph-name="aring" unicode="&#xe5;" horiz-adv-x="565" 
d="M368 159l8 22v28l-16 17l-23 11l-46 14h-39l-54 -15l-32 -33l-7 -26v-20l25 -36l18 -10l39 -13h28l65 25zM64 449l40 37l45 29l67 20h93l67 -17l79 -53l28 -70v-285l42 -61l-86 -62l-44 65l-12 -13l-92 -47h-64l-68 21l-49 29l-58 84v61l15 69l75 76l98 25h66l66 -22
l4 -3v43l-8 20l-34 23l-44 11h-64l-33 -12l-27 -18l-28 -27zM408 696l-14 -41l-38 -44l-53 -20h-42l-52 20l-38 44l-15 41v46l15 41l38 44l52 19h42l53 -19l38 -44l14 -41v-46zM308 674l19 21l3 11v26l-3 11l-19 21l-15 5h-21l-15 -5l-19 -21l-4 -11v-27l4 -10l19 -21l15 -6
h21z" />
    <glyph glyph-name="ae" unicode="&#xe6;" horiz-adv-x="886" 
d="M394 39l-93 -47h-74l-68 21l-49 29l-58 84v61l15 69l75 76l98 25h76l44 -14l14 51l3 3l-33 21l-44 11h-74l-33 -12l-27 -18l-28 -27l-74 77l40 37l45 29l67 20h103l69 -17l52 -35l3 3l100 49h100l102 -50l66 -90l24 -69v-120h-375l10 -24l42 -59l52 -25h61l60 16l61 37
l56 -86l-77 -51l-88 -22h-94l-101 49l-21 28zM461 312h266l-11 32l-41 57l-51 28h-64l-49 -26l-43 -58zM353 205v30l-6 3l-46 13h-49l-54 -15l-32 -33l-7 -26v-20l25 -36l18 -10l39 -13h28l75 25l26 26z" />
    <glyph glyph-name="ccedilla" unicode="&#xe7;" horiz-adv-x="513" 
d="M222 1l-82 41l-67 90l-22 73v115l22 75l67 90l101 50h84l83 -27l73 -74l-77 -72l-55 55l-34 12h-57l-48 -26l-43 -58l-9 -38v-89l10 -36l43 -59l51 -25h50l35 12l59 55l74 -74l-72 -72l-83 -27h-36l-4 -17l50 -9l26 -60l-30 -58l-66 -27h-45l-45 21l30 64l29 -10h25l8 6
l8 22l-75 17z" />
    <glyph glyph-name="egrave" unicode="&#xe8;" horiz-adv-x="574" 
d="M158 206l10 -24l42 -59l52 -25h51l60 16l61 37l56 -86l-77 -51l-88 -22h-84l-102 50l-67 90l-21 73v115l21 75l67 90l102 50h90l102 -50l66 -90l24 -69v-120h-365zM159 312h256l-11 32l-41 57l-51 28h-54l-49 -26l-43 -58zM339 579l-190 135l54 75l190 -135z" />
    <glyph glyph-name="eacute" unicode="&#xe9;" horiz-adv-x="574" 
d="M158 206l10 -24l42 -59l52 -25h51l60 16l61 37l56 -86l-77 -51l-88 -22h-84l-102 50l-67 90l-21 73v115l21 75l67 90l102 50h90l102 -50l66 -90l24 -69v-120h-365zM159 312h256l-11 32l-41 57l-51 28h-54l-49 -26l-43 -58zM189 654l190 135l54 -75l-190 -135z" />
    <glyph glyph-name="ecircumflex" unicode="&#xea;" horiz-adv-x="574" 
d="M158 206l10 -24l42 -59l52 -25h51l60 16l61 37l56 -86l-77 -51l-88 -22h-84l-102 50l-67 90l-21 73v115l21 75l67 90l102 50h90l102 -50l66 -90l24 -69v-120h-365zM415 593l-122 100l-121 -100l-58 71l151 121h56l151 -121zM159 312h256l-11 32l-41 57l-51 28h-54
l-49 -26l-43 -58z" />
    <glyph glyph-name="edieresis" unicode="&#xeb;" horiz-adv-x="574" 
d="M158 206l10 -24l42 -59l52 -25h51l60 16l61 37l56 -86l-77 -51l-88 -22h-84l-102 50l-67 90l-21 73v115l21 75l67 90l102 50h90l102 -50l66 -90l24 -69v-120h-365zM159 312h256l-11 32l-41 57l-51 28h-54l-49 -26l-43 -58zM121 754h126v-131h-126v131zM340 754h126v-131
h-126v131z" />
    <glyph glyph-name="igrave" unicode="&#xec;" horiz-adv-x="263" 
d="M78 527h107v-527h-107v527zM177 579l-190 135l54 75l190 -135z" />
    <glyph glyph-name="iacute" unicode="&#xed;" horiz-adv-x="263" 
d="M78 527h107v-527h-107v527zM27 654l190 135l54 -75l-190 -135z" />
    <glyph glyph-name="icircumflex" unicode="&#xee;" horiz-adv-x="263" 
d="M78 527h107v-527h-107v527zM250 593l-122 100l-121 -100l-58 71l151 121h56l151 -121z" />
    <glyph glyph-name="idieresis" unicode="&#xef;" horiz-adv-x="305" 
d="M100 527h107v-527h-107v527zM-19 754h126v-131h-126v131zM200 754h126v-131h-126v131z" />
    <glyph glyph-name="eth" unicode="&#xf0;" horiz-adv-x="563" 
d="M464 664l-100 -56l125 -220l21 -100v-112l-26 -65l-48 -69l-98 -50h-114l-96 50l-48 69l-27 65v107l27 65l48 69l96 51h106l-55 90l-103 -58l-38 69l103 58l-50 83l94 53l42 -80l104 51zM315 362h-65l-49 -27l-24 -32l-17 -41v-65l18 -41l22 -32l49 -26h64l51 25l22 35
l17 38v76l-18 46l-27 28z" />
    <glyph glyph-name="ntilde" unicode="&#xf1;" horiz-adv-x="586" 
d="M196 495l69 40h90l93 -25l63 -85v-425h-107v386l-19 27l-50 16h-53l-62 -41l-24 -34v-354h-107v527h107v-32zM87 635l19 44l41 38l56 22h51l44 -16l34 -22l22 -7h14l12 4l10 10l12 31l86 -23l-11 -42l-16 -30l-33 -26l-43 -18l-46 -2l-45 16l-50 31h-25l-22 -10l-14 -13
l-7 -21z" />
    <glyph glyph-name="ograve" unicode="&#xf2;" horiz-adv-x="558" 
d="M312 97l52 26l22 34l13 61v92l-13 58l-24 36l-49 25h-69l-47 -25l-25 -35l-12 -59v-92l12 -62l23 -33l51 -26h66zM226 -8l-101 49l-53 77l-19 86v118l19 86l53 77l101 50h106l102 -50l53 -77l18 -86v-118l-18 -86l-53 -77l-102 -49h-106zM332 579l-190 135l54 75
l190 -135z" />
    <glyph glyph-name="oacute" unicode="&#xf3;" horiz-adv-x="558" 
d="M312 97l52 26l22 34l13 61v92l-13 58l-24 36l-49 25h-69l-47 -25l-25 -35l-12 -59v-92l12 -62l23 -33l51 -26h66zM226 -8l-101 49l-53 77l-19 86v118l19 86l53 77l101 50h106l102 -50l53 -77l18 -86v-118l-18 -86l-53 -77l-102 -49h-106zM182 654l190 135l54 -75
l-190 -135z" />
    <glyph glyph-name="ocircumflex" unicode="&#xf4;" horiz-adv-x="558" 
d="M312 97l52 26l22 34l13 61v92l-13 58l-24 36l-49 25h-69l-47 -25l-25 -35l-12 -59v-92l12 -62l23 -33l51 -26h66zM226 -8l-101 49l-53 77l-19 86v118l19 86l53 77l101 50h106l102 -50l53 -77l18 -86v-118l-18 -86l-53 -77l-102 -49h-106zM405 593l-122 100l-121 -100
l-58 71l151 121h56l151 -121z" />
    <glyph glyph-name="otilde" unicode="&#xf5;" horiz-adv-x="558" 
d="M312 97l52 26l22 34l13 61v92l-13 58l-24 36l-49 25h-69l-47 -25l-25 -35l-12 -59v-92l12 -62l23 -33l51 -26h66zM226 -8l-101 49l-53 77l-19 86v118l19 86l53 77l101 50h106l102 -50l53 -77l18 -86v-118l-18 -86l-53 -77l-102 -49h-106zM83 635l19 44l41 38l56 22h51
l44 -16l34 -22l22 -7h14l12 4l10 10l12 31l86 -23l-11 -42l-16 -30l-33 -26l-43 -18l-46 -2l-45 16l-50 31h-25l-22 -10l-14 -13l-7 -21z" />
    <glyph glyph-name="odieresis" unicode="&#xf6;" horiz-adv-x="558" 
d="M312 97l52 26l22 34l13 61v92l-13 58l-24 36l-49 25h-69l-47 -25l-25 -35l-12 -59v-92l12 -62l23 -33l51 -26h66zM226 -8l-101 49l-53 77l-19 86v118l19 86l53 77l101 50h106l102 -50l53 -77l18 -86v-118l-18 -86l-53 -77l-102 -49h-106zM114 754h126v-131h-126v131z
M333 754h126v-131h-126v131z" />
    <glyph glyph-name="divide" unicode="&#xf7;" horiz-adv-x="580" 
d="M222 239h135v-133h-135v133zM222 572h135v-133h-135v133zM66 387h448v-95h-448v95z" />
    <glyph glyph-name="oslash" unicode="&#xf8;" horiz-adv-x="559" 
d="M226 -8l-49 23l-49 -80l-63 40l50 81l-43 62l-19 86v118l19 86l53 77l101 50h106l60 -30l52 84l62 -39l-55 -90l36 -52l18 -86v-118l-18 -86l-53 -77l-102 -49h-106zM172 156l2 -4l163 264l-24 13h-69l-47 -25l-25 -35l-12 -59v-92zM312 97l52 26l22 34l13 61v92l-11 48
l-156 -254l14 -7h66z" />
    <glyph glyph-name="ugrave" unicode="&#xf9;" horiz-adv-x="581" 
d="M298 97l62 42l25 33v355h107v-527h-106v32l-70 -40h-80l-95 25l-67 87v423h107v-386l23 -31l48 -13h46zM328 579l-190 135l54 75l190 -135z" />
    <glyph glyph-name="uacute" unicode="&#xfa;" horiz-adv-x="581" 
d="M298 97l62 42l25 33v355h107v-527h-106v32l-70 -40h-80l-95 25l-67 87v423h107v-386l23 -31l48 -13h46zM178 654l190 135l54 -75l-190 -135z" />
    <glyph glyph-name="ucircumflex" unicode="&#xfb;" horiz-adv-x="581" 
d="M298 97l62 42l25 33v355h107v-527h-106v32l-70 -40h-80l-95 25l-67 87v423h107v-386l23 -31l48 -13h46zM401 593l-122 100l-121 -100l-58 71l151 121h56l151 -121z" />
    <glyph glyph-name="udieresis" unicode="&#xfc;" horiz-adv-x="581" 
d="M298 97l62 42l25 33v355h107v-527h-106v32l-70 -40h-80l-95 25l-67 87v423h107v-386l23 -31l48 -13h46zM110 754h126v-131h-126v131zM329 754h126v-131h-126v131z" />
    <glyph glyph-name="yacute" unicode="&#xfd;" horiz-adv-x="552" 
d="M277 209l140 318h119l-311 -690h-116l110 243l-203 447h121zM174 654l190 135l54 -75l-190 -135z" />
    <glyph glyph-name="thorn" unicode="&#xfe;" horiz-adv-x="594" 
d="M197 498l60 37h93l105 -49l67 -91l21 -73v-115l-21 -75l-67 -90l-102 -50h-89l-59 22l-8 6v-182h-107v813h107v-153zM213 129l32 -20l33 -12h57l50 28l42 57l10 38v89l-10 36l-42 58l-54 26h-54l-55 -38l-25 -36v-206z" />
    <glyph glyph-name="ydieresis" unicode="&#xff;" horiz-adv-x="552" 
d="M277 209l140 318h119l-311 -690h-116l110 243l-203 447h121zM106 754h126v-131h-126v131zM325 754h126v-131h-126v131z" />
    <glyph glyph-name="Amacron" unicode="&#x100;" horiz-adv-x="624" 
d="M435 178h-247l-62 -178h-115l259 711h83l259 -711h-115zM225 285h173l-86 247zM491 873v-95h-358v95h358z" />
    <glyph glyph-name="amacron" unicode="&#x101;" horiz-adv-x="565" 
d="M368 159l8 22v28l-16 17l-23 11l-46 14h-39l-54 -15l-32 -33l-7 -26v-20l25 -36l18 -10l39 -13h28l65 25zM64 449l40 37l45 29l67 20h93l67 -17l79 -53l28 -70v-285l42 -61l-86 -62l-44 65l-12 -13l-92 -47h-64l-68 21l-49 29l-58 84v61l15 69l75 76l98 25h66l66 -22
l4 -3v43l-8 20l-34 23l-44 11h-64l-33 -12l-27 -18l-28 -27zM468 722v-95h-358v95h358z" />
    <glyph glyph-name="Abreve" unicode="&#x102;" horiz-adv-x="624" 
d="M435 178h-247l-62 -178h-115l259 711h83l259 -711h-115zM225 285h173l-86 247zM340 826l22 20l5 12v27h85v-42l-15 -41l-50 -45l-52 -18h-45l-52 18l-50 45l-15 41v42h85v-26l6 -16l20 -16l23 -8h12z" />
    <glyph glyph-name="abreve" unicode="&#x103;" horiz-adv-x="565" 
d="M368 159l8 22v28l-16 17l-23 11l-46 14h-39l-54 -15l-32 -33l-7 -26v-20l25 -36l18 -10l39 -13h28l65 25zM64 449l40 37l45 29l67 20h93l67 -17l79 -53l28 -70v-285l42 -61l-86 -62l-44 65l-12 -13l-92 -47h-64l-68 21l-49 29l-58 84v61l15 69l75 76l98 25h66l66 -22
l4 -3v43l-8 20l-34 23l-44 11h-64l-33 -12l-27 -18l-28 -27zM424 745v-43l-15 -41l-51 -45l-52 -18h-46l-52 18l-51 45l-14 41v43h81v-30l4 -9l21 -19l21 -8h25l22 8l21 19l5 9v30h81z" />
    <glyph glyph-name="Aogonek" unicode="&#x104;" horiz-adv-x="624" 
d="M612 0l-50 -16l-31 -20l-17 -20l-4 -14v-14l7 -9l17 -6h51v-80h-72l-59 26l-29 45v45l11 45l38 43l12 6l-51 147h-247l-62 -178h-115l259 711h83zM225 285h173l-86 247z" />
    <glyph glyph-name="aogonek" unicode="&#x105;" horiz-adv-x="565" 
d="M64 449l40 37l45 29l67 20h93l67 -17l79 -53l28 -70v-285l42 -61l-49 -35l-25 -23l-13 -23l-4 -27v-14l4 -6l15 -5h53v-87h-76l-59 26l-30 46v46l14 43l28 36l18 17l-6 9l-12 -13l-92 -47h-64l-68 21l-49 29l-58 84v61l15 69l75 76l98 25h66l66 -22l4 -3v43l-8 20l-34 23
l-44 11h-64l-33 -12l-27 -18l-28 -27zM368 159l8 22v28l-16 17l-23 11l-46 14h-39l-54 -15l-32 -33l-7 -26v-20l25 -36l18 -10l39 -13h28l65 25z" />
    <glyph glyph-name="Cacute" unicode="&#x106;" 
d="M294 -8l-108 47l-68 69l-43 89l-19 85v147l19 87l42 87l72 70l105 46h111l106 -42l45 -35l48 -56l-78 -74l-42 48l-27 21l-68 30h-74l-63 -29l-45 -44l-28 -56l-15 -65v-122l15 -65l29 -58l43 -42l64 -30h74l70 30l26 21l41 48l78 -74l-48 -56l-45 -35l-106 -42h-111z
M268 736l-44 79l204 113l44 -80z" />
    <glyph glyph-name="cacute" unicode="&#x107;" horiz-adv-x="513" 
d="M349 417l-34 12h-57l-48 -26l-43 -58l-9 -38v-89l10 -36l43 -59l51 -25h50l35 12l59 55l74 -74l-72 -72l-83 -27h-84l-101 50l-67 90l-22 73v115l22 75l67 90l101 50h84l83 -27l73 -74l-77 -72zM174 654l190 135l54 -75l-190 -135z" />
    <glyph glyph-name="Ccircumflex" unicode="&#x108;" 
d="M294 -8l-108 47l-68 69l-43 89l-19 85v147l19 87l42 87l72 70l105 46h111l106 -42l45 -35l48 -56l-78 -74l-42 48l-27 21l-68 30h-74l-63 -29l-45 -44l-28 -56l-15 -65v-122l15 -65l29 -58l43 -42l64 -30h74l70 30l26 21l41 48l78 -74l-48 -56l-45 -35l-106 -42h-111z
M376 931l153 -123l-58 -70l-124 102l-124 -102l-58 70l153 123h58z" />
    <glyph glyph-name="ccircumflex" unicode="&#x109;" horiz-adv-x="513" 
d="M349 417l-34 12h-57l-48 -26l-43 -58l-9 -38v-89l10 -36l43 -59l51 -25h50l35 12l59 55l74 -74l-72 -72l-83 -27h-84l-101 50l-67 90l-22 73v115l22 75l67 90l101 50h84l83 -27l73 -74l-77 -72zM407 593l-122 100l-121 -100l-58 71l151 121h56l151 -121z" />
    <glyph glyph-name="Cdotaccent" unicode="&#x10a;" 
d="M294 -8l-108 47l-68 69l-43 89l-19 85v147l19 87l42 87l72 70l105 46h111l106 -42l45 -35l48 -56l-78 -74l-42 48l-27 21l-68 30h-74l-63 -29l-45 -44l-28 -56l-15 -65v-122l15 -65l29 -58l43 -42l64 -30h74l70 30l26 21l41 48l78 -74l-48 -56l-45 -35l-106 -42h-111z
M281 929h134v-137h-134v137z" />
    <glyph glyph-name="cdotaccent" unicode="&#x10b;" horiz-adv-x="513" 
d="M349 417l-34 12h-57l-48 -26l-43 -58l-9 -38v-89l10 -36l43 -59l51 -25h50l35 12l59 55l74 -74l-72 -72l-83 -27h-84l-101 50l-67 90l-22 73v115l22 75l67 90l101 50h84l83 -27l73 -74l-77 -72zM220 761h136v-138h-136v138z" />
    <glyph glyph-name="Ccaron" unicode="&#x10c;" 
d="M294 -8l-108 47l-68 69l-43 89l-19 85v147l19 87l42 87l72 70l105 46h111l106 -42l45 -35l48 -56l-78 -74l-42 48l-27 21l-68 30h-74l-63 -29l-45 -44l-28 -56l-15 -65v-122l15 -65l29 -58l43 -42l64 -30h74l70 30l26 21l41 48l78 -74l-48 -56l-45 -35l-106 -42h-111z
M318 737l-153 124l58 70l124 -102l124 102l58 -70l-153 -124h-58z" />
    <glyph glyph-name="ccaron" unicode="&#x10d;" horiz-adv-x="513" 
d="M349 417l-34 12h-57l-48 -26l-43 -58l-9 -38v-89l10 -36l43 -59l51 -25h50l35 12l59 55l74 -74l-72 -72l-83 -27h-84l-101 50l-67 90l-22 73v115l22 75l67 90l101 50h84l83 -27l73 -74l-77 -72zM467 718l-151 -121h-56l-151 121l58 71l121 -99l121 99z" />
    <glyph glyph-name="Dcaron" unicode="&#x10e;" horiz-adv-x="663" 
d="M336 107l73 31l43 43l27 56l19 69v99l-18 69l-29 58l-43 42l-72 30h-138v-497h138zM90 711h267l115 -45l69 -70l44 -87l21 -87v-133l-21 -87l-44 -87l-69 -70l-115 -45h-267v711zM300 737l-153 124l58 70l124 -102l124 102l58 -70l-153 -124h-58z" />
    <glyph glyph-name="dcaron" unicode="&#x10f;" horiz-adv-x="683" 
d="M398 0v29l-61 -37h-94l-104 49l-67 91l-22 73v115l22 75l67 90l102 50h88l60 -22l8 -6v247h107v-754h-106zM381 398l-32 20l-33 12h-57l-50 -28l-42 -57l-10 -38v-90l10 -35l41 -58l55 -26h54l55 38l25 36v206zM558 650v104h125v-109l-82 -140l-52 29l44 101z" />
    <glyph glyph-name="Dcroat" unicode="&#x110;" horiz-adv-x="683" 
d="M90 319h-47v83h47v309h267l115 -45l69 -70l44 -87l21 -87v-133l-21 -87l-44 -87l-69 -70l-115 -45h-267v319zM336 107l73 31l43 43l27 56l19 69v99l-18 69l-29 58l-43 42l-72 30h-138v-202h168v-83h-168v-212h138z" />
    <glyph glyph-name="dcroat" unicode="&#x111;" horiz-adv-x="594" 
d="M398 0v29l-61 -37h-94l-104 49l-67 91l-22 73v115l22 75l67 90l102 50h88l60 -22l8 -6v105h-120v73h120v69h107v-69h73v-73h-73v-612h-106zM381 398l-32 20l-33 12h-57l-50 -28l-42 -57l-10 -38v-90l10 -35l41 -58l55 -26h54l55 38l25 36v206z" />
    <glyph glyph-name="Emacron" unicode="&#x112;" horiz-adv-x="581" 
d="M198 604v-173h240v-108h-240v-216h348v-107h-457v711h457v-107h-348zM497 873v-95h-358v95h358z" />
    <glyph glyph-name="emacron" unicode="&#x113;" horiz-adv-x="574" 
d="M158 206l10 -24l42 -59l52 -25h51l60 16l61 37l56 -86l-77 -51l-88 -22h-84l-102 50l-67 90l-21 73v115l21 75l67 90l102 50h90l102 -50l66 -90l24 -69v-120h-365zM472 722v-95h-358v95h358zM159 312h256l-11 32l-41 57l-51 28h-54l-49 -26l-43 -58z" />
    <glyph glyph-name="Ebreve" unicode="&#x114;" horiz-adv-x="581" 
d="M198 604v-173h240v-108h-240v-216h348v-107h-457v711h457v-107h-348zM346 826l22 20l5 12v27h85v-42l-15 -41l-50 -45l-52 -18h-45l-52 18l-50 45l-15 41v42h85v-26l6 -16l20 -16l23 -8h12z" />
    <glyph glyph-name="ebreve" unicode="&#x115;" horiz-adv-x="574" 
d="M158 206l10 -24l42 -59l52 -25h51l60 16l61 37l56 -86l-77 -51l-88 -22h-84l-102 50l-67 90l-21 73v115l21 75l67 90l102 50h90l102 -50l66 -90l24 -69v-120h-365zM434 745v-43l-15 -41l-51 -45l-52 -18h-46l-52 18l-51 45l-14 41v43h81v-30l4 -9l21 -19l21 -8h25l22 8
l21 19l5 9v30h81zM159 312h256l-11 32l-41 57l-51 28h-54l-49 -26l-43 -58z" />
    <glyph glyph-name="Edotaccent" unicode="&#x116;" horiz-adv-x="581" 
d="M198 604v-173h240v-108h-240v-216h348v-107h-457v711h457v-107h-348zM252 929h134v-137h-134v137z" />
    <glyph glyph-name="edotaccent" unicode="&#x117;" horiz-adv-x="574" 
d="M158 206l10 -24l42 -59l52 -25h51l60 16l61 37l56 -86l-77 -51l-88 -22h-84l-102 50l-67 90l-21 73v115l21 75l67 90l102 50h90l102 -50l66 -90l24 -69v-120h-365zM159 312h256l-11 32l-41 57l-51 28h-54l-49 -26l-43 -58zM225 761h136v-138h-136v138z" />
    <glyph glyph-name="Eogonek" unicode="&#x118;" horiz-adv-x="581" 
d="M198 604v-173h240v-108h-240v-216h348v-107h-29l-50 -16l-31 -20l-17 -20l-4 -14v-14l7 -9l17 -6h51v-80h-72l-59 26l-29 45v45l11 35l24 28h-276v711h457v-107h-348z" />
    <glyph glyph-name="eogonek" unicode="&#x119;" horiz-adv-x="574" 
d="M158 206l10 -24l42 -59l52 -25h51l60 16l61 37l56 -86l-72 -48l1 -3l-20 -7l-23 -15l-23 -26l-4 -16v-23l4 -6l15 -5h53v-87h-76l-59 26l-30 46v46l20 45h-35l-102 50l-67 90l-21 73v115l21 75l67 90l102 50h90l102 -50l66 -90l24 -69v-120h-365zM159 312h256l-11 32
l-41 57l-51 28h-54l-49 -26l-43 -58z" />
    <glyph glyph-name="Ecaron" unicode="&#x11a;" horiz-adv-x="581" 
d="M198 604v-173h240v-108h-240v-216h348v-107h-457v711h457v-107h-348zM289 737l-153 124l58 70l124 -102l124 102l58 -70l-153 -124h-58z" />
    <glyph glyph-name="ecaron" unicode="&#x11b;" horiz-adv-x="574" 
d="M158 206l10 -24l42 -59l52 -25h51l60 16l61 37l56 -86l-77 -51l-88 -22h-84l-102 50l-67 90l-21 73v115l21 75l67 90l102 50h90l102 -50l66 -90l24 -69v-120h-365zM472 718l-151 -121h-56l-151 121l58 71l121 -99l121 99zM159 312h256l-11 32l-41 57l-51 28h-54l-49 -26
l-43 -58z" />
    <glyph glyph-name="Gcircumflex" unicode="&#x11c;" horiz-adv-x="677" 
d="M488 564l-32 24l-68 23h-72l-63 -29l-44 -44l-29 -56l-14 -65v-122l14 -65l30 -58l42 -42l64 -30h74l51 23l41 35l28 46l7 30v33h-167v107h275v-146l-11 -60l-44 -74l-71 -62l-89 -40h-115l-107 47l-69 69l-43 89l-19 85v147l19 87l42 87l72 70l105 46h111l106 -39
l47 -36l48 -58l-81 -70zM380 931l153 -123l-58 -70l-124 102l-124 -102l-58 70l153 123h58z" />
    <glyph glyph-name="gcircumflex" unicode="&#x11d;" horiz-adv-x="594" 
d="M382 398l-31 20l-33 12h-58l-49 -28l-42 -57l-10 -38v-66l9 -35l41 -56l54 -21h56l55 38l25 39v172zM239 -168l-68 18l-53 34l-36 36l75 77l33 -33l18 -14l46 -12h61l39 14l36 26l9 22v59l-60 -36h-92l-103 40l-70 91l-22 74v92l22 75l67 90l101 50h89l60 -22l8 -6v20
h106v-542l-25 -75l-80 -53l-72 -25h-89zM422 593l-122 100l-121 -100l-58 71l151 121h56l151 -121z" />
    <glyph glyph-name="Gbreve" unicode="&#x11e;" horiz-adv-x="677" 
d="M488 564l-32 24l-68 23h-72l-63 -29l-44 -44l-29 -56l-14 -65v-122l14 -65l30 -58l42 -42l64 -30h74l51 23l41 35l28 46l7 30v33h-167v107h275v-146l-11 -60l-44 -74l-71 -62l-89 -40h-115l-107 47l-69 69l-43 89l-19 85v147l19 87l42 87l72 70l105 46h111l106 -39
l47 -36l48 -58l-81 -70zM379 826l22 20l5 12v27h85v-42l-15 -41l-50 -45l-52 -18h-45l-52 18l-50 45l-15 41v42h85v-26l6 -16l20 -16l23 -8h12z" />
    <glyph glyph-name="gbreve" unicode="&#x11f;" horiz-adv-x="594" 
d="M382 398l-31 20l-33 12h-58l-49 -28l-42 -57l-10 -38v-66l9 -35l41 -56l54 -21h56l55 38l25 39v172zM239 -168l-68 18l-53 34l-36 36l75 77l33 -33l18 -14l46 -12h61l39 14l36 26l9 22v59l-60 -36h-92l-103 40l-70 91l-22 74v92l22 75l67 90l101 50h89l60 -22l8 -6v20
h106v-542l-25 -75l-80 -53l-72 -25h-89zM435 745v-43l-15 -41l-51 -45l-52 -18h-46l-52 18l-51 45l-14 41v43h81v-30l4 -9l21 -19l21 -8h25l22 8l21 19l5 9v30h81z" />
    <glyph glyph-name="Gdotaccent" unicode="&#x120;" horiz-adv-x="677" 
d="M488 564l-32 24l-68 23h-72l-63 -29l-44 -44l-29 -56l-14 -65v-122l14 -65l30 -58l42 -42l64 -30h74l51 23l41 35l28 46l7 30v33h-167v107h275v-146l-11 -60l-44 -74l-71 -62l-89 -40h-115l-107 47l-69 69l-43 89l-19 85v147l19 87l42 87l72 70l105 46h111l106 -39
l47 -36l48 -58l-81 -70zM285 929h134v-137h-134v137z" />
    <glyph glyph-name="gdotaccent" unicode="&#x121;" horiz-adv-x="594" 
d="M382 398l-31 20l-33 12h-58l-49 -28l-42 -57l-10 -38v-66l9 -35l41 -56l54 -21h56l55 38l25 39v172zM239 -168l-68 18l-53 34l-36 36l75 77l33 -33l18 -14l46 -12h61l39 14l36 26l9 22v59l-60 -36h-92l-103 40l-70 91l-22 74v92l22 75l67 90l101 50h89l60 -22l8 -6v20
h106v-542l-25 -75l-80 -53l-72 -25h-89zM235 761h136v-138h-136v138z" />
    <glyph glyph-name="Gcommaaccent" unicode="&#x122;" horiz-adv-x="677" 
d="M488 564l-32 24l-68 23h-72l-63 -29l-44 -44l-29 -56l-14 -65v-122l14 -65l30 -58l42 -42l64 -30h74l51 23l41 35l28 46l7 30v33h-167v107h275v-146l-11 -60l-44 -74l-71 -62l-89 -40h-115l-107 47l-69 69l-43 89l-19 85v147l19 87l42 87l72 70l105 46h111l106 -39
l47 -36l48 -58l-81 -70zM284 -116v91h125v-66l-75 -134l-52 24l34 72z" />
    <glyph glyph-name="gcommaaccent" unicode="&#x123;" horiz-adv-x="594" 
d="M382 398l-31 20l-33 12h-58l-49 -28l-42 -57l-10 -38v-66l9 -35l41 -56l54 -21h56l55 38l25 39v172zM239 -168l-68 18l-53 34l-36 36l75 77l33 -33l18 -14l46 -12h61l39 14l36 26l9 22v59l-60 -36h-92l-103 40l-70 91l-22 74v92l22 75l67 90l101 50h89l60 -22l8 -6v20
h106v-542l-25 -75l-80 -53l-72 -25h-89zM361 672v-91h-125v66l75 134l52 -24l-34 -72z" />
    <glyph glyph-name="Hcircumflex" unicode="&#x124;" horiz-adv-x="679" 
d="M480 431v280h109v-711h-109v323h-281v-323h-108v711h108v-280h281zM368 931l153 -123l-58 -70l-124 102l-124 -102l-58 70l153 123h58z" />
    <glyph glyph-name="hcircumflex" unicode="&#x125;" horiz-adv-x="581" 
d="M89 754h107v-258l69 39h91l87 -26l63 -84v-425h-107v386l-20 29l-40 14h-57l-62 -41l-24 -36v-352h-107v754zM164 931l153 -123l-58 -70l-124 102l-124 -102l-58 70l153 123h58z" />
    <glyph glyph-name="Hbar" unicode="&#x126;" horiz-adv-x="699" 
d="M599 522v-522h-109v323h-281v-323h-108v522h-69v78h69v111h108v-111h281v111h109v-111h68v-78h-68zM490 431v91h-281v-91h281z" />
    <glyph glyph-name="hbar" unicode="&#x127;" horiz-adv-x="581" 
d="M89 612h-74v73h74v69h107v-69h119v-73h-119v-116l69 39h91l87 -26l63 -84v-425h-107v386l-20 29l-40 14h-57l-62 -41l-24 -36v-352h-107v612z" />
    <glyph glyph-name="Itilde" unicode="&#x128;" horiz-adv-x="273" 
d="M191 0h-108v711h108v-711zM80 794h-13l-19 -5l-15 -17l-8 -25l-81 27l12 38l19 31l24 18l52 24h44l49 -20l34 -21l21 -3l20 8l16 14l7 24l81 -27l-12 -38l-19 -32l-25 -18l-52 -23h-39l-39 15l-43 26z" />
    <glyph glyph-name="itilde" unicode="&#x129;" horiz-adv-x="263" 
d="M78 527h107v-527h-107v527zM-72 635l19 44l41 38l56 22h51l44 -16l34 -22l22 -7h14l12 4l10 10l12 31l86 -23l-11 -42l-16 -30l-33 -26l-43 -18l-46 -2l-45 16l-50 31h-25l-22 -10l-14 -13l-7 -21z" />
    <glyph glyph-name="Imacron" unicode="&#x12a;" horiz-adv-x="273" 
d="M191 0h-108v711h108v-711zM315 873v-95h-358v95h358z" />
    <glyph glyph-name="imacron" unicode="&#x12b;" horiz-adv-x="263" 
d="M78 527h107v-527h-107v527zM310 722v-95h-358v95h358z" />
    <glyph glyph-name="Ibreve" unicode="&#x12c;" horiz-adv-x="273" 
d="M191 0h-108v711h108v-711zM164 826l22 20l5 12v27h85v-42l-15 -41l-50 -45l-52 -18h-45l-52 18l-50 45l-15 41v42h85v-26l6 -16l20 -16l23 -8h12z" />
    <glyph glyph-name="ibreve" unicode="&#x12d;" horiz-adv-x="263" 
d="M78 527h107v-527h-107v527zM273 745v-43l-15 -41l-51 -45l-52 -18h-46l-52 18l-51 45l-14 41v43h81v-30l4 -9l21 -19l21 -8h25l22 8l21 19l5 9v30h81z" />
    <glyph glyph-name="Iogonek" unicode="&#x12e;" horiz-adv-x="273" 
d="M191 0l-50 -16l-31 -20l-17 -20l-4 -14v-14l7 -9l17 -6h51v-80h-72l-59 26l-29 45v45l11 45l38 43l30 16v670h108v-711z" />
    <glyph glyph-name="iogonek" unicode="&#x12f;" horiz-adv-x="263" 
d="M183 -6l-28 -13l-23 -23l-4 -15v-16l4 -6l15 -5h53v-87h-76l-59 26l-30 46v45l20 41l23 19v521h107v-461l1 1l21 -67zM61 754h141v-145h-141v145z" />
    <glyph glyph-name="Idotaccent" unicode="&#x130;" horiz-adv-x="273" 
d="M191 0h-108v711h108v-711zM70 929h134v-137h-134v137z" />
    <glyph glyph-name="dotlessi" unicode="&#x131;" horiz-adv-x="305" 
d="M100 527h107v-527h-107v527z" />
    <glyph glyph-name="Jcircumflex" unicode="&#x134;" horiz-adv-x="503" 
d="M109 20l-75 73l-24 103l106 29l16 -75l39 -41l27 -9h34l25 10l41 41l13 54v506h108v-524l-24 -94l-72 -73l-70 -28h-74zM375 931l153 -123l-58 -70l-124 102l-124 -102l-58 70l153 123h58z" />
    <glyph glyph-name="jcircumflex" unicode="&#x135;" horiz-adv-x="273" 
d="M142 -132l-87 -30h-46l-65 16l27 103l49 -12h22l28 9l18 29v544h107v-576zM255 593l-122 100l-121 -100l-58 71l151 121h56l151 -121z" />
    <glyph glyph-name="Kcommaaccent" unicode="&#x136;" horiz-adv-x="665" 
d="M658 0h-132l-226 338l-107 -114v-224h-109v711h109v-332l310 332h152l-279 -296zM285 -116v91h125v-66l-75 -134l-52 24l34 72z" />
    <glyph glyph-name="kcommaaccent" unicode="&#x137;" horiz-adv-x="552" 
d="M378 527h152l-221 -216l223 -311h-131l-166 237l-47 -45v-192h-107v753h107v-416zM231 -116v91h125v-66l-75 -134l-52 24l34 72z" />
    <glyph glyph-name="kgreenlandic" unicode="&#x138;" horiz-adv-x="552" 
d="M387 527h152l-224 -221l208 -306h-127l-157 232l-51 -50v-182h-107v527h107v-199z" />
    <glyph glyph-name="Lacute" unicode="&#x139;" horiz-adv-x="522" 
d="M191 107h311v-107h-419v711h108v-604zM109 736l-44 79l204 113l44 -80z" />
    <glyph glyph-name="lacute" unicode="&#x13a;" horiz-adv-x="263" 
d="M78 0v754h107v-754h-107zM52 756l-44 79l204 113l44 -80z" />
    <glyph glyph-name="Lcommaaccent" unicode="&#x13b;" horiz-adv-x="522" 
d="M191 107h311v-107h-419v711h108v-604zM231 -116v91h125v-66l-75 -134l-52 24l34 72z" />
    <glyph glyph-name="lcommaaccent" unicode="&#x13c;" horiz-adv-x="263" 
d="M78 0v754h107v-754h-107zM66 -116v91h125v-66l-75 -134l-52 24l34 72z" />
    <glyph glyph-name="Lcaron" unicode="&#x13d;" horiz-adv-x="522" 
d="M280 650v104h125v-109l-82 -140l-52 29l44 101zM191 107h311v-107h-419v711h108v-604z" />
    <glyph glyph-name="lcaron" unicode="&#x13e;" horiz-adv-x="352" 
d="M231 650v104h125v-109l-82 -140l-52 29l44 101zM78 0v754h107v-754h-107z" />
    <glyph glyph-name="Ldot" unicode="&#x13f;" horiz-adv-x="522" 
d="M191 107h311v-107h-419v711h108v-604zM280 535h136v-138h-136v138z" />
    <glyph glyph-name="ldot" unicode="&#x140;" horiz-adv-x="373" 
d="M78 0v754h107v-754h-107zM242 535h136v-138h-136v138z" />
    <glyph glyph-name="Lslash" unicode="&#x141;" horiz-adv-x="522" 
d="M191 405l183 99l37 -72l-220 -120v-205h311v-107h-419v254l-48 -26l-38 72l86 46v365h108v-306z" />
    <glyph glyph-name="lslash" unicode="&#x142;" horiz-adv-x="273" 
d="M83 0v313l-84 -45l-39 71l123 66v349h107v-291l97 53l39 -71l-136 -74v-371h-107z" />
    <glyph glyph-name="Nacute" unicode="&#x143;" horiz-adv-x="738" 
d="M91 711h89l358 -521v521h109v-711h-107l-340 498v-498h-109v711zM310 736l-44 79l204 113l44 -80z" />
    <glyph glyph-name="nacute" unicode="&#x144;" horiz-adv-x="586" 
d="M196 495l69 40h90l93 -25l63 -85v-425h-107v386l-19 27l-50 16h-53l-62 -41l-24 -34v-354h-107v527h107v-32zM186 654l190 135l54 -75l-190 -135z" />
    <glyph glyph-name="Ncommaaccent" unicode="&#x145;" horiz-adv-x="738" 
d="M91 711h89l358 -521v521h109v-711h-107l-340 498v-498h-109v711zM292 -116v91h125v-66l-75 -134l-52 24l34 72z" />
    <glyph glyph-name="ncommaaccent" unicode="&#x146;" horiz-adv-x="586" 
d="M196 495l69 40h90l93 -25l63 -85v-425h-107v386l-19 27l-50 16h-53l-62 -41l-24 -34v-354h-107v527h107v-32zM223 -116v91h125v-66l-75 -134l-52 24l34 72z" />
    <glyph glyph-name="Ncaron" unicode="&#x147;" horiz-adv-x="738" 
d="M91 711h89l358 -521v521h109v-711h-107l-340 498v-498h-109v711zM340 737l-153 124l58 70l124 -102l124 102l58 -70l-153 -124h-58z" />
    <glyph glyph-name="ncaron" unicode="&#x148;" horiz-adv-x="586" 
d="M196 495l69 40h90l93 -25l63 -85v-425h-107v386l-19 27l-50 16h-53l-62 -41l-24 -34v-354h-107v527h107v-32zM469 718l-151 -121h-56l-151 121l58 71l121 -99l121 99z" />
    <glyph glyph-name="Eng" unicode="&#x14a;" horiz-adv-x="738" 
d="M88 711h89l357 -521v521h109v-759l-56 -85l-88 -30h-46l-86 21l29 107l70 -19h21l28 9l19 30v21l-337 493v-499h-109v711z" />
    <glyph glyph-name="eng" unicode="&#x14b;" horiz-adv-x="586" 
d="M196 496l69 39h90l93 -25l63 -85v-473l-54 -84l-82 -30h-46l-74 20l28 102l54 -15h25l25 10l17 28v403c-3.33301 5.33301 -6.5 9.83301 -9.5 13.5s-6.16699 8.16699 -9.5 13.5l-50 16h-53l-61 -41l-25 -36v-352h-107v527h107v-31z" />
    <glyph glyph-name="Omacron" unicode="&#x14c;" horiz-adv-x="704" 
d="M295 -8l-107 47l-68 69l-44 89l-19 85v147l19 87l43 87l72 70l104 46h113l105 -46l72 -70l42 -87l19 -87v-147l-19 -85l-43 -89l-68 -69l-108 -47h-113zM318 100h69l65 30l42 42l30 58l14 65v122l-14 65l-29 56l-44 44l-64 29h-71l-63 -29l-44 -44l-29 -56l-14 -66v-122
l13 -61l31 -60l42 -43zM531 873v-95h-358v95h358z" />
    <glyph glyph-name="omacron" unicode="&#x14d;" horiz-adv-x="558" 
d="M312 97l52 26l22 34l13 61v92l-13 58l-24 36l-49 25h-69l-47 -25l-25 -35l-12 -59v-92l12 -62l23 -33l51 -26h66zM226 -8l-101 49l-53 77l-19 86v118l19 86l53 77l101 50h106l102 -50l53 -77l18 -86v-118l-18 -86l-53 -77l-102 -49h-106zM465 722v-95h-358v95h358z" />
    <glyph glyph-name="Obreve" unicode="&#x14e;" horiz-adv-x="704" 
d="M295 -8l-107 47l-68 69l-44 89l-19 85v147l19 87l43 87l72 70l104 46h113l105 -46l72 -70l42 -87l19 -87v-147l-19 -85l-43 -89l-68 -69l-108 -47h-113zM318 100h69l65 30l42 42l30 58l14 65v122l-14 65l-29 56l-44 44l-64 29h-71l-63 -29l-44 -44l-29 -56l-14 -66v-122
l13 -61l31 -60l42 -43zM380 826l22 20l5 12v27h85v-42l-15 -41l-50 -45l-52 -18h-45l-52 18l-50 45l-15 41v42h85v-26l6 -16l20 -16l23 -8h12z" />
    <glyph glyph-name="obreve" unicode="&#x14f;" horiz-adv-x="558" 
d="M312 97l52 26l22 34l13 61v92l-13 58l-24 36l-49 25h-69l-47 -25l-25 -35l-12 -59v-92l12 -62l23 -33l51 -26h66zM226 -8l-101 49l-53 77l-19 86v118l19 86l53 77l101 50h106l102 -50l53 -77l18 -86v-118l-18 -86l-53 -77l-102 -49h-106zM428 745v-43l-15 -41l-51 -45
l-52 -18h-46l-52 18l-51 45l-14 41v43h81v-30l4 -9l21 -19l21 -8h25l22 8l21 19l5 9v30h81z" />
    <glyph glyph-name="Ohungarumlaut" unicode="&#x150;" horiz-adv-x="704" 
d="M295 -8l-107 47l-68 69l-44 89l-19 85v147l19 87l43 87l72 70l104 46h113l105 -46l72 -70l42 -87l19 -87v-147l-19 -85l-43 -89l-68 -69l-108 -47h-113zM318 100h69l65 30l42 42l30 58l14 65v122l-14 65l-29 56l-44 44l-64 29h-71l-63 -29l-44 -44l-29 -56l-14 -66v-122
l13 -61l31 -60l42 -43zM387 885l-134 -149l-66 58l134 150zM575 885l-134 -149l-66 58l134 150z" />
    <glyph glyph-name="ohungarumlaut" unicode="&#x151;" horiz-adv-x="566" 
d="M312 97l52 26l22 34l13 61v92l-13 58l-24 36l-49 25h-69l-47 -25l-25 -35l-12 -59v-92l12 -62l23 -33l51 -26h66zM226 -8l-101 49l-53 77l-19 86v118l19 86l53 77l101 50h106l102 -50l53 -77l18 -86v-118l-18 -86l-53 -77l-102 -49h-106zM318 729l-135 -150l-67 59
l136 151zM513 729l-135 -150l-66 59l135 151z" />
    <glyph glyph-name="OE" unicode="&#x152;" horiz-adv-x="882" 
d="M298 0l-107 47l-68 69l-44 88l-19 86v131l19 88l43 86l72 70l104 46h103l34 -15v15h404v-107h-295v-173h188v-108h-188v-216h295v-107h-404v15l-33 -15h-104zM381 107l54 26v446l-54 25h-62l-63 -29l-44 -44l-29 -57l-14 -65v-108l13 -60l31 -61l42 -42l66 -31h60z" />
    <glyph glyph-name="oe" unicode="&#x153;" horiz-adv-x="899" 
d="M369 122l17 24l-18 60v113l18 61l-18 24l-47 25h-77l-47 -25l-25 -35l-12 -59v-92l12 -62l23 -33l51 -26h76zM527 123l52 -25h59l60 16l61 37l56 -86l-77 -51l-88 -22h-92l-100 49l-9 11l-6 -10l-103 -50h-114l-101 49l-53 77l-19 86v118l19 86l53 77l101 50h114l103 -51
l6 -10l8 11l101 50h98l102 -50l66 -90l24 -69v-120h-373l10 -24zM476 312h264l-11 32l-41 57l-51 28h-62l-49 -26l-43 -58z" />
    <glyph glyph-name="Racute" unicode="&#x154;" horiz-adv-x="635" 
d="M393 711l93 -24l76 -76l30 -105l-27 -100l-51 -75l-48 -24l136 -307h-120l-124 284h-159v-284h-108v711h302zM199 391h190l51 25l24 35l15 52l-14 50l-36 35l-52 16h-178v-213zM263 736l-44 79l204 113l44 -80z" />
    <glyph glyph-name="racute" unicode="&#x155;" horiz-adv-x="404" 
d="M312 429h-34l-46 -22l-35 -39l-20 -43v-325h-107v527h107v-38l12 12l70 34h69l61 -17l-26 -103zM130 654l190 135l54 -75l-190 -135z" />
    <glyph glyph-name="Rcommaaccent" unicode="&#x156;" horiz-adv-x="635" 
d="M393 711l93 -24l76 -76l30 -105l-27 -100l-51 -75l-48 -24l136 -307h-120l-124 284h-159v-284h-108v711h302zM199 391h190l51 25l24 35l15 52l-14 50l-36 35l-52 16h-178v-213zM265 -116v91h125v-66l-75 -134l-52 24l34 72z" />
    <glyph glyph-name="rcommaaccent" unicode="&#x157;" horiz-adv-x="404" 
d="M312 429h-34l-46 -22l-35 -39l-20 -43v-325h-107v527h107v-38l12 12l70 34h69l61 -17l-26 -103zM62 -116v91h125v-66l-75 -134l-52 24l34 72z" />
    <glyph glyph-name="Rcaron" unicode="&#x158;" horiz-adv-x="635" 
d="M393 711l93 -24l76 -76l30 -105l-27 -100l-51 -75l-48 -24l136 -307h-120l-124 284h-159v-284h-108v711h302zM199 391h190l51 25l24 35l15 52l-14 50l-36 35l-52 16h-178v-213zM293 737l-153 124l58 70l124 -102l124 102l58 -70l-153 -124h-58z" />
    <glyph glyph-name="rcaron" unicode="&#x159;" horiz-adv-x="404" 
d="M312 429h-34l-46 -22l-35 -39l-20 -43v-325h-107v527h107v-38l12 12l70 34h69l61 -17l-26 -103zM413 718l-151 -121h-56l-151 121l58 71l121 -99l121 99z" />
    <glyph glyph-name="Sacute" unicode="&#x15a;" horiz-adv-x="602" 
d="M76 68l-31 39l78 75l27 -34l38 -25l79 -23h79l66 26l18 22l12 24v50l-19 38l-39 21c-32 8.66699 -64.167 17.667 -96.5 27s-64.833 18.333 -97.5 27l-80 56l-34 54l-14 86l28 88l66 69l94 31h106l113 -29l77 -48l-58 -91l-67 39l-81 21h-74l-49 -16l-32 -33l-11 -40
l8 -38l8 -15l45 -32l202 -56l81 -56l32 -79v-100l-26 -55l-50 -58l-111 -41h-116l-111 34zM242 736l-44 79l204 113l44 -80z" />
    <glyph glyph-name="sacute" unicode="&#x15b;" horiz-adv-x="498" 
d="M187 343l21 -11l146 -29l59 -39l41 -66v-90l-39 -59l-51 -37l-70 -20h-88l-83 21l-48 39l-32 36l75 72l26 -30l22 -17l58 -16h58l33 10l20 14l13 18v29l-13 21l-22 15l-135 28l-67 36l-44 60v94l34 59l49 37l60 17h88l79 -21l71 -48l-59 -88l-54 37l-48 15h-59l-36 -10
l-10 -9l-9 -16v-34zM147 654l190 135l54 -75l-190 -135z" />
    <glyph glyph-name="Scircumflex" unicode="&#x15c;" horiz-adv-x="602" 
d="M76 68l-31 39l78 75l27 -34l38 -25l79 -23h79l66 26l18 22l12 24v50l-19 38l-39 21c-32 8.66699 -64.167 17.667 -96.5 27s-64.833 18.333 -97.5 27l-80 56l-34 54l-14 86l28 88l66 69l94 31h106l113 -29l77 -48l-58 -91l-67 39l-81 21h-74l-49 -16l-32 -33l-11 -40
l8 -38l8 -15l45 -32l202 -56l81 -56l32 -79v-100l-26 -55l-50 -58l-111 -41h-116l-111 34zM340 931l153 -123l-58 -70l-124 102l-124 -102l-58 70l153 123h58z" />
    <glyph glyph-name="scircumflex" unicode="&#x15d;" horiz-adv-x="498" 
d="M187 343l21 -11l146 -29l59 -39l41 -66v-90l-39 -59l-51 -37l-70 -20h-88l-83 21l-48 39l-32 36l75 72l26 -30l22 -17l58 -16h58l33 10l20 14l13 18v29l-13 21l-22 15l-135 28l-67 36l-44 60v94l34 59l49 37l60 17h88l79 -21l71 -48l-59 -88l-54 37l-48 15h-59l-36 -10
l-10 -9l-9 -16v-34zM380 593l-122 100l-121 -100l-58 71l151 121h56l151 -121z" />
    <glyph glyph-name="Scedilla" unicode="&#x15e;" horiz-adv-x="602" 
d="M251 -8h-4l-111 34l-60 42l-31 39l78 75l27 -34l38 -25l79 -23h79l66 26l18 22l12 24v50l-19 38l-39 21c-32 8.66699 -64.167 17.667 -96.5 27s-64.833 18.333 -97.5 27l-80 56l-34 54l-14 86l28 88l66 69l94 31h106l113 -29l77 -48l-58 -91l-67 39l-81 21h-74l-49 -16
l-32 -33l-11 -40l8 -38l8 -15l45 -32l202 -56l81 -56l32 -79v-100l-26 -55l-50 -58l-111 -41h-41l-4 -17l50 -9l26 -60l-30 -58l-66 -27h-45l-45 21l30 64l29 -10h25l8 6l8 22l-75 17z" />
    <glyph glyph-name="scedilla" unicode="&#x15f;" horiz-adv-x="498" 
d="M202 -7l-79 20l-48 39l-32 36l75 72l26 -30l22 -17l58 -16h58l33 10l20 14l13 18v29l-13 21l-22 15l-135 28l-67 36l-44 60v94l34 59l49 37l60 17h88l79 -21l71 -48l-59 -88l-54 37l-48 15h-59l-36 -10l-10 -9l-9 -16v-34l14 -18l21 -11l146 -29l59 -39l41 -66v-90
l-39 -59l-51 -37l-70 -20h-22l-4 -17l50 -9l26 -60l-30 -58l-66 -27h-45l-45 21l30 64l29 -10h25l8 6l8 22l-75 17z" />
    <glyph glyph-name="Scaron" unicode="&#x160;" horiz-adv-x="602" 
d="M76 68l-31 39l78 75l27 -34l38 -25l79 -23h79l66 26l18 22l12 24v50l-19 38l-39 21c-32 8.66699 -64.167 17.667 -96.5 27s-64.833 18.333 -97.5 27l-80 56l-34 54l-14 86l28 88l66 69l94 31h106l113 -29l77 -48l-58 -91l-67 39l-81 21h-74l-49 -16l-32 -33l-11 -40
l8 -38l8 -15l45 -32l202 -56l81 -56l32 -79v-100l-26 -55l-50 -58l-111 -41h-116l-111 34zM282 737l-153 124l58 70l124 -102l124 102l58 -70l-153 -124h-58z" />
    <glyph glyph-name="scaron" unicode="&#x161;" horiz-adv-x="498" 
d="M187 343l21 -11l146 -29l59 -39l41 -66v-90l-39 -59l-51 -37l-70 -20h-88l-83 21l-48 39l-32 36l75 72l26 -30l22 -17l58 -16h58l33 10l20 14l13 18v29l-13 21l-22 15l-135 28l-67 36l-44 60v94l34 59l49 37l60 17h88l79 -21l71 -48l-59 -88l-54 37l-48 15h-59l-36 -10
l-10 -9l-9 -16v-34zM440 718l-151 -121h-56l-151 121l58 71l121 -99l121 99z" />
    <glyph glyph-name="Tcommaaccent" unicode="&#x162;" horiz-adv-x="515" 
d="M310 0h-109v604h-181v107h475v-107h-185v-604zM190 -116v91h125v-66l-75 -134l-52 24l34 72z" />
    <glyph glyph-name="tcommaaccent" unicode="&#x163;" horiz-adv-x="414" 
d="M217 514h131v-106h-131v-274l18 -24l27 -12h21l81 21l27 -104l-102 -23h-48l-74 28l-57 81v307h-90v106h90v184h107v-184zM174 -116v91h125v-66l-75 -134l-52 24l34 72z" />
    <glyph glyph-name="Tcaron" unicode="&#x164;" horiz-adv-x="515" 
d="M310 0h-109v604h-181v107h475v-107h-185v-604zM228 737l-153 124l58 70l124 -102l124 102l58 -70l-153 -124h-58z" />
    <glyph glyph-name="tcaron" unicode="&#x165;" horiz-adv-x="445" 
d="M350 704v104h125v-109l-82 -140l-52 29l44 101zM217 514h131v-106h-131v-274l18 -24l27 -12h21l81 21l27 -104l-102 -23h-48l-74 28l-57 81v307h-90v106h90v184h107v-184z" />
    <glyph glyph-name="Tbar" unicode="&#x166;" horiz-adv-x="515" 
d="M310 527h107v-78h-107v-449h-109v449h-107v78h107v77h-181v107h475v-107h-185v-77z" />
    <glyph glyph-name="tbar" unicode="&#x167;" horiz-adv-x="414" 
d="M217 514h131v-106h-131v-79h120v-70h-120v-125l18 -24l27 -12h21l81 21l27 -104l-102 -23h-48l-74 28l-57 81v158h-47v70h47v79h-90v106h90v184h107v-184z" />
    <glyph glyph-name="Utilde" unicode="&#x168;" horiz-adv-x="709" 
d="M311 -8l-130 48l-71 93l-23 75v503h109v-491l11 -38l41 -53l78 -29h58l77 29l43 53l11 38v491h108v-503l-23 -75l-71 -93l-129 -48h-89zM298 794h-13l-19 -5l-15 -17l-8 -25l-81 27l12 38l19 31l24 18l52 24h44l49 -20l34 -21l21 -3l20 8l16 14l7 24l81 -27l-12 -38
l-19 -32l-25 -18l-52 -23h-39l-39 15l-43 26z" />
    <glyph glyph-name="utilde" unicode="&#x169;" horiz-adv-x="581" 
d="M298 97l62 42l25 33v355h107v-527h-106v32l-70 -40h-80l-95 25l-67 87v423h107v-386l23 -31l48 -13h46zM79 635l19 44l41 38l56 22h51l44 -16l34 -22l22 -7h14l12 4l10 10l12 31l86 -23l-11 -42l-16 -30l-33 -26l-43 -18l-46 -2l-45 16l-50 31h-25l-22 -10l-14 -13
l-7 -21z" />
    <glyph glyph-name="Umacron" unicode="&#x16a;" horiz-adv-x="709" 
d="M311 -8l-130 48l-71 93l-23 75v503h109v-491l11 -38l41 -53l78 -29h58l77 29l43 53l11 38v491h108v-503l-23 -75l-71 -93l-129 -48h-89zM533 873v-95h-358v95h358z" />
    <glyph glyph-name="umacron" unicode="&#x16b;" horiz-adv-x="581" 
d="M298 97l62 42l25 33v355h107v-527h-106v32l-70 -40h-80l-95 25l-67 87v423h107v-386l23 -31l48 -13h46zM461 722v-95h-358v95h358z" />
    <glyph glyph-name="Ubreve" unicode="&#x16c;" horiz-adv-x="709" 
d="M311 -8l-130 48l-71 93l-23 75v503h109v-491l11 -38l41 -53l78 -29h58l77 29l43 53l11 38v491h108v-503l-23 -75l-71 -93l-129 -48h-89zM382 826l22 20l5 12v27h85v-42l-15 -41l-50 -45l-52 -18h-45l-52 18l-50 45l-15 41v42h85v-26l6 -16l20 -16l23 -8h12z" />
    <glyph glyph-name="ubreve" unicode="&#x16d;" horiz-adv-x="581" 
d="M298 97l62 42l25 33v355h107v-527h-106v32l-70 -40h-80l-95 25l-67 87v423h107v-386l23 -31l48 -13h46zM424 745v-43l-15 -41l-51 -45l-52 -18h-46l-52 18l-51 45l-14 41v43h81v-30l4 -9l21 -19l21 -8h25l22 8l21 19l5 9v30h81z" />
    <glyph glyph-name="Uring" unicode="&#x16e;" horiz-adv-x="709" 
d="M311 -8l-130 48l-71 93l-23 75v503h109v-491l11 -38l41 -53l78 -29h58l77 29l43 53l11 38v491h108v-503l-23 -75l-71 -93l-129 -48h-89zM467 829l-14 -39l-36 -41l-44 -16h-38l-44 16l-37 41l-13 39v37l13 39l37 41l44 16h38l44 -16l36 -41l14 -39v-37zM399 855l-7 19
l-13 13l-18 7h-14l-20 -7l-11 -12l-7 -20v-15l7 -20l12 -12l19 -7h14l19 7l12 12l7 20v15z" />
    <glyph glyph-name="uring" unicode="&#x16f;" horiz-adv-x="581" 
d="M298 97l62 42l25 33v355h107v-527h-106v32l-70 -40h-80l-95 25l-67 87v423h107v-386l23 -31l48 -13h46zM408 696l-14 -41l-38 -44l-53 -20h-42l-52 20l-38 44l-15 41v46l15 41l38 44l52 19h42l53 -19l38 -44l14 -41v-46zM308 674l19 21l3 11v26l-3 11l-19 21l-15 5h-21
l-15 -5l-19 -21l-4 -11v-27l4 -10l19 -21l15 -6h21z" />
    <glyph glyph-name="Uhungarumlaut" unicode="&#x170;" horiz-adv-x="709" 
d="M311 -8l-130 48l-71 93l-23 75v503h109v-491l11 -38l41 -53l78 -29h58l77 29l43 53l11 38v491h108v-503l-23 -75l-71 -93l-129 -48h-89zM577 885l-134 -149l-66 58l134 150zM389 885l-134 -149l-66 58l134 150z" />
    <glyph glyph-name="uhungarumlaut" unicode="&#x171;" horiz-adv-x="581" 
d="M298 97l62 42l25 33v355h107v-527h-106v32l-70 -40h-80l-95 25l-67 87v423h107v-386l23 -31l48 -13h46zM314 729l-135 -150l-67 59l136 151zM509 729l-135 -150l-66 59l135 151z" />
    <glyph glyph-name="Uogonek" unicode="&#x172;" horiz-adv-x="709" 
d="M399 -8l-31 -26l-16 -21l-4 -15v-14l7 -9l17 -6h51v-80h-72l-59 26l-29 45v45l11 35l22 26l-115 42l-71 93l-23 75v503h109v-491l11 -38l41 -53l78 -29h58l77 29l43 53l11 38v491h108v-503l-23 -75l-71 -93l-129 -48h-1z" />
    <glyph glyph-name="uogonek" unicode="&#x173;" horiz-adv-x="581" 
d="M298 97l62 42l25 33v355h107v-527h-1l-24 -6l-28 -13l-23 -23l-4 -15v-16l4 -6l15 -5h53v-87h-76l-59 26l-30 46v45l21 39l45 37h1v10l-70 -40h-80l-95 25l-67 87v423h107v-386l23 -31l48 -13h46z" />
    <glyph glyph-name="Wcircumflex" unicode="&#x174;" horiz-adv-x="870" 
d="M620 212l125 499h112l-182 -711h-98l-142 460l-142 -460h-98l-182 711h112l125 -499l145 470h80zM464 931l153 -123l-58 -70l-124 102l-124 -102l-58 70l153 123h58z" />
    <glyph glyph-name="wcircumflex" unicode="&#x175;" horiz-adv-x="768" 
d="M341 508h85l112 -317l92 336h112l-153 -527h-95l-111 319l-110 -319h-95l-153 527h111l93 -337zM505 593l-122 100l-121 -100l-58 71l151 121h56l151 -121z" />
    <glyph glyph-name="Ycircumflex" unicode="&#x176;" horiz-adv-x="566" 
d="M438 711h129l-230 -368v-343h-108v343l-230 368h129l155 -259zM317 931l153 -123l-58 -70l-124 102l-124 -102l-58 70l153 123h58z" />
    <glyph glyph-name="ycircumflex" unicode="&#x177;" horiz-adv-x="552" 
d="M277 209l140 318h119l-311 -690h-116l110 243l-203 447h121zM399 593l-122 100l-121 -100l-58 71l151 121h56l151 -121z" />
    <glyph glyph-name="Ydieresis" unicode="&#x178;" horiz-adv-x="566" 
d="M438 711h129l-230 -368v-343h-108v343l-230 368h129l155 -259zM119 915h121v-124h-121v124zM335 915h122v-124h-122v124z" />
    <glyph glyph-name="Zacute" unicode="&#x179;" horiz-adv-x="558" 
d="M523 711v-80l-352 -524h361v-107h-507v80l353 524h-334v107h479zM220 736l-44 79l204 113l44 -80z" />
    <glyph glyph-name="zacute" unicode="&#x17a;" horiz-adv-x="503" 
d="M46 0v81l258 341h-243v105h390v-81l-255 -340h260v-106h-410zM164 654l190 135l54 -75l-190 -135z" />
    <glyph glyph-name="Zdotaccent" unicode="&#x17b;" horiz-adv-x="558" 
d="M523 711v-80l-352 -524h361v-107h-507v80l353 524h-334v107h479zM218 929h134v-137h-134v137z" />
    <glyph glyph-name="zdotaccent" unicode="&#x17c;" horiz-adv-x="503" 
d="M46 0v81l258 341h-243v105h390v-81l-255 -340h260v-106h-410zM205 761h136v-138h-136v138z" />
    <glyph glyph-name="Zcaron" unicode="&#x17d;" horiz-adv-x="558" 
d="M523 711v-80l-352 -524h361v-107h-507v80l353 524h-334v107h479zM255 737l-153 124l58 70l124 -102l124 102l58 -70l-153 -124h-58z" />
    <glyph glyph-name="zcaron" unicode="&#x17e;" horiz-adv-x="503" 
d="M46 0v81l258 341h-243v105h390v-81l-255 -340h260v-106h-410zM452 718l-151 -121h-56l-151 121l58 71l121 -99l121 99z" />
    <glyph glyph-name="florin" unicode="&#x192;" 
d="M490 656h-25l-29 -19l-19 -32l-25 -142h122v-97h-138l-64 -366l-53 -78l-77 -41h-70l-78 28l36 98l60 -21h28l26 16l24 34l59 330h-112v97h128l32 180l43 73l77 46h69l88 -19l-25 -104z" />
    <glyph glyph-name="AEacute" unicode="&#x1fc;" horiz-adv-x="835" 
d="M381 313v242l-116 -242h116zM381 205h-166c-15.333 -33.333 -31.5 -67.5 -48.5 -102.5s-33.167 -69.167 -48.5 -102.5h-119l346 711h440v-107h-295v-173h188v-108h-188v-216h295v-107h-404v205zM416 736l-44 79l204 113l44 -80z" />
    <glyph glyph-name="aeacute" unicode="&#x1fd;" horiz-adv-x="886" 
d="M394 39l-93 -47h-74l-68 21l-49 29l-58 84v61l15 69l75 76l98 25h76l44 -14l14 51l3 3l-33 21l-44 11h-74l-33 -12l-27 -18l-28 -27l-74 77l40 37l45 29l67 20h103l69 -17l52 -35l3 3l100 49h100l102 -50l66 -90l24 -69v-120h-375l10 -24l42 -59l52 -25h61l60 16l61 37
l56 -86l-77 -51l-88 -22h-94l-101 49l-21 28zM461 312h266l-11 32l-41 57l-51 28h-64l-49 -26l-43 -58zM353 205v30l-6 3l-46 13h-49l-54 -15l-32 -33l-7 -26v-20l25 -36l18 -10l39 -13h28l75 25l26 26zM382 654l190 135l54 -75l-190 -135z" />
    <glyph glyph-name="Oslashacute" unicode="&#x1fe;" horiz-adv-x="704" 
d="M295 -8l-105 46l-64 -100l-68 44l73 114l-11 12l-44 89l-19 85v147l19 87l43 87l72 70l104 46h113l95 -42l61 96l68 -44l-68 -106l21 -20l42 -87l19 -87v-147l-19 -85l-43 -89l-68 -69l-108 -47h-113zM318 100h69l65 30l42 42l30 58l14 65v122l-14 65l-23 43l-251 -393
l2 -2zM179 233l18 -35l247 387l-57 26h-71l-63 -29l-44 -44l-29 -56l-14 -66v-122zM293 736l-44 79l204 113l44 -80z" />
    <glyph glyph-name="oslashacute" unicode="&#x1ff;" horiz-adv-x="558" 
d="M226 -8l-50 24l-49 -81l-63 39l50 82l-42 62l-19 86v118l19 86l53 77l101 50h106l60 -30l51 83l62 -38l-55 -89l37 -53l18 -86v-118l-18 -86l-53 -77l-102 -49h-106zM172 156l2 -3l163 263l-24 13h-69l-47 -25l-25 -35l-12 -59v-92zM182 654l190 135l54 -75l-190 -135z
M312 97l52 26l22 34l13 61v92l-11 49l-157 -255l15 -7h66z" />
    <glyph glyph-name="Scommaaccent" unicode="&#x218;" horiz-adv-x="602" 
d="M76 68l-31 39l78 75l27 -34l38 -25l79 -23h79l66 26l18 22l12 24v50l-19 38l-39 21c-32 8.66699 -64.167 17.667 -96.5 27s-64.833 18.333 -97.5 27l-80 56l-34 54l-14 86l28 88l66 69l94 31h106l113 -29l77 -48l-58 -91l-67 39l-81 21h-74l-49 -16l-32 -33l-11 -40
l8 -38l8 -15l45 -32l202 -56l81 -56l32 -79v-100l-26 -55l-50 -58l-111 -41h-116l-111 34zM244 -116v91h125v-66l-75 -134l-52 24l34 72z" />
    <glyph glyph-name="scommaaccent" unicode="&#x219;" horiz-adv-x="498" 
d="M187 343l21 -11l146 -29l59 -39l41 -66v-90l-39 -59l-51 -37l-70 -20h-88l-83 21l-48 39l-32 36l75 72l26 -30l22 -17l58 -16h58l33 10l20 14l13 18v29l-13 21l-22 15l-135 28l-67 36l-44 60v94l34 59l49 37l60 17h88l79 -21l71 -48l-59 -88l-54 37l-48 15h-59l-36 -10
l-10 -9l-9 -16v-34zM194 -116v91h125v-66l-75 -134l-52 24l34 72z" />
    <glyph glyph-name="uni021A" unicode="&#x21a;" horiz-adv-x="515" 
d="M310 0h-109v604h-181v107h475v-107h-185v-604zM190 -116v91h125v-66l-75 -134l-52 24l34 72z" />
    <glyph glyph-name="uni021B" unicode="&#x21b;" horiz-adv-x="414" 
d="M217 514h131v-106h-131v-274l18 -24l27 -12h21l81 21l27 -104l-102 -23h-48l-74 28l-57 81v307h-90v106h90v184h107v-184zM174 -116v91h125v-66l-75 -134l-52 24l34 72z" />
    <glyph glyph-name="hsuperior" unicode="&#x2b0;" horiz-adv-x="337" 
d="M54 784h72v-119l23 13h54l45 -13l37 -49v-230h-73v204l-6 8l-20 7h-24l-25 -17l-11 -14v-188h-72v398z" />
    <glyph glyph-name="jsuperior" unicode="&#x2b2;" horiz-adv-x="210" 
d="M63 784h91v-94h-91v94zM116 327l-51 -19h-27l-42 11l19 72l32 -10h9l11 4l5 8v261h73v-279z" />
    <glyph glyph-name="wsuperior" unicode="&#x2b7;" horiz-adv-x="445" 
d="M189 665h56l49 -136l41 145h79l-83 -288h-64l-50 142l-49 -142h-64l-83 288h78l40 -148z" />
    <glyph glyph-name="ysuperior" unicode="&#x2b8;" horiz-adv-x="325" 
d="M159 525l67 149h80l-167 -366h-77l58 127l-106 239h79z" />
    <glyph glyph-name="apostrophemod" unicode="&#x2bc;" horiz-adv-x="279" 
d="M92 607v104h125v-109l-82 -140l-52 29l44 101z" />
    <glyph glyph-name="circumflex" unicode="&#x2c6;" horiz-adv-x="420" 
d="M329 593l-122 100l-121 -100l-58 71l151 121h56l151 -121z" />
    <glyph glyph-name="caron" unicode="&#x2c7;" horiz-adv-x="420" 
d="M389 718l-151 -121h-56l-151 121l58 71l121 -99l121 99z" />
    <glyph glyph-name="breve" unicode="&#x2d8;" horiz-adv-x="349" 
d="M316 745v-43l-15 -41l-51 -45l-52 -18h-46l-52 18l-51 45l-14 41v43h81v-30l4 -9l21 -19l21 -8h25l22 8l21 19l5 9v30h81z" />
    <glyph glyph-name="dotaccent" unicode="&#x2d9;" horiz-adv-x="200" 
d="M32 761h136v-138h-136v138z" />
    <glyph glyph-name="ring" unicode="&#x2da;" horiz-adv-x="319" 
d="M285 696l-14 -41l-38 -44l-53 -20h-42l-52 20l-38 44l-15 41v46l15 41l38 44l52 19h42l53 -19l38 -44l14 -41v-46zM185 674l19 21l3 11v26l-3 11l-19 21l-15 5h-21l-15 -5l-19 -21l-4 -11v-27l4 -10l19 -21l15 -6h21z" />
    <glyph glyph-name="ogonek" unicode="&#x2db;" horiz-adv-x="249" 
d="M218 -2l-50 -16l-31 -20l-17 -20l-4 -14v-14l7 -9l17 -6h51v-80h-72l-59 26l-29 45v45l11 45l38 43l51 28l56 18z" />
    <glyph glyph-name="tilde" unicode="&#x2dc;" horiz-adv-x="466" 
d="M30 635l19 44l41 38l56 22h51l44 -16l34 -22l22 -7h14l12 4l10 10l12 31l86 -23l-11 -42l-16 -30l-33 -26l-43 -18l-46 -2l-45 16l-50 31h-25l-22 -10l-14 -13l-7 -21z" />
    <glyph glyph-name="hungarumlaut" unicode="&#x2dd;" horiz-adv-x="454" 
d="M229 729l-135 -150l-67 59l136 151zM424 729l-135 -150l-66 59l135 151z" />
    <glyph glyph-name="xsuperior" unicode="&#x2e3;" horiz-adv-x="325" 
d="M98 386h-93l108 145l-107 143h92l61 -84l61 84h92l-107 -143l108 -145h-92l-62 85z" />
    <glyph glyph-name="Delta" unicode="&#x394;" horiz-adv-x="682" 
d="M19 0l273 711h98l273 -711h-644zM507 107l-166 441l-166 -441h332z" />
    <glyph glyph-name="mu" unicode="&#x3bc;" horiz-adv-x="585" 
d="M196 -162h-107v689h107v-386l22 -31l49 -13h46l62 42l24 33v355h107v-527h-106v32l-5 -4l-65 -36h-79l-55 16v-170z" />
    <glyph glyph-name="pi" unicode="&#x3c0;" horiz-adv-x="697" 
d="M640 6l-58 -14h-58l-74 28l-57 81v307h-130v-408h-107v408h-94v106h542v-106h-104v-274l18 -24l26 -12h33l43 11z" />
    <glyph glyph-name="THB" unicode="&#xe3f;" 
d="M85 711h174v115h109v-115h16l96 -26l69 -76l22 -98l-20 -79l-36 -47l-20 -10l20 -11l46 -61l23 -98l-24 -98l-55 -68l-84 -39h-53v-111h-109v111h-174v711zM434 126l24 27l13 52l-13 59l-20 32l-44 27h-201v-216h201zM193 604v-173h204l42 28l9 12l12 43l-11 43l-29 33
l-44 14h-183z" />
    <glyph glyph-name="Wgrave" unicode="&#x1e80;" horiz-adv-x="870" 
d="M620 212l125 499h112l-182 -711h-98l-142 460l-142 -460h-98l-182 711h112l125 -499l145 470h80zM286 849l44 80l204 -113l-44 -79z" />
    <glyph glyph-name="wgrave" unicode="&#x1e81;" horiz-adv-x="768" 
d="M341 508h85l112 -317l92 336h112l-153 -527h-95l-111 319l-110 -319h-95l-153 527h111l93 -337zM442 579l-190 135l54 75l190 -135z" />
    <glyph glyph-name="Wacute" unicode="&#x1e82;" horiz-adv-x="870" 
d="M620 212l125 499h112l-182 -711h-98l-142 460l-142 -460h-98l-182 711h112l125 -499l145 470h80zM376 736l-44 79l204 113l44 -80z" />
    <glyph glyph-name="wacute" unicode="&#x1e83;" horiz-adv-x="768" 
d="M341 508h85l112 -317l92 336h112l-153 -527h-95l-111 319l-110 -319h-95l-153 527h111l93 -337zM282 654l190 135l54 -75l-190 -135z" />
    <glyph glyph-name="Wdieresis" unicode="&#x1e84;" horiz-adv-x="870" 
d="M620 212l125 499h112l-182 -711h-98l-142 460l-142 -460h-98l-182 711h112l125 -499l145 470h80zM266 915h121v-124h-121v124zM482 915h122v-124h-122v124z" />
    <glyph glyph-name="wdieresis" unicode="&#x1e85;" horiz-adv-x="768" 
d="M341 508h85l112 -317l92 336h112l-153 -527h-95l-111 319l-110 -319h-95l-153 527h111l93 -337zM212 754h126v-131h-126v131zM431 754h126v-131h-126v131z" />
    <glyph glyph-name="Ygrave" unicode="&#x1ef2;" horiz-adv-x="566" 
d="M438 711h129l-230 -368v-343h-108v343l-230 368h129l155 -259zM139 849l44 80l204 -113l-44 -79z" />
    <glyph glyph-name="ygrave" unicode="&#x1ef3;" horiz-adv-x="552" 
d="M277 209l140 318h119l-311 -690h-116l110 243l-203 447h121zM324 579l-190 135l54 75l190 -135z" />
    <glyph glyph-name="endash" unicode="&#x2013;" 
d="M570 353v-89h-500v89h500z" />
    <glyph glyph-name="emdash" unicode="&#x2014;" horiz-adv-x="1280" 
d="M70 264v89h1140v-89h-1140z" />
    <glyph glyph-name="quoteleft" unicode="&#x2018;" horiz-adv-x="279" 
d="M187 583v-104h-125v109l82 140l52 -29l-44 -101z" />
    <glyph glyph-name="quoteright" unicode="&#x2019;" horiz-adv-x="279" 
d="M92 607v104h125v-109l-82 -140l-52 29l44 101z" />
    <glyph glyph-name="quotesinglbase" unicode="&#x201a;" horiz-adv-x="279" 
d="M82 19v120h135v-125l-90 -148l-52 29l56 105z" />
    <glyph glyph-name="quotedblleft" unicode="&#x201c;" horiz-adv-x="468" 
d="M381 574v-120h-135v125l90 148l52 -29l-56 -105zM192 574v-120h-135v125l90 148l52 -29l-56 -105z" />
    <glyph glyph-name="quotedblright" unicode="&#x201d;" horiz-adv-x="468" 
d="M87 591v120h135v-125l-90 -148l-52 29l56 105zM276 591v120h135v-125l-90 -148l-52 29l56 105z" />
    <glyph glyph-name="quotedblbase" unicode="&#x201e;" horiz-adv-x="468" 
d="M82 19v120h135v-125l-90 -148l-52 29l56 105zM271 19v120h135v-125l-90 -148l-52 29l56 105z" />
    <glyph glyph-name="dagger" unicode="&#x2020;" horiz-adv-x="537" 
d="M214 -163v583h-151v107h151v150h108v-150h151v-107h-151v-583h-108z" />
    <glyph glyph-name="daggerdbl" unicode="&#x2021;" horiz-adv-x="537" 
d="M214 122v298h-151v107h151v150h108v-150h151v-107h-151v-298h151v-108h-151v-177h-108v177h-151v108h151z" />
    <glyph glyph-name="bullet" unicode="&#x2022;" horiz-adv-x="358" 
d="M275 326l-5 -21l-14 -23l-19 -19l-23 -14l-21 -5h-29l-20 5l-24 14l-19 19l-14 23l-5 21v29l5 20l14 24l19 19l24 14l20 5h29l21 -5l23 -14l19 -19l14 -24l5 -20v-29z" />
    <glyph glyph-name="ellipsis" unicode="&#x2026;" horiz-adv-x="917" 
d="M80 139h136v-139h-136v139zM391 139h135v-139h-135v139zM701 139h135v-139h-135v139z" />
    <glyph glyph-name="perthousand" unicode="&#x2030;" horiz-adv-x="1212" 
d="M156 29l501 700l65 -47l-501 -700zM199 300l-52 23l-38 39l-20 48l-9 42v75l9 41l20 47l38 39l52 23h57l51 -23l37 -39l20 -47l9 -41v-75l-9 -42l-20 -48l-37 -39l-51 -23h-57zM259 389l17 16l8 24l8 30v60l-7 29l-8 22l-20 19l-19 10h-21l-20 -10l-21 -20l-8 -21l-7 -29
v-61l8 -29l8 -24l18 -15l23 -11h20zM628 32l-52 23l-38 39l-20 48l-9 42v75l9 41l20 47l38 39l52 23h57l51 -23l37 -39l20 -47l9 -41v-75l-9 -42l-20 -48l-37 -39l-51 -23h-57zM688 121l17 16l8 24l8 30v60l-7 29l-8 22l-20 19l-19 10h-21l-20 -10l-21 -20l-8 -21l-7 -29
v-61l8 -29l8 -24l18 -15l23 -11h20zM959 32l-52 23l-38 39l-20 48l-9 42v75l9 41l20 47l38 39l52 23h57l51 -23l37 -39l20 -47l9 -41v-75l-9 -42l-20 -48l-37 -39l-51 -23h-57zM1019 121l17 16l8 24l8 30v60l-7 29l-8 22l-20 19l-19 10h-21l-20 -10l-21 -20l-8 -21l-7 -29
v-61l8 -29l8 -24l18 -15l23 -11h20z" />
    <glyph glyph-name="guilsinglleft" unicode="&#x2039;" horiz-adv-x="325" 
d="M138 312l126 -169l-78 -62l-150 203v56l150 204l78 -63z" />
    <glyph glyph-name="guilsinglright" unicode="&#x203a;" horiz-adv-x="325" 
d="M57 481l78 63l149 -204v-56l-149 -203l-78 62l125 169z" />
    <glyph glyph-name="fraction" unicode="&#x2044;" horiz-adv-x="694" 
d="M64 29l501 700l65 -47l-501 -700z" />
    <glyph glyph-name="zerosuperior" unicode="&#x2070;" horiz-adv-x="385" 
d="M163 381l-52 23l-38 39l-20 48l-9 42v75l9 41l20 47l38 39l52 23h57l51 -23l37 -39l20 -47l9 -41v-75l-9 -42l-20 -48l-37 -39l-51 -23h-57zM223 470l17 16l8 24l8 30v60l-7 29l-8 22l-20 19l-19 10h-21l-20 -10l-21 -20l-8 -21l-7 -29v-61l8 -29l8 -24l18 -15l23 -11h20
z" />
    <glyph glyph-name="foursuperior" unicode="&#x2074;" horiz-adv-x="324" 
d="M297 549v-77h-50v-86h-82v86h-151v56l164 225h69v-204h50zM165 620l-49 -71h49v71z" />
    <glyph glyph-name="fivesuperior" unicode="&#x2075;" horiz-adv-x="341" 
d="M101 544l-51 35l25 174h195v-78h-124l-6 -40h49l50 -21l38 -35l17 -46v-44l-16 -46l-37 -39l-55 -23h-61l-51 20l-43 41l57 58l30 -30l24 -10h25l27 13l12 9l7 20v16l-5 15l-14 14l-21 7h-36z" />
    <glyph glyph-name="sixsuperior" unicode="&#x2076;" horiz-adv-x="355" 
d="M125 533v-26l6 -25l11 -11l20 -11h29l25 14l10 28v23l-3 11l-9 14l-22 11h-21l-27 -11l-17 -13zM126 628l29 11h53l59 -27l30 -42l11 -37v-47l-10 -33l-32 -44l-57 -28h-64l-61 29l-30 43l-10 36v146l13 47l39 50l58 26h56l57 -26l38 -36l-59 -55l-31 27l-23 12h-21
l-21 -11l-20 -24z" />
    <glyph glyph-name="sevensuperior" unicode="&#x2077;" horiz-adv-x="263" 
d="M20 386l137 289h-143v78h242v-52l-146 -315h-90z" />
    <glyph glyph-name="eightsuperior" unicode="&#x2078;" horiz-adv-x="354" 
d="M205 626l10 9l2 11v12l-3 10l-6 6l-22 6h-21l-24 -7l-6 -6l-2 -8v-15l2 -9l9 -8l13 -3h40zM157 545l-16 -7l-12 -10l-4 -12v-28l4 -12l8 -8l25 -7h27l23 6l9 10l4 12v27l-4 12l-9 9l-17 8h-38zM307 474l-11 -37l-44 -42l-49 -14h-56l-48 14l-45 42l-10 37v54l14 41l17 15
l-7 6l-17 42v40l14 42l39 30l50 14h43l49 -14l39 -30l14 -42v-40l-17 -42l-7 -6l19 -17l13 -39v-54z" />
    <glyph glyph-name="ninesuperior" unicode="&#x2079;" horiz-adv-x="356" 
d="M226 609v24l-5 21l-11 15l-19 11h-29l-22 -11l-7 -7l-7 -25v-19l4 -13l10 -15l22 -9h20l29 9l13 13zM225 512l-26 -11h-57l-58 28l-30 44l-10 32v48l10 33l31 45l57 27h67l58 -27l29 -43l13 -41v-146l-14 -45l-38 -49l-57 -26h-58l-58 27l-37 35l62 59l28 -31l23 -11h20
l23 10l16 20z" />
    <glyph glyph-name="plussuperior" unicode="&#x207a;" horiz-adv-x="264" 
d="M97 448v88h-83v67h83v88h67v-88h83v-67h-83v-88h-67z" />
    <glyph glyph-name="minussuperior" unicode="&#x207b;" horiz-adv-x="264" 
d="M14 536v67h233v-67h-233z" />
    <glyph glyph-name="equalsuperior" unicode="&#x207c;" horiz-adv-x="264" 
d="M14 589v67h233v-67h-233zM14 483v67h233v-67h-233z" />
    <glyph glyph-name="parenleftsuperior" unicode="&#x207d;" horiz-adv-x="189" 
d="M120 595v-53l13 -61l16 -43l33 -48l-62 -41l-38 56l-24 57l-15 72v71l15 73l24 56l38 55l62 -41l-33 -48l-16 -43z" />
    <glyph glyph-name="parenrightsuperior" unicode="&#x207e;" horiz-adv-x="189" 
d="M55 657l-17 43l-32 48l61 41l39 -55l23 -56l15 -73v-71l-15 -72l-23 -57l-39 -56l-61 41l32 48l17 43l12 61v53z" />
    <glyph glyph-name="nsuperior" unicode="&#x207f;" horiz-adv-x="335" 
d="M120 663l25 15h53l47 -13l37 -49v-230h-73v204l-6 8l-21 7h-23l-29 -19l-10 -11v-189h-72v288h72v-11z" />
    <glyph glyph-name="zeroinferior" unicode="&#x2080;" horiz-adv-x="385" 
d="M163 -163l-52 23l-38 39l-20 48l-9 42v75l9 41l20 47l38 39l52 23h57l51 -23l37 -39l20 -47l9 -41v-75l-9 -42l-20 -48l-37 -39l-51 -23h-57zM223 -74l17 16l8 24l8 30v60l-7 29l-8 22l-20 19l-19 10h-21l-20 -10l-21 -20l-8 -21l-7 -29v-61l8 -29l8 -24l18 -15l23 -11
h20z" />
    <glyph glyph-name="oneinferior" unicode="&#x2081;" horiz-adv-x="241" 
d="M2 138l150 71h43v-367h-83v262l-75 -34z" />
    <glyph glyph-name="twoinferior" unicode="&#x2082;" horiz-adv-x="335" 
d="M41 148l39 41l60 25h62l62 -29l39 -59v-57l-26 -50l-96 -96h127v-81h-257v65l158 155l11 24v15l-15 23l-21 10h-28l-24 -10l-32 -33z" />
    <glyph glyph-name="threeinferior" unicode="&#x2083;" horiz-adv-x="337" 
d="M106 12v58l48 61h-101v78h214v-56l-58 -78l25 -9l38 -37l18 -43v-41l-18 -47l-33 -34l-61 -27h-61l-54 21l-42 42l60 59l31 -33l22 -10h28l26 11l15 15l5 16v14l-3 11l-17 16l-35 13h-47z" />
    <glyph glyph-name="fourinferior" unicode="&#x2084;" horiz-adv-x="324" 
d="M297 5v-77h-50v-86h-82v86h-151v56l164 225h69v-204h50zM165 76l-49 -71h49v71z" />
    <glyph glyph-name="fiveinferior" unicode="&#x2085;" horiz-adv-x="341" 
d="M101 0l-51 35l25 174h195v-78h-124l-6 -40h49l50 -21l38 -35l17 -46v-44l-16 -46l-37 -39l-55 -23h-61l-51 20l-43 41l57 58l30 -30l24 -10h25l27 13l12 9l7 20v16l-5 15l-14 14l-21 7h-36z" />
    <glyph glyph-name="sixinferior" unicode="&#x2086;" horiz-adv-x="355" 
d="M125 -11v-26l6 -25l11 -11l20 -11h29l25 14l10 28v23l-3 11l-9 14l-22 11h-21l-27 -11l-17 -13zM126 84l29 11h53l59 -27l30 -42l11 -37v-47l-10 -33l-32 -44l-57 -28h-64l-61 29l-30 43l-10 36v146l13 47l39 50l58 26h56l57 -26l38 -36l-59 -55l-31 27l-23 12h-21
l-21 -11l-20 -24z" />
    <glyph glyph-name="seveninferior" unicode="&#x2087;" horiz-adv-x="263" 
d="M20 -158l137 289h-143v78h242v-52l-146 -315h-90z" />
    <glyph glyph-name="eightinferior" unicode="&#x2088;" horiz-adv-x="354" 
d="M205 82l10 9l2 11v12l-3 10l-6 6l-22 6h-21l-24 -7l-6 -6l-2 -8v-15l2 -9l9 -8l13 -3h40zM157 1l-16 -7l-12 -10l-4 -12v-28l4 -12l8 -8l25 -7h27l23 6l9 10l4 12v27l-4 12l-9 9l-17 8h-38zM307 -70l-11 -37l-44 -42l-49 -14h-56l-48 14l-45 42l-10 37v54l14 41l17 15
l-7 6l-17 42v40l14 42l39 30l50 14h43l49 -14l39 -30l14 -42v-40l-17 -42l-7 -6l19 -17l13 -39v-54z" />
    <glyph glyph-name="nineinferior" unicode="&#x2089;" horiz-adv-x="356" 
d="M226 65v24l-5 21l-11 15l-19 11h-29l-22 -11l-7 -7l-7 -25v-19l4 -13l10 -15l22 -9h20l29 9l13 13zM225 -32l-26 -11h-57l-58 28l-30 44l-10 32v48l10 33l31 45l57 27h67l58 -27l29 -43l13 -41v-146l-14 -45l-38 -49l-57 -26h-58l-58 27l-37 35l62 59l28 -31l23 -11h20
l23 10l16 20z" />
    <glyph glyph-name="parenleftinferior" unicode="&#x208d;" horiz-adv-x="189" 
d="M120 52v-53l13 -61l16 -43l33 -48l-62 -41l-38 56l-24 57l-15 72v71l15 73l24 56l38 55l62 -41l-33 -48l-16 -43z" />
    <glyph glyph-name="parenrightinferior" unicode="&#x208e;" horiz-adv-x="189" 
d="M55 113l-17 43l-32 48l61 41l39 -55l23 -56l15 -73v-71l-15 -72l-23 -57l-39 -56l-61 41l32 48l17 43l12 61v53z" />
    <glyph glyph-name="Won" unicode="&#x20a9;" 
d="M567 296l-34 -296h-104l-57 296h-105l-56 -296h-104l-34 296h-48v69h40l-8 67h-32v69h24l-24 210h98l18 -210h82l34 210h126l34 -210h91l24 210h83l-25 -210h29v-69h-37l-7 -67h44v-69h-52zM280 365h79l-13 67h-53zM440 365h53l8 67h-72zM153 365h49l10 67h-65zM472 171
l14 125h-35zM171 172l20 124h-31zM306 501h27l-13 70z" />
    <glyph glyph-name="Euro" unicode="&#x20ac;" 
d="M589 75l-70 -54l-79 -29h-97l-88 44l-69 72l-36 87l-9 49h-76v94h68v36h-68v94h76l9 48l36 87l71 73l86 43h102l89 -43l67 -81l-84 -66l-51 60l-46 22h-52l-51 -26l-38 -41l-25 -61l-3 -15h197v-94h-207v-36h207v-94h-197l3 -16l25 -62l38 -41l48 -25h58l44 14l58 44z
" />
    <glyph glyph-name="Indianrupeesign" unicode="&#x20b9;" 
d="M498 450l-12 -44l-51 -75l-48 -24c22 -48.667 45 -100 69 -154l68 -153h-120l-124 284h-225v104h257l51 27l23 35h-331v95h334l-2 8l-39 38l-47 16h-246v104h526v-94h-106l7 -6l19 -66h80v-95h-83z" />
    <glyph glyph-name="TRY" unicode="&#x20ba;" 
d="M587 215l-50 -100l-69 -70l-115 -45h-191v179l-62 -33l-45 84l107 58v37l-62 -33l-45 84l107 58v277h108v-219l171 93l44 -84l-215 -117v-38l171 93l44 -84l-215 -117v-131h63l73 31l41 42l41 82z" />
    <glyph glyph-name="RUB" unicode="&#x20bd;" 
d="M236 134v-134h-108v134h-68v94h68v56h-68v104h68v323h280l93 -24l76 -76l30 -105l-27 -100l-51 -75l-95 -47h-198v-56h263v-94h-263zM236 388h170l49 26l24 36l15 53l-14 50l-36 35l-52 16h-156v-216z" />
    <glyph glyph-name="afii61289" unicode="&#x2113;" horiz-adv-x="509" 
d="M466 637v-110l-16 -57l-52 -75l-147 -109v-152l18 -24l27 -12h21l102 26l27 -104l-123 -28h-48l-74 28l-57 81v106l-49 -36l-62 82l111 81v316l58 86l87 26h41l60 -21l51 -46zM251 412l68 50l30 41l12 39v75l-11 20l-32 19h-21l-28 -10l-18 -26v-208z" />
    <glyph glyph-name="afii61352" unicode="&#x2116;" horiz-adv-x="1147" 
d="M115 711h89l357 -521v521h108v-711h-106l-340 498v-498h-108v711zM922 336l23 10l19 20l11 23l8 30v65l-8 28l-11 25l-19 19l-23 11h-27l-23 -10l-20 -20l-11 -23l-8 -30v-65l8 -28l11 -25l19 -20l24 -10h27zM943 665l61 -27l40 -40l27 -55l11 -49v-85l-11 -48l-26 -53
l-41 -43l-62 -27h-67l-63 27l-41 43l-26 53l-11 48v85l11 49l27 55l40 40l62 27h69zM759 171h298v-81h-298v81z" />
    <glyph glyph-name="trademark" unicode="&#x2122;" horiz-adv-x="842" 
d="M126 274v347h-98v90h287v-90h-98v-347h-91zM529 285l-74 192v-203h-89v437h88l107 -280l107 280h87v-437h-88v203l-74 -192h-64z" />
    <glyph glyph-name="uni2126" unicode="&#x2126;" horiz-adv-x="816" 
d="M372 612l-69.999 -28.998l-47 -44l-34 -55l-18 -52v-101l20 -61l42 -65l79 -87v-118h-274v107h146c-7.33301 6.66699 -14.833 13.5 -22.5 20.5s-14.167 13.5 -19.5 19.5l-48 73l-31 96v128l27 86l55 83l72 64l103 42h112l105 -42l72 -64l55 -83l27 -87v-127l-31 -96
l-48 -74l-42 -39h145v-107h-274v118l80 87l42 64l19 61v101c-3.33301 9.33301 -6.33301 18.166 -9 26.499s-5.33398 17.166 -8.00098 26.499l-36 56l-46 43l-70 29h-73z" />
    <glyph glyph-name="estimated" unicode="&#x212e;" horiz-adv-x="585" 
d="M157 148l13 -44l33 -65l61 -30h60l88 23l63 52l13 -16l-65 -53l-92 -23h-83l-100 48l-68 92l-21 71v119l21 73l68 92l100 48h89l101 -48l67 -72l23 -67v-85h-371v-115zM420 293v78l-3 28l-33 90l-61 32h-62l-60 -31l-32 -83l-12 -37v-77h263z" />
    <glyph glyph-name="arrowleft" unicode="&#x2190;" horiz-adv-x="850" 
d="M328 461l-108 -106h566v-89h-567l109 -106l-59 -62l-193 188v49l193 187z" />
    <glyph glyph-name="arrowup" unicode="&#x2191;" horiz-adv-x="548" 
d="M58 517l188 194h49l187 -194l-61 -58l-106 109v-567h-89v566l-107 -108z" />
    <glyph glyph-name="arrowright" unicode="&#x2192;" horiz-adv-x="850" 
d="M581 522l193 -187v-49l-193 -188l-59 62l109 106h-567v89h566l-108 106z" />
    <glyph glyph-name="arrowdown" unicode="&#x2193;" horiz-adv-x="548" 
d="M119 253l107 -108v566h89v-567l106 109l61 -58l-187 -194h-49l-188 194z" />
    <glyph glyph-name="uni2196" unicode="&#x2196;" horiz-adv-x="850" 
d="M149 228l-4 269l35 35l269 -4l-2 -84l-152 1l401 -400l-63 -63l-401 399l2 -150z" />
    <glyph glyph-name="uni2197" unicode="&#x2197;" horiz-adv-x="850" 
d="M615 231l2 150l-401 -399l-63 63l401 400l-152 -1l-2 84l269 4l35 -35l-4 -269z" />
    <glyph glyph-name="uni2198" unicode="&#x2198;" horiz-adv-x="833" 
d="M700 299l4 -269l-35 -35l-269 4l2 84l152 -1l-401 400l63 63l401 -399l-2 150z" />
    <glyph glyph-name="uni2199" unicode="&#x2199;" horiz-adv-x="833" 
d="M234 296l-2 -150l401 399l63 -63l-401 -400l152 1l2 -84l-269 -4l-35 35l4 269z" />
    <glyph glyph-name="partialdiff" unicode="&#x2202;" horiz-adv-x="571" 
d="M303 556l-90 69l-98 27l28 104l117 -31l127 -97l101 -203l28 -133v-114l-26 -66l-49 -70l-99 -50h-116l-97 50l-49 70l-27 66v109l27 66l49 70l97 52h115l3 -2zM319 367h-66l-50 -27l-24 -33l-18 -41v-66l19 -42l22 -32l50 -26h65l51 25l23 35l17 39v77l-18 46l-28 29z
" />
    <glyph glyph-name="uni2206" unicode="&#x2206;" horiz-adv-x="682" 
d="M19 0l273 711h98l273 -711h-644zM507 107l-166 441l-166 -441h332z" />
    <glyph glyph-name="product" unicode="&#x220f;" horiz-adv-x="842" 
d="M491 408l6 9l7 23l-7 18l-9 11l-20 7h-76v-80h80zM392 146h-90v419h178l55 -14l46 -46l17 -64l-15 -60l-30 -44l-58 -31h-103v-160zM706 397l-28 83l-56 78l-78 55l-83 28h-80l-82 -28l-77 -55l-58 -78l-28 -83v-83l28 -83l58 -78l77 -55l82 -28h80l83 28l78 55l56 78
l28 83v83zM792 302l-38 -112l-74 -101l-96 -67l-110 -38h-105l-110 38l-96 67l-74 101l-38 112v107l38 112l74 101l96 67l110 38h105l110 -38l96 -67l74 -101l38 -112v-107z" />
    <glyph glyph-name="summation" unicode="&#x2211;" horiz-adv-x="583" 
d="M541 29v-108h-506v81l219 314c-36 52 -72.5 104.333 -109.5 157s-73.5 105 -109.5 157v81h506v-107h-358l203 -288l-202 -287h357z" />
    <glyph glyph-name="minus" unicode="&#x2212;" horiz-adv-x="580" 
d="M66 387h448v-95h-448v95z" />
    <glyph glyph-name="radical" unicode="&#x221a;" horiz-adv-x="732" 
d="M140 533l121 -362l216 683h230v-107h-151l-245 -767h-94l-191 553h114z" />
    <glyph glyph-name="infinity" unicode="&#x221e;" horiz-adv-x="778" 
d="M341 208l-40 -31l-38 -15l-34 -7h-31l-34 7l-38 15l-40 31l-29 34l-20 39l-7 39v40l7 39l20 39l29 34l40 32l38 14l34 7h31l34 -7l38 -14l40 -32l48 -55l48 55l40 32l38 14l34 7h31l35 -7l37 -14l40 -32l29 -34l20 -39l7 -39v-40l-7 -39l-20 -39l-29 -34l-40 -31l-37 -15
l-35 -7h-31l-34 7l-38 15l-40 31l-48 55zM321 340l-52 58l-18 16l-16 5l-16 3h-11l-16 -3l-17 -5l-18 -16l-14 -18l-5 -12l-4 -17v-22l4 -17l5 -14l14 -16l19 -15l16 -6l16 -3h11l16 3l16 6l20 16zM506 283l21 -16l18 -7l14 -2h11l16 3l16 6l19 15l14 18l6 12l3 17v22l-3 17
l-6 14l-14 16l-19 16l-17 6l-15 2h-11l-15 -3l-18 -5l-17 -15l-52 -59z" />
    <glyph glyph-name="integral" unicode="&#x222b;" horiz-adv-x="596" 
d="M468 654h-25.001l-30 -19l-19 -33c-17.333 -99.333 -34.166 -199.5 -50.499 -300.5s-32.833 -200.833 -49.5 -299.5l-54 -80l-79 -41h-71l-78 28l36 100l61 -21h28l26 16l25 34l102 603l44 74l78 47h70l89 -19l-25 -106z" />
    <glyph glyph-name="approxequal" unicode="&#x2248;" horiz-adv-x="660" 
d="M600 247l-70 -38l-69 -16h-55l-55 12l-65 22l-48 7h-23l-49 -12l-57 -30l-46 88l70 37l67 17h45l67 -11l62 -21l39 -10h39l40 10l59 32zM600 420l-70 -38l-69 -16h-55l-55 12l-65 22l-48 8h-23l-49 -13l-57 -30l-46 88l70 37l67 17h45l67 -11l62 -21l39 -10h39l40 11
l59 31z" />
    <glyph glyph-name="notequal" unicode="&#x2260;" horiz-adv-x="580" 
d="M66 306h150l46 66h-196v95h262l75 108l64 -44l-45 -64h92v-95h-157l-46 -66h203v-95h-269l-75 -108l-64 44l44 64h-84v95z" />
    <glyph glyph-name="lessequal" unicode="&#x2264;" horiz-adv-x="520" 
d="M155 379l286 -169l-46 -79l-351 208v81l351 208l46 -78zM455 95v-95h-413v95h413z" />
    <glyph glyph-name="greaterequal" unicode="&#x2265;" horiz-adv-x="520" 
d="M367 380l-286 170l45 78l352 -208v-81l-352 -208l-45 79zM479 95v-95h-412v95h412z" />
    <glyph glyph-name="uni2460" unicode="&#x2460;" horiz-adv-x="842" 
d="M714 397l-30 89l-58 79l-78 54l-87 30h-80l-87 -30l-78 -54l-58 -79l-30 -89v-83l30 -89l58 -79l78 -54l87 -30h80l87 30l78 54l58 79l30 89v83zM792 300l-37 -109l-75 -103l-98 -67l-107 -37h-108l-107 37l-98 67l-75 103l-37 109v111l37 109l75 103l98 67l107 37h108
l107 -37l98 -67l75 -103l37 -109v-111zM288 463l150 71h43v-367h-83v262l-75 -34z" />
    <glyph glyph-name="uni2461" unicode="&#x2461;" horiz-adv-x="842" 
d="M714 397l-30 89l-58 79l-78 54l-87 30h-80l-87 -30l-78 -54l-58 -79l-30 -89v-83l30 -89l58 -79l78 -54l87 -30h80l87 30l78 54l58 79l30 89v83zM792 300l-37 -109l-75 -103l-98 -67l-107 -37h-108l-107 37l-98 67l-75 103l-37 109v111l37 109l75 103l98 67l107 37h108
l107 -37l98 -67l75 -103l37 -109v-111zM282 471l39 41l60 25h62l62 -29l39 -59v-57l-26 -50l-96 -96h127v-81h-257v65l158 155l11 24v15l-15 23l-21 10h-28l-24 -10l-32 -33z" />
    <glyph glyph-name="uni2462" unicode="&#x2462;" horiz-adv-x="842" 
d="M714 397l-30 89l-58 79l-78 54l-87 30h-80l-87 -30l-78 -54l-58 -79l-30 -89v-83l30 -89l58 -79l78 -54l87 -30h80l87 30l78 54l58 79l30 89v83zM792 300l-37 -109l-75 -103l-98 -67l-107 -37h-108l-107 37l-98 67l-75 103l-37 109v111l37 109l75 103l98 67l107 37h108
l107 -37l98 -67l75 -103l37 -109v-111zM369 339v58l48 61h-101v78h214v-56l-58 -78l25 -9l38 -37l18 -43v-41l-18 -47l-33 -34l-61 -27h-61l-54 21l-42 42l60 59l31 -33l22 -10h28l26 11l15 15l5 16v14l-3 11l-17 16l-35 13h-47z" />
    <glyph glyph-name="uni2463" unicode="&#x2463;" horiz-adv-x="842" 
d="M714 397l-30 89l-58 79l-78 54l-87 30h-80l-87 -30l-78 -54l-58 -79l-30 -89v-83l30 -89l58 -79l78 -54l87 -30h80l87 30l78 54l58 79l30 89v83zM792 300l-37 -109l-75 -103l-98 -67l-107 -37h-108l-107 37l-98 67l-75 103l-37 109v111l37 109l75 103l98 67l107 37h108
l107 -37l98 -67l75 -103l37 -109v-111zM536 330v-77h-50v-86h-82v86h-151v56l164 225h69v-204h50zM404 401l-49 -71h49v71z" />
    <glyph glyph-name="uni2464" unicode="&#x2464;" horiz-adv-x="842" 
d="M714 397l-30 89l-58 79l-78 54l-87 30h-80l-87 -30l-78 -54l-58 -79l-30 -89v-83l30 -89l58 -79l78 -54l87 -30h80l87 30l78 54l58 79l30 89v83zM792 300l-37 -109l-75 -103l-98 -67l-107 -37h-108l-107 37l-98 67l-75 103l-37 109v111l37 109l75 103l98 67l107 37h108
l107 -37l98 -67l75 -103l37 -109v-111zM352 327l-51 35l25 174h195v-78h-124l-6 -40h49l50 -21l38 -35l17 -46v-44l-16 -46l-37 -39l-55 -23h-61l-51 20l-43 41l57 58l30 -30l24 -10h25l27 13l12 9l7 20v16l-5 15l-14 14l-21 7h-36z" />
    <glyph glyph-name="uni2465" unicode="&#x2465;" horiz-adv-x="842" 
d="M714 397l-30 89l-58 79l-78 54l-87 30h-80l-87 -30l-78 -54l-58 -79l-30 -89v-83l30 -89l58 -79l78 -54l87 -30h80l87 30l78 54l58 79l30 89v83zM792 300l-37 -109l-75 -103l-98 -67l-107 -37h-108l-107 37l-98 67l-75 103l-37 109v111l37 109l75 103l98 67l107 37h108
l107 -37l98 -67l75 -103l37 -109v-111zM369 314v-26l6 -25l11 -11l20 -11h29l25 14l10 28v23l-3 11l-9 14l-22 11h-21l-27 -11l-17 -13zM370 409l29 11h53l59 -27l30 -42l11 -37v-47l-10 -33l-32 -44l-57 -28h-64l-61 29l-30 43l-10 36v146l13 47l39 50l58 26h56l57 -26
l38 -36l-59 -55l-31 27l-23 12h-21l-21 -11l-20 -24z" />
    <glyph glyph-name="uni2466" unicode="&#x2466;" horiz-adv-x="842" 
d="M714 397l-30 89l-58 79l-78 54l-87 30h-80l-87 -30l-78 -54l-58 -79l-30 -89v-83l30 -89l58 -79l78 -54l87 -30h80l87 30l78 54l58 79l30 89v83zM792 300l-37 -109l-75 -103l-98 -67l-107 -37h-108l-107 37l-98 67l-75 103l-37 109v111l37 109l75 103l98 67l107 37h108
l107 -37l98 -67l75 -103l37 -109v-111zM312 167l137 289h-143v78h242v-52l-146 -315h-90z" />
    <glyph glyph-name="uni2467" unicode="&#x2467;" horiz-adv-x="842" 
d="M714 397l-30 89l-58 79l-78 54l-87 30h-80l-87 -30l-78 -54l-58 -79l-30 -89v-83l30 -89l58 -79l78 -54l87 -30h80l87 30l78 54l58 79l30 89v83zM792 300l-37 -109l-75 -103l-98 -67l-107 -37h-108l-107 37l-98 67l-75 103l-37 109v111l37 109l75 103l98 67l107 37h108
l107 -37l98 -67l75 -103l37 -109v-111zM449 407l10 9l2 11v12l-3 10l-6 6l-22 6h-21l-24 -7l-6 -6l-2 -8v-15l2 -9l9 -8l13 -3h40zM401 326l-16 -7l-12 -10l-4 -12v-28l4 -12l8 -8l25 -7h27l23 6l9 10l4 12v27l-4 12l-9 9l-17 8h-38zM551 255l-11 -37l-44 -42l-49 -14h-56
l-48 14l-45 42l-10 37v54l14 41l17 15l-7 6l-17 42v40l14 42l39 30l50 14h43l49 -14l39 -30l14 -42v-40l-17 -42l-7 -6l19 -17l13 -39v-54z" />
    <glyph glyph-name="uni2468" unicode="&#x2468;" horiz-adv-x="842" 
d="M714 397l-30 89l-58 79l-78 54l-87 30h-80l-87 -30l-78 -54l-58 -79l-30 -89v-83l30 -89l58 -79l78 -54l87 -30h80l87 30l78 54l58 79l30 89v83zM792 300l-37 -109l-75 -103l-98 -67l-107 -37h-108l-107 37l-98 67l-75 103l-37 109v111l37 109l75 103l98 67l107 37h108
l107 -37l98 -67l75 -103l37 -109v-111zM469 390v24l-5 21l-11 15l-19 11h-29l-22 -11l-7 -7l-7 -25v-19l4 -13l10 -15l22 -9h20l29 9l13 13zM468 293l-26 -11h-57l-58 28l-30 44l-10 32v48l10 33l31 45l57 27h67l58 -27l29 -43l13 -41v-146l-14 -45l-38 -49l-57 -26h-58
l-58 27l-37 35l62 59l28 -31l23 -11h20l23 10l16 20z" />
    <glyph glyph-name="lozenge" unicode="&#x25ca;" horiz-adv-x="562" 
d="M34 355l197 356h100l198 -356l-198 -355h-100zM281 124l126 231l-126 231l-126 -232z" />
    <glyph glyph-name="circle" unicode="&#x25cb;" horiz-adv-x="842" 
d="M714 397l-30 89l-58 79l-78 54l-87 30h-80l-87 -30l-78 -54l-58 -79l-30 -89v-83l30 -89l58 -79l78 -54l87 -30h80l87 30l78 54l58 79l30 89v83zM792 300l-37 -109l-75 -103l-98 -67l-107 -37h-108l-107 37l-98 67l-75 103l-37 109v111l37 109l75 103l98 67l107 37h108
l107 -37l98 -67l75 -103l37 -109v-111z" />
    <glyph glyph-name="uni2776" unicode="&#x2776;" horiz-adv-x="842" 
d="M792 300l-37 -109l-75 -103l-98 -67l-107 -37h-108l-107 37l-98 67l-75 103l-37 109v111l37 109l75 103l98 67l107 37h108l107 -37l98 -67l75 -103l37 -109v-111zM323 395l75 34v-262h83v367h-43l-150 -71z" />
    <glyph glyph-name="uni2777" unicode="&#x2777;" horiz-adv-x="842" 
d="M792 300l-37 -109l-75 -103l-98 -67l-107 -37h-108l-107 37l-98 67l-75 103l-37 109v111l37 109l75 103l98 67l107 37h108l107 -37l98 -67l75 -103l37 -109v-111zM341 414l32 33l24 10h28l21 -10l15 -23v-15l-11 -24l-158 -155v-65h257v81h-127l96 96l26 50v57l-39 59
l-62 29h-62l-60 -25l-39 -41z" />
    <glyph glyph-name="uni2778" unicode="&#x2778;" horiz-adv-x="842" 
d="M792 300l-37 -109l-75 -103l-98 -67l-107 -37h-108l-107 37l-98 67l-75 103l-37 109v111l37 109l75 103l98 67l107 37h108l107 -37l98 -67l75 -103l37 -109v-111zM416 339l35 -13l17 -16l3 -11v-14l-5 -16l-15 -15l-26 -11h-28l-22 10l-31 33l-60 -59l42 -42l54 -21h61
l61 27l33 34l18 47v41l-18 43l-38 37l-25 9l58 78v56h-214v-78h101l-48 -61v-58h47z" />
    <glyph glyph-name="uni2779" unicode="&#x2779;" horiz-adv-x="842" 
d="M792 300l-37 -109l-75 -103l-98 -67l-107 -37h-108l-107 37l-98 67l-75 103l-37 109v111l37 109l75 103l98 67l107 37h108l107 -37l98 -67l75 -103l37 -109v-111zM486 330v204h-69l-164 -225v-56h151v-86h82v86h50v77h-50zM404 330h-49l49 71v-71z" />
    <glyph glyph-name="uni277A" unicode="&#x277a;" horiz-adv-x="842" 
d="M792 300l-37 -109l-75 -103l-98 -67l-107 -37h-108l-107 37l-98 67l-75 103l-37 109v111l37 109l75 103l98 67l107 37h108l107 -37l98 -67l75 -103l37 -109v-111zM388 337h36l21 -7l14 -14l5 -15v-16l-7 -20l-12 -9l-27 -13h-25l-24 10l-30 30l-57 -58l43 -41l51 -20h61
l55 23l37 39l16 46v44l-17 46l-38 35l-50 21h-49l6 40h124v78h-195l-25 -174l51 -35z" />
    <glyph glyph-name="uni277B" unicode="&#x277b;" horiz-adv-x="842" 
d="M792 300l-37 -109l-75 -103l-98 -67l-107 -37h-108l-107 37l-98 67l-75 103l-37 109v111l37 109l75 103l98 67l107 37h108l107 -37l98 -67l75 -103l37 -109v-111zM371 318l17 13l27 11h21l22 -11l9 -14l3 -11v-23l-10 -28l-25 -14h-29l-20 11l-11 11l-6 25v26zM374 426
l20 24l21 11h21l23 -12l31 -27l59 55l-38 36l-57 26h-56l-58 -26l-39 -50l-13 -47v-146l10 -36l30 -43l61 -29h64l57 28l32 44l10 33v47l-11 37l-30 42l-59 27h-53l-29 -11z" />
    <glyph glyph-name="uni277C" unicode="&#x277c;" horiz-adv-x="842" 
d="M792 300l-37 -109l-75 -103l-98 -67l-107 -37h-108l-107 37l-98 67l-75 103l-37 109v111l37 109l75 103l98 67l107 37h108l107 -37l98 -67l75 -103l37 -109v-111zM402 167l146 315v52h-242v-78h143l-137 -289h90z" />
    <glyph glyph-name="uni277D" unicode="&#x277d;" horiz-adv-x="842" 
d="M792 300l-37 -109l-75 -103l-98 -67l-107 -37h-108l-107 37l-98 67l-75 103l-37 109v111l37 109l75 103l98 67l107 37h108l107 -37l98 -67l75 -103l37 -109v-111zM441 405h-40l-13 3l-9 8l-2 9v15l2 8l6 6l24 7h21l22 -6l6 -6l3 -10v-12l-2 -11l-10 -9zM439 326l17 -8
l9 -9l4 -12v-27l-4 -12l-9 -10l-23 -6h-27l-25 7l-8 8l-4 12v28l4 12l12 10l16 7h38zM551 309l-13 39l-19 17l7 6l17 42v40l-14 42l-39 30l-49 14h-43l-50 -14l-39 -30l-14 -42v-40l17 -42l7 -6l-17 -15l-14 -41v-54l10 -37l45 -42l48 -14h56l49 14l44 42l11 37v54z" />
    <glyph glyph-name="uni277E" unicode="&#x277e;" horiz-adv-x="842" 
d="M792 300l-37 -109l-75 -103l-98 -67l-107 -37h-108l-107 37l-98 67l-75 103l-37 109v111l37 109l75 103l98 67l107 37h108l107 -37l98 -67l75 -103l37 -109v-111zM467 384l-13 -13l-29 -9h-20l-22 9l-10 15l-4 13v19l7 25l7 7l22 11h29l19 -11l11 -15l5 -21v-24zM462 271
l-16 -20l-23 -10h-20l-23 11l-28 31l-62 -59l37 -35l58 -27h58l57 26l38 49l14 45v146l-13 41l-29 43l-58 27h-67l-57 -27l-31 -45l-10 -33v-48l10 -32l30 -44l58 -28h57l26 11z" />
    <glyph glyph-name="commaaccent" unicode="&#xf6c3;" horiz-adv-x="268" 
d="M69 -116v91h125v-66l-75 -134l-52 24l34 72z" />
    <glyph glyph-name="asuperior" unicode="&#xf6e9;" horiz-adv-x="342" 
d="M204 467l2 9v23l-3 4l-9 5l-24 7h-15l-27 -8l-11 -11l-4 -16v-6l12 -20l4 -3l21 -6h8l30 11zM144 577h36.002l26 -9v18l-2 4l-13 9l-22 6h-26l-14 -2l-17 -8l-23 -17l-45 47l24 23l32 22l29 8h52l39 -8l44 -32l15 -40v-143c3.33301 -5.33301 7.66602 -11.5 12.999 -18.5
s9.66602 -13.167 12.999 -18.5l-61 -42l-22 31l-49 -25h-37l-29 9l-35 20l-31 45v36l7 37l44 35z" />
    <glyph glyph-name="bsuperior" unicode="&#xf6ea;" horiz-adv-x="345" 
d="M126 666l19 12h51l59 -28l37 -50l11 -37v-65l-11 -38l-37 -50l-57 -28h-51l-21 8v-4h-72v398h72v-118zM132 469l13 -9l18 -5h22l21 11l19 26l5 20v37l-5 19l-19 27l-22 10h-26l-22 -17l-10 -14v-100z" />
    <glyph glyph-name="dsuperior" unicode="&#xf6eb;" horiz-adv-x="345" 
d="M207 590l-13 9l-20 7h-22l-19 -11l-22 -25l-5 -20v-39l5 -19l21 -27l22 -10h23l25 19l9 11v100zM211 386v8l-18 -12h-52l-59 28l-37 50l-11 37v65l11 38l37 50l57 28h51l21 -8v114h73v-398h-73z" />
    <glyph glyph-name="esuperior" unicode="&#xf6ec;" horiz-adv-x="340" 
d="M114 494l21 -29l21 -10h21l29 7l38 23l39 -59l-50 -33l-45 -11h-47l-56 28l-38 50l-10 37v65l10 38l38 50l56 28h50l57 -28l37 -51l11 -33v-72h-182zM114 566h104v2l-20 26l-21 11h-23l-20 -10l-19 -25z" />
    <glyph glyph-name="isuperior" unicode="&#xf6ed;" horiz-adv-x="198" 
d="M53 784h90v-94h-90v94zM61 654h73v-268h-73v268z" />
    <glyph glyph-name="lsuperior" unicode="&#xf6ee;" horiz-adv-x="179" 
d="M52 386v398h72v-398h-72z" />
    <glyph glyph-name="msuperior" unicode="&#xf6ef;" horiz-adv-x="495" 
d="M206 588l-7 12l-17 5h-22l-28 -19l-10 -11v-189h-73v288h73v-11l25 15h52l45 -13l11 -15l8 6l39 22h54l45 -13l35 -49v-230h-73v206l-5 6l-18 7h-21l-30 -19l-9 -12v-188h-74v202z" />
    <glyph glyph-name="osuperior" unicode="&#xf6f0;" horiz-adv-x="333" 
d="M134 382l-57 28l-29 42l-10 46v63l10 46l29 43l57 28h58l57 -28l29 -43l9 -46v-63l-9 -46l-29 -42l-57 -28h-58zM178 455l20 10l10 14l6 28v48l-6 27l-10 12l-20 11h-31l-21 -12l-9 -12l-7 -26v-48l7 -29l9 -12l21 -11h31z" />
    <glyph glyph-name="rsuperior" unicode="&#xf6f1;" horiz-adv-x="248" 
d="M180 605h-17l-17 -8l-17 -19l-9 -18v-174h-74v288h74v-12l32 16h39l39 -11l-17 -71z" />
    <glyph glyph-name="ssuperior" unicode="&#xf6f2;" horiz-adv-x="300" 
d="M125 574l75 -14l35 -24l23 -37v-50l-22 -35l-33 -23l-31 -9h-50l-45 11l-26 21l-25 27l53 50l18 -23l7 -6l27 -7h28l17 5l7 5l3 11l-3 8l-8 6l-68 10l-41 25l-23 36v53l19 33l26 22l34 9h48l43 -10l45 -33l-39 -58l-31 21l-27 8h-28l-15 -7l-4 -5v-11z" />
    <glyph glyph-name="tsuperior" unicode="&#xf6f3;" horiz-adv-x="273" 
d="M151 668h67v-73h-67v-127l8 -10l7 -3h11l48 12l17 -71l-60 -14h-28l-43 16l-32 46v151h-46v73h46v88h72v-88z" />
    <glyph glyph-name="apple" unicode="&#xf8ff;" horiz-adv-x="1480" 
d="M156 192l189 78h-305v78h305l-189 78l29 72l188 -78l-215 215l56 56l215 -215l-78 188l72 29l78 -189v305h78v-305l78 189l72 -29l-78 -188l215 215l56 -56l-215 -215l188 78l29 -72l-189 -78h705v-78h-705l189 -78l-29 -72l-188 78l215 -215l-56 -56l-215 215l78 -188
l-72 -29l-78 188v-304h-78v304l-78 -188l-72 29l78 188l-215 -215l-56 56l215 215l-188 -78z" />
    <glyph glyph-name="ff" unicode="&#xfb00;" horiz-adv-x="770" 
d="M474 408h-260v-408h-107v408h-90v106h90v136l58 86l87 26h41l100 -21l-28 -106l-84 21h-21l-28 -10l-18 -26v-106h260v136l58 86l87 26h41l100 -21l-28 -106l-84 21h-21l-28 -10l-18 -26v-106h127v-106h-127v-408h-107v408z" />
    <glyph glyph-name="ffi" unicode="&#xfb03;" horiz-adv-x="1027" 
d="M843 408h-263v-408h-107v408h-259v-408h-107v408h-90v106h90v136l58 86l87 26h41l100 -21l-28 -106l-84 21h-21l-28 -10l-18 -26v-106h259v136l58 86l87 26h41l80 -16l-28 -106l-64 16h-21l-28 -10l-18 -26v-106h370v-514h-107v408zM825 754h141v-145h-141v145z" />
    <glyph glyph-name="ffl" unicode="&#xfb04;" horiz-adv-x="1027" 
d="M842 0v408h-261v-408h-107v408h-260v-408h-107v408h-90v106h90v136l58 86l87 26h41l100 -21l-28 -106l-84 21h-21l-28 -10l-18 -26v-106h260v136l58 86l87 26h41l100 -21l-28 -106l-84 21h-21l-28 -10l-18 -26v-106h261v240h107v-754h-107z" />
    <glyph glyph-name="nonbreakingspace" horiz-adv-x="0" 
 />
    <glyph glyph-name="zero.tlfslash" 
d="M271 -8l-94 44l-70 71l-36 87l-16 90v143l16 90l36 87l70 71l94 44h98l93 -44l71 -71l36 -87l16 -90v-143l-16 -90l-36 -87l-71 -71l-93 -44h-98zM397 125l44 45l21 54l15 72v123l-14 67l-2 5l-245 -338l26 -28l52 -25h51zM177 224v-2l245 339l-24 24l-53 26h-50l-54 -26
l-43 -43l-21 -56l-14 -67v-123z" />
    <glyph glyph-name="zero.tlf" 
d="M271 -8l-94 44l-70 71l-36 87l-16 90v143l16 90l36 87l70 71l94 44h98l93 -44l71 -71l36 -87l16 -90v-143l-16 -90l-36 -87l-71 -71l-93 -44h-98zM397 125l44 45l21 54l15 72v123l-14 67l-21 56l-44 43l-53 26h-50l-54 -26l-43 -43l-21 -56l-14 -67v-123l14 -72l22 -53
l43 -46l52 -25h51z" />
    <glyph glyph-name="one.tlf" 
d="M294 569l-153 -78l-47 95l247 125h60v-605h162v-106h-445v106h176v463z" />
    <glyph glyph-name="zero.slash" 
d="M271 -8l-94 44l-70 71l-36 87l-16 90v143l16 90l36 87l70 71l94 44h98l93 -44l71 -71l36 -87l16 -90v-143l-16 -90l-36 -87l-71 -71l-93 -44h-98zM397 125l44 45l21 54l15 72v123l-14 67l-2 5l-245 -338l26 -28l52 -25h51zM177 224v-2l245 339l-24 24l-53 26h-50l-54 -26
l-43 -43l-21 -56l-14 -67v-123z" />
    <glyph glyph-name="two.tlf" 
d="M94 614l54 58l105 47h110l108 -53l67 -106v-100l-44 -90l-237 -263h289v-107h-445v90l302 339l26 54v45l-33 55l-59 28h-61l-63 -30l-43 -44z" />
    <glyph glyph-name="three.tlf" 
d="M247 357v82l119 165h-226v107h375v-82l-135 -183l80 -31l69 -69l31 -81v-74l-30 -81l-67 -71l-106 -47h-109l-100 43l-61 57l78 78l45 -45l59 -25h64l68 30l33 35l17 41v42l-15 39l-37 38l-78 32h-74z" />
    <glyph glyph-name="four.tlf" 
d="M581 284v-107h-103v-177h-108v177h-308v79l319 455h97v-427h103zM370 510l-165 -226h165v226z" />
    <glyph glyph-name="five.tlf" 
d="M194 333l-78 57l44 321h350v-107h-256l-22 -144l8 2h123l94 -36l70 -70l31 -82v-83l-30 -81l-67 -71l-106 -47h-109l-100 43l-61 57l77 78l45 -45l60 -25h64l68 30l33 36l17 41v49l-14 37l-42 42l-51 20h-85z" />
    <glyph glyph-name="six.tlf" 
d="M200 282v-68l13 -49l27 -37l56 -28h70l55 28l22 31l15 45v60l-11 35l-27 38l-54 29h-53l-61 -26l-41 -34zM219 439l76 34h94l106 -53l53 -77l18 -66v-87l-19 -71l-53 -74l-105 -53h-118l-104 52l-54 78l-22 78v288l25 90l68 91l106 50h102l102 -48l54 -52l-77 -77l-39 39
l-65 30h-52l-59 -28l-41 -52l-15 -60v-51z" />
    <glyph glyph-name="seven.tlf" 
d="M144 0l274 604h-304v107h434v-76l-282 -635h-122z" />
    <glyph glyph-name="eight.tlf" 
d="M396 448l28 28l9 28v42l-11 31l-24 20l-53 14h-49l-53 -14l-24 -20l-11 -31v-42l10 -29l27 -28l35 -10h83zM275 331l-37 -14l-35 -35l-10 -34v-62l9 -37l34 -33l51 -16h67l52 16l33 33l10 35v63l-11 34l-34 36l-38 14h-91zM557 167l-23 -77l-70 -68l-98 -30h-91l-98 30
l-70 68l-23 79v92l25 77l51 49l-32 28l-28 72v73l25 78l64 53l94 28h76l94 -28l63 -53l26 -78v-73l-29 -72l-32 -29l51 -48l25 -77v-94z" />
    <glyph glyph-name="nine.tlf" 
d="M441 428v69l-14 48l-27 38l-56 28h-69l-56 -28l-23 -32l-13 -44v-58l10 -34l27 -38l54 -29h56l61 25l40 35zM430 279l-81 -38h-98l-107 53l-52 77l-18 66v84l19 71l53 74l105 53h118l104 -52l54 -78l22 -78v-293l-25 -88l-69 -91l-104 -47h-103l-102 48l-54 52l78 78
l39 -40l64 -30h53l58 26l40 51l17 58v54z" />
    <glyph glyph-name="zero.otlf" 
d="M459 503l62 -56l38 -66l17 -68v-99l-17 -68l-38 -66l-62 -56l-82 -32h-115l-82 32l-62 56l-38 66l-17 68v99l17 68l38 66l62 56l82 32h115zM401 115l37 34l19 33l12 46v71l-12 48l-19 31l-36 35l-42 16h-81l-42 -16l-36 -35l-19 -31l-12 -48v-71l12 -46l19 -33l36 -34
l42 -17h80z" />
    <glyph glyph-name="one.otlf" 
d="M294 385l-153 -78l-47 95l247 125h60v-421h162v-106h-445v106h176v279z" />
    <glyph glyph-name="three.otlf" 
d="M241 202v82l115 137h-221v106h370v-81l-129 -157l75 -30l69 -68l30 -80v-82l-29 -80l-67 -70l-104 -46h-108l-98 42l-61 56l77 77l45 -44l58 -25h64l66 30l33 34l17 41v50l-15 38l-37 38l-77 32h-73z" />
    <glyph glyph-name="four.otlf" 
d="M577 117v-106h-101v-174h-107v174h-304v78l315 438h96v-410h101zM369 337l-159 -220h159v220z" />
    <glyph glyph-name="five.otlf" 
d="M194 178l-77 56l44 293h344v-106h-252l-21 -118l7 3h121l93 -36l69 -69l30 -81v-92l-29 -80l-66 -70l-104 -46h-108l-99 42l-60 56l77 77l44 -44l59 -25h63l67 30l32 35l17 41v58l-14 36l-40 42l-52 20h-83z" />
    <glyph glyph-name="six.otlf" 
d="M203 287v-73l14 -49l27 -37l56 -28h69l56 28l22 31l15 45v60l-11 35l-27 38l-54 29h-53l-61 -26l-41 -34zM212 438l86 35h95l106 -53l53 -77l18 -66v-87l-19 -71l-53 -74l-105 -53h-118l-104 52l-54 78l-22 78v288l25 90l68 91l106 50h102l102 -48l54 -52l-77 -77l-39 39
l-65 30h-52l-59 -28c-6.66699 -9.33301 -13.5 -18 -20.5 -26s-13.833 -16.667 -20.5 -26l-16 -60v-42z" />
    <glyph glyph-name="seven.otlf" 
d="M145 -162l272 583h-299v106h427v-75l-281 -614h-119z" />
    <glyph glyph-name="eight.otlf" 
d="M396 448l28 28l9 28v42l-11 31l-24 20l-53 14h-49l-53 -14l-24 -20l-11 -31v-42l10 -29l27 -28l35 -10h83zM275 331l-37 -14l-35 -35l-10 -34v-62l9 -37l34 -33l51 -16h67l52 16l33 33l10 35v63l-11 34l-34 36l-38 14h-91zM557 167l-23 -77l-70 -68l-98 -30h-91l-98 30
l-70 68l-23 79v92l25 77l51 49l-32 28l-28 72v73l25 78l64 53l94 28h76l94 -28l63 -53l26 -78v-73l-29 -72l-32 -29l51 -48l25 -77v-94z" />
    <glyph glyph-name="nine.otlf" 
d="M446 245v67l-14 48c-4 6.66699 -8.16699 13 -12.5 19s-8.83301 12.333 -13.5 19l-57 28h-69l-56 -28l-23 -32l-13 -44v-56l10 -34l27 -38l54 -29h56l61 25l40 35zM436 92l-81.998 -34h-98l-107 53l-51 77l-19 66v82l19 71l53 74l105 53h118l104 -52l54 -78l22 -78v-268
l-25 -88l-69 -91l-104 -47h-103l-102 48l-53 52l77 78l39 -40l64 -30h53l58 26c7.33301 8.66699 14.166 17 20.499 25s13.166 16.667 20.499 26l16 58v26z" />
    <glyph glyph-name="zero.oplf" horiz-adv-x="643" 
d="M461 503l62 -56l38 -66l17 -68v-99l-17 -68l-38 -66l-62 -56l-82 -32h-115l-82 32l-62 56l-38 66l-17 68v99l17 68l38 66l62 56l82 32h115zM403 115l37 34l19 33l12 46v71l-12 48l-19 31l-36 35l-42 16h-81l-42 -16l-36 -35l-19 -31l-12 -48v-71l12 -46l19 -33l36 -34
l42 -17h80z" />
    <glyph glyph-name="one.oplf" horiz-adv-x="395" 
d="M205 385l-153 -78l-47 95l248 125h59v-527h-107v385z" />
    <glyph glyph-name="three.oplf" horiz-adv-x="541" 
d="M181 202v82l115 137h-221v106h370v-81l-129 -157l75 -30l69 -68l30 -80v-82l-29 -80l-67 -70l-104 -46h-108l-98 42l-61 56l77 77l45 -44l58 -25h64l66 30l33 34l17 41v50l-15 38l-37 38l-77 32h-73z" />
    <glyph glyph-name="four.oplf" horiz-adv-x="551" 
d="M526 117v-106h-101v-174h-107v174h-304v78l315 438h96v-410h101zM318 337l-159 -220h159v220z" />
    <glyph glyph-name="five.oplf" horiz-adv-x="566" 
d="M142 178l-77 56l44 293h344v-106h-252l-21 -118l7 3h121l93 -36l69 -69l30 -81v-92l-29 -80l-66 -70l-104 -46h-108l-99 42l-60 56l77 77l44 -44l59 -25h63l67 30l32 35l17 41v58l-14 36l-40 42l-52 20h-83z" />
    <glyph glyph-name="six.oplf" horiz-adv-x="580" 
d="M169 287v-73l14 -49l27 -37l56 -28h69l56 28l22 31l15 45v60l-11 35l-27 38l-54 29h-53l-61 -26l-41 -34zM178 438l86 35h95l106 -53l53 -77l18 -66v-87l-19 -71l-53 -74l-105 -53h-118l-104 52l-54 78l-22 78v288l25 90l68 91l106 50h102l102 -48l54 -52l-77 -77l-39 39
l-65 30h-52l-59 -28c-6.66699 -9.33301 -13.5 -18 -20.5 -26s-13.833 -16.667 -20.5 -26l-16 -60v-42z" />
    <glyph glyph-name="seven.oplf" horiz-adv-x="467" 
d="M55 -162l272 583h-299v106h427v-75l-281 -614h-119z" />
    <glyph glyph-name="eight.oplf" horiz-adv-x="583" 
d="M367 448l28 28l9 28v42l-11 31l-24 20l-53 14h-49l-53 -14l-24 -20l-11 -31v-42l10 -29l27 -28l35 -10h83zM246 331l-37 -14l-35 -35l-10 -34v-62l9 -37l34 -33l51 -16h67l52 16l33 33l10 35v63l-11 34l-34 36l-38 14h-91zM528 167l-23 -77l-70 -68l-98 -30h-91l-98 30
l-70 68l-23 79v92l25 77l51 49l-32 28l-28 72v73l25 78l64 53l94 28h76l94 -28l63 -53l26 -78v-73l-29 -72l-32 -29l51 -48l25 -77v-94z" />
    <glyph glyph-name="nine.oplf" horiz-adv-x="580" 
d="M411 246v67l-14 48c-4 6.66699 -8.16699 13 -12.5 19s-8.83301 12.333 -13.5 19l-57 28h-69l-56 -28l-23 -32l-13 -44v-56l10 -34l27 -38l54 -29h56l61 25l40 35zM401 93l-81.998 -34h-98l-107 53l-51 77l-19 66v82l19 71l53 74l105 53h118l104 -52l54 -78l22 -78v-268
l-25 -88l-69 -91l-104 -47h-103l-102 48l-53 52l77 78l39 -40l64 -30h53l58 26c7.33301 8.66699 14.166 17 20.499 25s13.166 16.667 20.499 26l16 58v26z" />
    <glyph glyph-name="commaturn" horiz-adv-x="268" 
d="M182 725v-104h-125v109l82 140l52 -29l-44 -101z" />
    <glyph glyph-name="grave.uc" horiz-adv-x="310" 
d="M26 849l44 80l204 -113l-44 -79z" />
    <glyph glyph-name="circumflex.uc" horiz-adv-x="430" 
d="M244 931l153 -123l-58 -70l-124 102l-124 -102l-58 70l153 123h58z" />
    <glyph glyph-name="caron.uc" horiz-adv-x="430" 
d="M186 737l-153 124l58 70l124 -102l124 102l58 -70l-153 -124h-58z" />
    <glyph glyph-name="acute.uc" horiz-adv-x="310" 
d="M76 736l-44 79l204 113l44 -80z" />
    <glyph glyph-name="tilde.uc" horiz-adv-x="447" 
d="M167 794h-13l-19 -5l-15 -17l-8 -25l-81 27l12 38l19 31l24 18l52 24h44l49 -20l34 -21l21 -3l20 8l16 14l7 24l81 -27l-12 -38l-19 -32l-25 -18l-52 -23h-39l-39 15l-43 26z" />
    <glyph glyph-name="breve.uc" horiz-adv-x="349" 
d="M202 826l22 20l5 12v27h85v-42l-15 -41l-50 -45l-52 -18h-45l-52 18l-50 45l-15 41v42h85v-26l6 -16l20 -16l23 -8h12z" />
    <glyph glyph-name="dieresis.uc" horiz-adv-x="411" 
d="M36 915h121v-124h-121v124zM252 915h122v-124h-122v124z" />
    <glyph glyph-name="dotaccent.uc" horiz-adv-x="199" 
d="M33 929h134v-137h-134v137z" />
    <glyph glyph-name="hungarumlaut.uc" horiz-adv-x="454" 
d="M232 885l-134 -149l-66 58l134 150zM420 885l-134 -149l-66 58l134 150z" />
    <glyph glyph-name="ring.uc" horiz-adv-x="295" 
d="M192 855l-7 19l-13 13l-18 7h-14l-20 -7l-11 -12l-7 -20v-15l7 -20l12 -12l19 -7h14l19 7l12 12l7 20v15zM260 829l-14 -39l-36 -41l-44 -16h-38l-44 16l-37 41l-13 39v37l13 39l37 41l44 16h38l44 -16l36 -41l14 -39v-37z" />
    <glyph glyph-name="two.otlf" 
d="M381 298l25 41v23l-31 40l-51 27h-41l-61 -30l-40 -40l-79 72l54 57l103 47h90l96 -52l67 -85v-87l-52 -88l-186 -117h250v-106h-414v115z" />
    <glyph glyph-name="two.oplf" horiz-adv-x="505" 
d="M307 298l25 41v23l-31 40l-51 27h-41l-61 -30l-40 -40l-79 72l54 57l103 47h90l96 -52l67 -85v-87l-52 -88l-184 -117h248v-106h-414v115z" />
    <glyph glyph-name="Omega" horiz-adv-x="816" 
d="M372 612l-69.999 -28.998l-47 -44l-34 -55l-18 -52v-101l20 -61l42 -65l79 -87v-118h-274v107h146c-7.33301 6.66699 -14.833 13.5 -22.5 20.5s-14.167 13.5 -19.5 19.5l-48 73l-31 96v128l27 86l55 83l72 64l103 42h112l105 -42l72 -64l55 -83l27 -87v-127l-31 -96
l-48 -74l-42 -39h145v-107h-274v118l80 87l42 64l19 61v101c-3.33301 9.33301 -6.33301 18.166 -9 26.499s-5.33398 17.166 -8.00098 26.499l-36 56l-46 43l-70 29h-73z" />
    <glyph glyph-name="csuperior" horiz-adv-x="312" 
d="M193 588l-20 7h-20l-20 -10l-19 -25l-5 -18v-38l5 -20l20 -26l20 -10h19l20 7l31 30l51 -50l-48 -46l-39 -12h-48l-55 26l-38 50l-10 37v63l10 38l38 49l55 27h48l39 -12l48 -47l-51 -49z" />
    <glyph glyph-name="fsuperior" horiz-adv-x="265" 
d="M81 586h-45v71h45v55l32 48l46 15h27l59 -14l-18 -72l-52 14h-6l-9 -2l-7 -10v-34h64v-71h-64v-205h-72v205z" />
    <glyph glyph-name="gsuperior" horiz-adv-x="349" 
d="M206 582l-12 7l-19 7h-23l-19 -10l-19 -26l-5 -18v-28l5 -18l17 -24l22 -8h25l24 17l10 12v83zM138 301l-35 9l-30 20l-24 24l49 44l23 -19l28 -8h26l34 19l3 5v8l-20 -11h-48l-57 21l-39 51l-11 37v52l10 38l38 49l55 27h51l21 -8v4h71v-277l-15 -45l-41 -26l-42 -14
h-47z" />
    <glyph glyph-name="ksuperior" horiz-adv-x="328" 
d="M208 663h101l-120 -118l117 -164h-87l-81 114l-12 -12v-102h-72v391h72v-191z" />
    <glyph glyph-name="psuperior" horiz-adv-x="345" 
d="M132 462l12 -9l17 -5h23l19 11l19 23l5 20v40l-5 18l-18 24l-22 11h-24l-23 -15l-9 -14v-98zM125 656l20 11h49l59 -27l37 -49l9 -37v-64l-9 -37l-37 -50l-57 -26h-50l-20 7v-80h-72v359h71v-7z" />
    <glyph glyph-name="qsuperior" horiz-adv-x="345" 
d="M210 304v85l-20 -12h-50l-58 26l-37 50l-10 37v63l10 38l37 49l56 27h49l23 -8v4h71v-359h-71zM204 582l-12 7l-19 7h-23l-19 -10l-20 -26l-5 -18v-39l5 -19l20 -26l21 -10h23l25 19l10 11v99z" />
    <glyph glyph-name="usuperior" horiz-adv-x="332" 
d="M165 448l27 19l10 11v185h72v-282h-72v8l-23 -12h-47l-46 12l-40 50v224h72v-199l8 -11l18 -5h21z" />
    <glyph glyph-name="vsuperior" horiz-adv-x="326" 
d="M16 663h79l63 -164l64 164h78l-113 -282h-58z" />
    <glyph glyph-name="zsuperior" horiz-adv-x="316" 
d="M41 381v52l120 159h-113v71h214v-53l-119 -159h122v-70h-224z" />
    <glyph glyph-name="plusinferior" horiz-adv-x="264" 
d="M97 -96v88h-83v67h83v88h67v-88h83v-67h-83v-88h-67z" />
    <glyph glyph-name="minusinferior" horiz-adv-x="264" 
d="M14 -8v67h233v-67h-233z" />
    <glyph glyph-name="equalinferior" horiz-adv-x="264" 
d="M14 45v67h233v-67h-233zM14 -61v67h233v-67h-233z" />
    <glyph glyph-name="zero.num" horiz-adv-x="385" 
d="M163 338l-52 23l-38 39l-20 48l-9 42v75l9 41l20 47l38 39l52 23h57l51 -23l37 -39l20 -47l9 -41v-75l-9 -42l-20 -48l-37 -39l-51 -23h-57zM223 427l17 16l8 24l8 30v60l-7 29l-8 22l-20 19l-19 10h-21l-20 -10l-21 -20l-8 -21l-7 -29v-61l8 -29l8 -24l18 -15l23 -11h20
z" />
    <glyph glyph-name="one.num" horiz-adv-x="241" 
d="M2 644l150 71h43v-367h-83v262l-75 -34z" />
    <glyph glyph-name="two.num" horiz-adv-x="335" 
d="M41 649l39 41l60 25h62l62 -29l39 -59v-57l-26 -50l-96 -96h127v-81h-257v65l158 155l11 24v15l-15 23l-21 10h-28l-24 -10l-32 -33z" />
    <glyph glyph-name="three.num" horiz-adv-x="337" 
d="M106 513v58l48 61h-101v78h214v-56l-58 -78l25 -9l38 -37l18 -43v-41l-18 -47l-33 -34l-61 -27h-61l-54 21l-42 42l60 59l31 -33l22 -10h28l26 11l15 15l5 16v14l-3 11l-17 16l-35 13h-47z" />
    <glyph glyph-name="four.num" horiz-adv-x="324" 
d="M297 506v-77h-50v-86h-82v86h-151v56l164 225h69v-204h50zM165 577l-49 -71h49v71z" />
    <glyph glyph-name="five.num" horiz-adv-x="341" 
d="M101 501l-51 35l25 174h195v-78h-124l-6 -40h49l50 -21l38 -35l17 -46v-44l-16 -46l-37 -39l-55 -23h-61l-51 20l-43 41l57 58l30 -30l24 -10h25l27 13l12 9l7 20v16l-5 15l-14 14l-21 7h-36z" />
    <glyph glyph-name="six.num" horiz-adv-x="355" 
d="M125 490v-26l6 -25l11 -11l20 -11h29l25 14l10 28v23l-3 11l-9 14l-22 11h-21l-27 -11l-17 -13zM126 585l29 11h53l59 -27l30 -42l11 -37v-47l-10 -33l-32 -44l-57 -28h-64l-61 29l-30 43l-10 36v146l13 47l39 50l58 26h56l57 -26l38 -36l-59 -55l-31 27l-23 12h-21
l-21 -11l-20 -24z" />
    <glyph glyph-name="seven.num" horiz-adv-x="263" 
d="M20 343l137 289h-143v78h242v-52l-146 -315h-90z" />
    <glyph glyph-name="eight.num" horiz-adv-x="354" 
d="M205 583l10 9l2 11v12l-3 10l-6 6l-22 6h-21l-24 -7l-6 -6l-2 -8v-15l2 -9l9 -8l13 -3h40zM157 502l-16 -7l-12 -10l-4 -12v-28l4 -12l8 -8l25 -7h27l23 6l9 10l4 12v27l-4 12l-9 9l-17 8h-38zM307 431l-11 -37l-44 -42l-49 -14h-56l-48 14l-45 42l-10 37v54l14 41l17 15
l-7 6l-17 42v40l14 42l39 30l50 14h43l49 -14l39 -30l14 -42v-40l-17 -42l-7 -6l19 -17l13 -39v-54z" />
    <glyph glyph-name="nine.num" horiz-adv-x="356" 
d="M226 566v24l-5 21l-11 15l-19 11h-29l-22 -11l-7 -7l-7 -25v-19l4 -13l10 -15l22 -9h20l29 9l13 13zM225 469l-26 -11h-57l-58 28l-30 44l-10 32v48l10 33l31 45l57 27h67l58 -27l29 -43l13 -41v-146l-14 -45l-38 -49l-57 -26h-58l-58 27l-37 35l62 59l28 -31l23 -11h20
l23 10l16 20z" />
    <glyph glyph-name="plus.num" horiz-adv-x="264" 
d="M97 405v88h-83v67h83v88h67v-88h83v-67h-83v-88h-67z" />
    <glyph glyph-name="minus.num" horiz-adv-x="264" 
d="M14 494v67h233v-67h-233z" />
    <glyph glyph-name="equal.num" horiz-adv-x="264" 
d="M14 546v67h233v-67h-233zM14 440v67h233v-67h-233z" />
    <glyph glyph-name="parenleft.num" horiz-adv-x="189" 
d="M120 552v-53l13 -61l16 -43l33 -48l-62 -41l-38 56l-24 57l-15 72v71l15 73l24 56l38 55l62 -41l-33 -48l-16 -43z" />
    <glyph glyph-name="parenright.num" horiz-adv-x="189" 
d="M55 615l-17 43l-32 48l61 41l39 -55l23 -56l15 -73v-71l-15 -72l-23 -57l-39 -56l-61 41l32 48l17 43l12 61v53z" />
    <glyph glyph-name="zero.den" horiz-adv-x="385" 
d="M163 -5l-52 23l-38 39l-20 48l-9 42v75l9 41l20 47l38 39l52 23h57l51 -23l37 -39l20 -47l9 -41v-75l-9 -42l-20 -48l-37 -39l-51 -23h-57zM223 84l17 16l8 24l8 30v60l-7 29l-8 22l-20 19l-19 10h-21l-20 -10l-21 -20l-8 -21l-7 -29v-61l8 -29l8 -24l18 -15l23 -11h20z
" />
    <glyph glyph-name="one.den" horiz-adv-x="241" 
d="M2 296l150 71h43v-367h-83v262l-75 -34z" />
    <glyph glyph-name="two.den" horiz-adv-x="335" 
d="M41 306l39 41l60 25h62l62 -29l39 -59v-57l-26 -50l-96 -96h127v-81h-257v65l158 155l11 24v15l-15 23l-21 10h-28l-24 -10l-32 -33z" />
    <glyph glyph-name="three.den" horiz-adv-x="337" 
d="M103 170v58l48 61h-101v78h214v-56l-58 -78l25 -9l38 -37l18 -43v-41l-18 -47l-33 -34l-61 -27h-61l-54 21l-42 42l60 59l31 -33l22 -10h28l26 11l15 15l5 16v14l-3 11l-17 16l-35 13h-47z" />
    <glyph glyph-name="four.den" horiz-adv-x="324" 
d="M297 163v-77h-50v-86h-82v86h-151v56l164 225h69v-204h50zM165 234l-49 -71h49v71z" />
    <glyph glyph-name="five.den" horiz-adv-x="341" 
d="M101 158l-51 35l25 174h195v-78h-124l-6 -40h49l50 -21l38 -35l17 -46v-44l-16 -46l-37 -39l-55 -23h-61l-51 20l-43 41l57 58l30 -30l24 -10h25l27 13l12 9l7 20v16l-5 15l-14 14l-21 7h-36z" />
    <glyph glyph-name="six.den" horiz-adv-x="355" 
d="M125 147v-26l6 -25l11 -11l20 -11h29l25 14l10 28v23l-3 11l-9 14l-22 11h-21l-27 -11l-17 -13zM126 242l29 11h53l59 -27l30 -42l11 -37v-47l-10 -33l-32 -44l-57 -28h-64l-61 29l-30 43l-10 36v146l13 47l39 50l58 26h56l57 -26l38 -36l-59 -55l-31 27l-23 12h-21
l-21 -11l-20 -24z" />
    <glyph glyph-name="seven.den" horiz-adv-x="263" 
d="M20 0l137 289h-143v78h242v-52l-146 -315h-90z" />
    <glyph glyph-name="eight.den" horiz-adv-x="354" 
d="M205 240l10 9l2 11v12l-3 10l-6 6l-22 6h-21l-24 -7l-6 -6l-2 -8v-15l2 -9l9 -8l13 -3h40zM157 159l-16 -7l-12 -10l-4 -12v-28l4 -12l8 -8l25 -7h27l23 6l9 10l4 12v27l-4 12l-9 9l-17 8h-38zM307 88l-11 -37l-44 -42l-49 -14h-56l-48 14l-45 42l-10 37v54l14 41l17 15
l-7 6l-17 42v40l14 42l39 30l50 14h43l49 -14l39 -30l14 -42v-40l-17 -42l-7 -6l19 -17l13 -39v-54z" />
    <glyph glyph-name="nine.den" horiz-adv-x="356" 
d="M226 223v24l-5 21l-11 15l-19 11h-29l-22 -11l-7 -7l-7 -25v-19l4 -13l10 -15l22 -9h20l29 9l13 13zM225 126l-26 -11h-57l-58 28l-30 44l-10 32v48l10 33l31 45l57 27h67l58 -27l29 -43l13 -41v-146l-14 -45l-38 -49l-57 -26h-58l-58 27l-37 35l62 59l28 -31l23 -11h20
l23 10l16 20z" />
    <glyph glyph-name="plus.den" horiz-adv-x="264" 
d="M97 62v88h-83v67h83v88h67v-88h83v-67h-83v-88h-67z" />
    <glyph glyph-name="minus.den" horiz-adv-x="264" 
d="M14 150v67h233v-67h-233z" />
    <glyph glyph-name="equal.den" horiz-adv-x="264" 
d="M14 203v67h233v-67h-233zM14 97v67h233v-67h-233z" />
    <glyph glyph-name="parenleft.den" horiz-adv-x="189" 
d="M120 210v-53l13 -61l16 -43l33 -48l-62 -41l-38 56l-24 57l-15 72v71l15 73l24 56l38 55l62 -41l-33 -48l-16 -43z" />
    <glyph glyph-name="parenright.den" horiz-adv-x="189" 
d="M55 272l-17 43l-32 48l61 41l39 -55l23 -56l15 -73v-71l-15 -72l-23 -57l-39 -56l-61 41l32 48l17 43l12 61v53z" />
    <glyph glyph-name="at.case" horiz-adv-x="840" 
d="M506 313l-7 7l-25 14l-33 9h-27l-43 -11l-26 -28l-4 -14v-18l18 -25l15 -7l30 -10h25l37 16l34 30l6 10v27zM639 215l33.002 28.001l33 73v93l-24 95l-50 70c-11.333 7.33301 -22.5 15.166 -33.5 23.499s-22.5 16.5 -34.5 24.5l-85 19h-98l-82 -28l-77 -55l-58 -78
l-28 -83v-83l28 -83c9.33301 -13.333 18.833 -26.5 28.5 -39.5s19.5 -25.833 29.5 -38.5c13.333 -9.33301 26.166 -18.5 38.499 -27.5s25.166 -18.167 38.499 -27.5l82 -28h80l90 33l38 -77l-115 -42h-105l-110 38l-96 67l-74 101l-38 112v107l38 112l74 101l96 67l110 38
h126l106 -27l91 -62l70 -98l30 -113v-127l-52 -111l-78 -60h-62l-55 32l-20 29l-8 -11l-73 -35h-53l-51 16l-38 22l-45 65v52l11 49l61 60l73 20h50l50 -16l5 -3v31l-7 18l-24 17l-31 7h-51l-23 -7l-28 -17l-17 -17l-60 61l25 23l44 28l45 14h73l58 -14l59 -39l22 -56v-211
l24 -32h24z" />
    <glyph glyph-name="bar.case" horiz-adv-x="313" 
d="M202 -136h-91v954h91v-954z" />
    <glyph glyph-name="brokenbar.case" horiz-adv-x="313" 
d="M202 -137h-91v399h91v-399zM202 419h-91v399h91v-399z" />
    <glyph glyph-name="plus.case" horiz-adv-x="580" 
d="M242 122v186h-176v95h176v186h96v-186h176v-95h-176v-186h-96z" />
    <glyph glyph-name="minus.case" horiz-adv-x="580" 
d="M66 403h448v-95h-448v95z" />
    <glyph glyph-name="multiply.case" horiz-adv-x="580" 
d="M67 200l156 155l-156 156l67 67l156 -155l156 155l67 -67l-156 -156l156 -155l-67 -67l-156 155l-156 -155z" />
    <glyph glyph-name="divide.case" horiz-adv-x="580" 
d="M222 255h135v-133h-135v133zM222 588h135v-133h-135v133zM66 403h448v-95h-448v95z" />
    <glyph glyph-name="equal.case" horiz-adv-x="580" 
d="M66 483h448v-95h-448v95zM66 322h448v-95h-448v95z" />
    <glyph glyph-name="notequal.case" horiz-adv-x="580" 
d="M66 322h169l46 66h-215v95h281l65 93l49 -34l-41 -59h94v-95h-160l-46 -66h206v-95h-272l-75 -108l-49 34l51 74h-103v95z" />
    <glyph glyph-name="approxequal.case" horiz-adv-x="660" 
d="M600 253l-70 -38l-69 -16h-55l-55 12l-65 22l-48 7h-23l-49 -12l-57 -30l-46 88l70 37l67 17h45l67 -11l62 -21l39 -10h39l40 10l59 32zM600 426l-70 -38l-69 -16h-55l-55 12l-65 22l-48 8h-23l-49 -13l-57 -30l-46 88l70 37l67 17h45l67 -11l62 -21l39 -10h39l40 11
l59 31z" />
    <glyph glyph-name="logicalnot.case" horiz-adv-x="600" 
d="M516 401v-311h-96v216h-352v95h448z" />
    <glyph glyph-name="parenleft.case" horiz-adv-x="348" 
d="M155 285l30 -152l45 -115l62 -91l-87 -60l-73 105l-52 127l-33 172v155l33 173l53 121l73 104l87 -59l-62 -91l-45 -108l-31 -154v-127z" />
    <glyph glyph-name="parenright.case" horiz-adv-x="348" 
d="M193 412l-30 152l-42 107l-62 91l87 59l73 -104l49 -118l33 -173v-155l-33 -172l-49 -121l-73 -105l-87 60l62 91l41 107l31 154v127z" />
    <glyph glyph-name="hyphen.case" horiz-adv-x="480" 
d="M70 402h340v-95h-340v95z" />
    <glyph glyph-name="bracketleft.case" horiz-adv-x="346" 
d="M284 -51v-106h-236v982h236v-105h-129v-771h129z" />
    <glyph glyph-name="bracketright.case" horiz-adv-x="346" 
d="M191 -51v771h-129v105h236v-982h-236v106h129z" />
    <glyph glyph-name="braceleft.case" horiz-adv-x="413" 
d="M361 721h-105l-16 -10l-8 -17v-263l-75 -76l75 -76v-303l8 -18l16 -9h105v-106h-137l-64 35l-35 66v291l-93 95v46l93 95v254l35 67l64 34h137v-105z" />
    <glyph glyph-name="braceright.case" horiz-adv-x="413" 
d="M52 826h137l64 -34l35 -67v-254l93 -95v-46l-93 -95v-291l-35 -66l-64 -35h-137v106h105l16 9l8 18v303l75 76l-75 76v263l-8 17l-16 10h-105v105z" />
    <glyph glyph-name="guillemotleft.case" horiz-adv-x="538" 
d="M140 356l125 -169l-78 -62l-149 203v56l149 204l78 -63zM347 356l125 -169l-77 -62l-150 203v56l150 204l77 -63z" />
    <glyph glyph-name="guillemotright.case" horiz-adv-x="538" 
d="M265 525l78 63l150 -204v-56l-150 -203l-78 62l126 169zM58 525l78 63l150 -204v-56l-150 -203l-78 62l126 169z" />
    <glyph glyph-name="endash.case" 
d="M570 399v-89h-500v89h500z" />
    <glyph glyph-name="emdash.case" horiz-adv-x="1280" 
d="M70 310v89h1140v-89h-1140z" />
    <glyph glyph-name="guilsinglleft.case" horiz-adv-x="325" 
d="M138 356l126 -169l-78 -62l-150 203v56l150 204l78 -63z" />
    <glyph glyph-name="guilsinglright.case" horiz-adv-x="325" 
d="M57 525l78 63l149 -204v-56l-149 -203l-78 62l125 169z" />
    <glyph glyph-name="less.case" horiz-adv-x="500" 
d="M149 354l286 -169l-46 -79l-351 208v81l351 208l46 -78z" />
    <glyph glyph-name="greater.case" horiz-adv-x="500" 
d="M344 355l-286 170l46 78l351 -208v-81l-351 -208l-46 79z" />
    <glyph glyph-name="colon.case" horiz-adv-x="309" 
d="M87 237h135v-139h-135v139zM87 617h135v-139h-135v139z" />
    <glyph glyph-name="exclamdown.case" horiz-adv-x="359" 
d="M233 500v-500h-108v500h108zM250 564h-142v147h142v-147z" />
    <glyph glyph-name="questiondown.case" horiz-adv-x="562" 
d="M204 248l-13 -29l-8 -37l10 -39l17 -19l44 -16h44l47 13l22 19l7 14l9 60l107 -17l-13 -77l-23 -48l-60 -49l-80 -23h-78l-85 33l-58 57l-20 88l13 74l30 59l77 64l39 60v73h108v-109l-58 -90zM357 572h-142v147h142v-147z" />
    <glyph glyph-name="lessequal.case" horiz-adv-x="520" 
d="M155 429l286 -169l-46 -79l-351 208v81l351 208l46 -78zM455 145v-95h-413v95h413z" />
    <glyph glyph-name="plusminus.case" horiz-adv-x="580" 
d="M242 185v157h-176v95h176v176h96v-176h176v-95h-176v-157h-96zM66 145h448v-95h-448v95z" />
    <glyph glyph-name="greaterequal.case" horiz-adv-x="520" 
d="M367 430l-286 170l45 78l352 -208v-81l-352 -208l-45 79zM479 145v-95h-412v95h412z" />
    <glyph glyph-name="arrowup.case" horiz-adv-x="548" 
d="M58 517l188 194h49l187 -194l-61 -58l-106 109v-567h-89v566l-107 -108z" />
    <glyph glyph-name="arrowright.case" horiz-adv-x="850" 
d="M581 591l193 -187v-49l-193 -188l-59 62l109 106h-567v89h566l-108 106z" />
    <glyph glyph-name="arrowdown.case" horiz-adv-x="548" 
d="M119 253l107 -108v566h89v-567l106 109l61 -58l-187 -194h-49l-188 194z" />
    <glyph glyph-name="arrowleft.case" horiz-adv-x="850" 
d="M328 530l-108 -106h566v-89h-567l109 -106l-59 -62l-193 188v49l193 187z" />
    <glyph glyph-name="uni2196.case" horiz-adv-x="850" 
d="M149 288l-4 269l35 35l269 -4l-2 -84l-152 1l401 -400l-63 -63l-401 399l2 -150z" />
    <glyph glyph-name="uni2197.case" horiz-adv-x="850" 
d="M615 291l2 150l-401 -399l-63 63l401 400l-152 -1l-2 84l269 4l35 -35l-4 -269z" />
    <glyph glyph-name="uni2198.case" horiz-adv-x="833" 
d="M700 344l4 -269l-35 -35l-269 4l2 84l152 -1l-401 400l63 63l401 -399l-2 150z" />
    <glyph glyph-name="uni2199.case" horiz-adv-x="833" 
d="M234 341l-2 -150l401 399l63 -63l-401 -400l152 1l2 -84l-269 -4l-35 35l4 269z" />
    <glyph glyph-name="circleinvert" horiz-adv-x="842" 
d="M792 300l-37 -109l-75 -103l-98 -67l-107 -37h-108l-107 37l-98 67l-75 103l-37 109v111l37 109l75 103l98 67l107 37h108l107 -37l98 -67l75 -103l37 -109v-111z" />
    <glyph glyph-name="zero.oplfslash" horiz-adv-x="643" 
d="M461 503l62 -56l38 -66l17 -68v-99l-17 -68l-38 -66l-62 -56l-82 -32h-115l-82 32l-62 56l-38 66l-17 68v99l17 68l38 66l62 56l82 32h115zM403 115l37 34l19 33l12 46v71l-12 48l-7 11l-222 -235l9 -8l42 -17h80zM184 182l5 -10l222 234l-7 7l-42 16h-81l-42 -16
l-36 -35l-19 -31l-12 -48v-71z" />
    <glyph glyph-name="zero.otlfslash" horiz-adv-x="643" 
d="M461 503l62 -56l38 -66l17 -68v-99l-17 -68l-38 -66l-62 -56l-82 -32h-115l-82 32l-62 56l-38 66l-17 68v99l17 68l38 66l62 56l82 32h115zM403 115l37 34l19 33l12 46v71l-12 48l-7 11l-222 -235l9 -8l42 -17h80zM184 182l5 -10l222 234l-7 7l-42 16h-81l-42 -16
l-36 -35l-19 -31l-12 -48v-71z" />
    </font>
</defs>
</svg>
